<?xml version="1.0" standalone="no"?><!DOCTYPE svg PUBLIC "-//W3C//DTD SVG 1.1//EN" "http://www.w3.org/Graphics/SVG/1.1/DTD/svg11.dtd"><svg t="1740980469821" class="icon" viewBox="0 0 1024 1024" version="1.1" xmlns="http://www.w3.org/2000/svg" p-id="33389" xmlns:xlink="http://www.w3.org/1999/xlink" width="200" height="200"><path d="M350.315789 449.122807H170.666667l-14.695299 161.684211h209.03972L350.315789 449.122807M134.736842 844.350877h251.508772l-11.425684-125.754386H146.162526L134.736842 844.350877" fill="#F9EBB0" p-id="33390"></path><path d="M152.701754 646.736842l-3.269614 35.929825h222.118176L368.280702 646.736842H152.701754" fill="#FBD490" p-id="33391"></path><path d="M146.162526 718.596491h228.657404l-3.269614-35.929824H149.43214l-3.269614 35.929824M365.011088 610.807018H155.971368L152.701754 646.736842h215.578948l-3.269614-35.929824" fill="#D6C990" p-id="33392"></path><path d="M853.333333 359.298246H637.754386c-19.761404 0-35.929825-16.168421-35.929825-35.929825s16.168421-35.929825 35.929825-35.929825h215.578947c19.761404 0 35.929825 16.168421 35.929825 35.929825s-16.168421 35.929825-35.929825 35.929825" fill="#38454F" p-id="33393"></path><path d="M343.614877 53.894737H314.385965V24.64786C314.385965 11.030456 303.337544 0 289.72014 0h-58.475789C217.626947 0 206.596491 11.030456 206.596491 24.64786V53.894737H177.349614C163.732211 53.894737 152.701754 64.925193 152.701754 78.542596v40.528843C152.701754 132.688842 163.732211 143.719298 177.349614 143.719298H206.596491v53.894737h107.789474V143.719298h29.228912C357.232281 143.719298 368.280702 132.688842 368.280702 119.071439V78.542596C368.280702 64.925193 357.232281 53.894737 343.614877 53.894737" fill="#FBD490" p-id="33394"></path><path d="M368.280702 359.298246H152.701754l-28.689965-129.113825A26.767719 26.767719 0 0 1 150.132772 197.614035h220.716912a26.767719 26.767719 0 0 1 26.120983 32.570386L368.280702 359.298246" fill="#F9EBB0" p-id="33395"></path><path d="M871.298246 844.350877H619.789474l35.929824-395.22807h179.649123l35.929825 395.22807" fill="#38454F" p-id="33396"></path><path d="M853.333333 952.140351H637.754386a53.894737 53.894737 0 1 1 0-107.789474h215.578947a53.894737 53.894737 0 1 1 0 107.789474" fill="#546A79" p-id="33397"></path><path d="M925.192982 1024H565.894737a35.929825 35.929825 0 1 1 0-71.859649h359.298245a35.929825 35.929825 0 0 1 0 71.859649" fill="#38454F" p-id="33398"></path><path d="M862.315789 449.122807h-233.543859a44.912281 44.912281 0 1 1 0-89.824561h233.543859a44.912281 44.912281 0 1 1 0 89.824561" fill="#546A79" p-id="33399"></path><path d="M377.263158 449.122807h-233.54386a44.912281 44.912281 0 1 1 0-89.824561h233.54386a44.912281 44.912281 0 1 1 0 89.824561M368.280702 952.140351H152.701754a53.894737 53.894737 0 1 1 0-107.789474h215.578948a53.894737 53.894737 0 1 1 0 107.789474" fill="#FBD490" p-id="33400"></path><path d="M440.140351 1024H80.842105a35.929825 35.929825 0 1 1 0-71.859649h359.298246a35.929825 35.929825 0 0 1 0 71.859649" fill="#F9EBB0" p-id="33401"></path><path d="M907.22807 89.824561l-51.110175 85.17165a9.557333 9.557333 0 0 1-8.209965 4.652912H793.150877a9.593263 9.593263 0 0 1-9.395649-11.461614L799.438596 89.824561h-107.789473l15.683368 78.362948a9.593263 9.593263 0 0 1-9.395649 11.461614h-54.757053a9.557333 9.557333 0 0 1-8.209964-4.652912L583.859649 89.824561h-71.859649l89.824561 197.614035h287.438597l89.824561-197.614035h-71.859649" fill="#546A79" p-id="33402"></path></svg>