<svg id="图层_1" data-name="图层 1" xmlns="http://www.w3.org/2000/svg" xmlns:xlink="http://www.w3.org/1999/xlink" viewBox="0 0 747.1 820.5"><defs><style>.cls-1{font-size:24px;fill:#c63232;font-family:KingHwa_OldSong;}.cls-2{fill:none;}.cls-3{fill:url(#未命名的渐变_46);}.cls-4{fill:url(#未命名的渐变_46-2);}</style><linearGradient id="未命名的渐变_46" x1="402.27" y1="514.33" x2="535.06" y2="514.33" gradientUnits="userSpaceOnUse"><stop offset="0.3" stop-color="#ff9494"/><stop offset="0.56" stop-color="#ff4747"/></linearGradient><linearGradient id="未命名的渐变_46-2" x1="213.87" y1="890.85" x2="608.61" y2="890.85" xlink:href="#未命名的渐变_46"/></defs><text class="cls-1" transform="translate(397.51 779.93)">—————— 琴马</text><text class="cls-1" transform="translate(360.25 513.09)">—————— 琴杆</text><text class="cls-1" transform="translate(497.22 314.32)">—————— 弓子</text><text class="cls-1" transform="translate(0 720.45)">琴筒 ——————</text><text class="cls-1" transform="translate(57.36 393.65)">琴弦 ——————</text><text class="cls-1" transform="translate(81.43 284.37)">千金 ——————</text><text class="cls-1" transform="translate(445.17 182.94)">—————— 琴轴</text><text class="cls-1" transform="translate(409.22 64.26)">—————— 琴头</text><line class="cls-2" x1="747.1" y1="820.39" x2="402.39" y2="820.5"/><path class="cls-3" d="M496.41,372.64c1.28-1.31,2.82.3,4,1a55.15,55.15,0,0,1,15.66,18.06,30.45,30.45,0,0,1,3.3,8.33,47.3,47.3,0,0,0-29.19,7c-8.82,5.46-15.2,15.75-18.14,27.17-.76,3-1.56,6.08-2.06,9.21-.73,3.8,1.78,7.26,1.14,11.07-1.15,7.88-2.5,15.72-3.52,23.63,20.77,2.36,41.57,4.29,62.33,6.88,1.38.25,3,0,4.15,1.07,1.31,2.32.89,5.35.73,8-.69,6.06-1.4,12.27-3.65,17.8-.84,1.75-2.71,1.28-4.05.95-11.14-3.17-22.08-7.24-33.11-10.93q-12.44-4.14-24.82-8.54a13.17,13.17,0,0,0-3.62-.86q-3.92,26.14-7.82,52.3c8.73,1.4,17.53,2.12,26.29,3.26,12.32,1.62,24.66,2.93,37,4.75,1.12.22,2.37.22,3.34,1.07a8.91,8.91,0,0,1,.76,3.66c.11,5.58-1,11-2.06,16.44-.49,2-.86,4.2-2,5.81-1.12,1.31-2.75.43-4.06.17-10.21-3.39-20.49-6.48-30.6-10.29-10.32-3.22-20.5-7-30.78-10.36-1.5,10.06-3.12,20.1-4.55,30.17-.54,4.37-2.77,8-4.12,12a45.73,45.73,0,0,0-2.4,10.27q-2.7,18-5.38,36c-.43,3-1,5.86-1.23,8.86-6.21-2.24-12.55-4.19-19-4.81,1.61-12.27,3.76-24.42,5.55-36.65.83-6.16,2.14-12.31,1.77-18.6.05-4.47-1.33-8.94-.32-13.37,1.6-10.08,3.31-20.13,4.74-30.24-5.43-1.37-10.91-2.41-16.32-3.86a64.93,64.93,0,0,0-1.26,8.48,332.23,332.23,0,0,0-2.26,37.87,303.56,303.56,0,0,1-3.18,44c-.59,3.88-1.17,7.78-1.8,11.66-1.18.09-2.36.2-3.54.36,1.78-12,3.82-24,4.47-36.25.91-13.62.58-27.31,1.61-40.93a323,323,0,0,1,4.16-36c2.32-16.07,4.84-32.09,7.31-48.12,1.28-7.06,2.19-14.22,3.62-21.23,1.47-.23,2.6.84,3,2.53,5.52,1.09,11.05,2.17,16.61,3,1.54-8.53,2.7-17.15,4.28-25.67.44-2.69,2.16-4.55,3.71-6.34,1.18-1.22,1.39-3.19,1.84-4.89,2.22-10,5.32-19.76,10-28.43,5-9.89,12.3-17.69,19.94-24.46C487.35,380.58,491.78,376.43,496.41,372.64Zm-72.17,111c-2.72,17.85-5.63,35.66-8.24,53.54,5.54,1.24,11.08,2.61,16.67,3.45,2.87-18,5.8-36,8.51-54C435.54,485.54,429.92,484.2,424.24,483.61Z" transform="translate(-89.89 -372.14)"/><path class="cls-4" d="M592.68,609.38c4-1,8.32-2,12.37-.54a5.21,5.21,0,0,1,3.56,5.12c-.09,4-1.54,7.67-2.89,11.21-3.75,9.42-9.76,17.11-16.34,23.66-20.58,20.22-41,40.63-61.77,60.62-20.24,20.29-40.89,40-61.14,60.24-17.49,17-34.75,34.29-52.14,51.4-.8.74-.95,2-1.14,3.14-4.86,32.17-9.46,64.39-14.37,96.55-2,14.49-4.27,28.91-6.38,43.37-3.75,26.13-7.88,52.17-11.62,78.31-.7,5.42-1.93,10.75-2.21,16.24,5.59.91,11.18-.46,16.77-.68,4.79.06,9.72.64,14.1,3.2,3.92,2,6.75,6.1,10.1,9.17a21.88,21.88,0,0,0,16.24,6.28c.65-.12,1.49.11,2-.56,0-1.68-.05-3.37.11-5,1.91-1.65,5-2.15,6.69.1,1.06,2,.91,4.61,1.32,6.91a7.66,7.66,0,0,1,5.79,4.21c2.37,4.6,3,10.12,3.64,15.41a106.16,106.16,0,0,1-3.72,42.06,48,48,0,0,1-8.57,16.21c2.95,5.92-.43,14.81-6,16.07a63.41,63.41,0,0,1-15.52,1.54c-11.28-.54-22.49-2.32-33.76-3.08a212,212,0,0,0-22.83-.16c-10.19.64-20.5,1.05-30.57-1.32-4.36-1-8.8-2.23-12.61-5.14-2.4-1.78-3.58-5.27-3.71-8.58a21.55,21.55,0,0,1,1.6-9.44c1-1.9,3-1.76,4.65-2.22,1.34-6.49,2.59-13,3.81-19.52a76.22,76.22,0,0,0,1.46-8.39,2.56,2.56,0,0,0-2.63-.7,19.28,19.28,0,0,0-1,4.07c-.88,4.71-1.94,9.37-2.76,14.1a25.09,25.09,0,0,1-1.48,5.32,10.68,10.68,0,0,1-5.79-2.34,4.79,4.79,0,0,1-1.22-4.09c.82-6.87,2.74-13.46,3.68-20.3-2.54-.81-5.33-1.17-7.46-3.18,0-10.37,3.19-20.19,6.56-29.53a129.25,129.25,0,0,1,6.66-14.85c.3.76.63,1.51,1,2.27,1.11-1.55,1.35-3.6,1.55-5.56,2-12,4.68-23.74,6.87-35.66q15.3-76.31,29.18-153a57.86,57.86,0,0,0-6.28,6c-8,7.91-15.89,15.89-24,23.63q-31.27,31-62.69,61.77c-4.13,3.89-8,8.32-12.55,11.44-3.45,2.4-7.48,1.3-11.16.6-3.2-.65-6.2,1.32-8.6,3.72-4.55,4.52-9,9.18-13.5,13.76-1.64,1.53-3.08,3.49-5,4.42-2.23,1-5-1.22-5-4.18-.3-2.3,1.22-4,2.52-5.33,31.86-32.58,63.78-65.08,95.47-97.9q28.83-29.64,57.55-59.42c.79-1.28.89-2.94,1.23-4.42Q383.85,755.22,396.53,684c1.62-9.27,3.41-18.5,4.83-27.82a93.14,93.14,0,0,1,21.71,1.46c4.14.83,8.32,1.65,12.26,3.49.56.32,1.26.5,1.63,1.18a42.6,42.6,0,0,1-.55,4.38c-9.35-4.85-19.65-5.41-29.64-6.31-.88.14-2.54-.66-2.52,1-9,53.44-18.75,106.7-28.06,160.06-.13.84-.21,1.69-.29,2.55,3.29-2.84,6.22-6.26,9.35-9.37s6-6.26,9.08-9.26a3.39,3.39,0,0,0,1.18-2.15q8.82-56.28,17.39-112.63c1.29-8.14,2.36-16.32,3.82-24.41a47.54,47.54,0,0,1,16.5,4,6.29,6.29,0,0,1,2.3,1.46c-1.21,10.13-2.92,20.16-4.37,30.25-2.12,14.48-4.16,29-6.38,43.43-1.63,11.09-3.47,22.14-4.85,33.27,2.12-1.63,3.88-3.86,5.83-5.78C449,748.89,472,724.64,495.24,700.7q31.65-32.9,63.42-65.62c4.63-4.59,9.07-9.49,13.86-13.86C578.49,615.68,585.29,611.25,592.68,609.38ZM575.85,630q-36.42,37.46-72.63,75.22c-21.66,22.17-43.07,44.71-64.73,66.9q-14.22,14.61-28.33,29.36c-11.52,11.7-22.9,23.59-34.43,35.28-1,1.07-2.34,2-2.55,3.73-.59,3.17-1.22,6.32-1.75,9.5,4.38-3.6,8.27-8.06,12.44-12q18.4-18.24,36.81-36.45,16.68-16.21,33.25-32.62Q518.84,705.07,584,641.71c3-2.88,6.09-5.81,8.27-9.7,1-2.08,2-4.73,1.05-7.13-1.13-2.8-4.08-3.13-6.32-2.76C582.63,623,579.25,626.78,575.85,630ZM358.56,854.73C340,874,321.4,893.05,302.89,912.3c-8.43,8.71-16.94,17.29-25.35,26-7.7,8-15.57,15.79-23.27,23.8.6.53,1.31,1.93,2.16,1.21,2.2-1.78,4.06-4.11,6.21-6,16.13-16.18,32.51-32,48.69-48.11,8.95-8.83,18-17.5,26.9-26.45s18.23-17.63,27-26.95c.78-3.35,1.38-6.77,2.11-10.14C364.32,848.58,361.5,851.72,358.56,854.73Zm22.07-.36c-3.68,3.42-7.1,7.23-10.8,10.63a4,4,0,0,0-1.49,2.24c-9.21,50.2-18.61,100.36-28.92,150.25-2.31,12.23-5.08,24.34-7.13,36.65,2.21-1.93,4.55-4.17,7.44-4,4.42.16,8.79,1.2,13.22,1.56,0,1.27.07,2.55.17,3.83,3.16.2,6.3.54,9.45.78a9.07,9.07,0,0,1,3.57.85c1.3,1.94,1.68,4.49,2.15,6.87a122.46,122.46,0,0,1,1.56,23.14A132,132,0,0,1,364,1123.8c-1.75,4.84-3.52,9.76-6.3,13.86-1.72,2.63-3.76,5.32-6.53,6.18a42.89,42.89,0,0,1-11.83-.93,151.94,151.94,0,0,0,3.51-20.36,5.43,5.43,0,0,0-.05-2.41,5.28,5.28,0,0,0-2.56-.93c-1.08,3-1.38,6.38-2.07,9.57-1,6-2.54,12-3.06,18.15a45.23,45.23,0,0,0,8,1.93c4,.57,8.14,1.35,12.06-.16,3.16-1.4,5.48-4.63,7.58-7.71,6-9.59,9.31-21.29,11.11-33,2.2-14.79,2.47-30.21-.54-44.86-.9-3.89-2.08-8-4.74-10.63-3.3-2.43-7.31-1.39-10.95-1.88,10.47-68,21.06-136,31.36-204C385.88,848.58,383.42,851.77,380.63,854.37Zm62.91,230.7c.41,3.36,1,6.69,1.36,10.07a112.89,112.89,0,0,1-.62,30.94c-1.2,6.19-2.71,12.57-6.16,17.52-.77,1.19-1.94,2.2-3.25,2-4.75-.58-9.46-1.62-14.17-2.59-13-2.9-25.95-5.81-39.11-6.93-3-.09-6.1-.67-8.94.69-1.36.48-1.3,3.37.11,3.71a27.32,27.32,0,0,0,4.58.92c7.85,1.11,15.65,2.71,23.46,4.22,9.75,1.81,19.39,4.39,29.17,5.93,2,.28,4.11,1,6.07.07,3-1.26,5.09-4.42,6.69-7.61a61.92,61.92,0,0,0,4.59-13.71,104.49,104.49,0,0,0-.1-42.49,4.54,4.54,0,0,0-1.54-2.92A4.34,4.34,0,0,0,443.54,1085.07Z" transform="translate(-89.89 -372.14)"/><text x="-89.89" y="-372.14"/></svg>