<svg xmlns="http://www.w3.org/2000/svg" xmlns:xlink="http://www.w3.org/1999/xlink" viewBox="0 0 1002.88 1173.75"><defs><style>.cls-1,.cls-2,.cls-3{font-size:24px;font-family:KingHwa_OldSong;}.cls-1,.cls-3{fill:#e3d5b3;}.cls-2{fill:#c35d1b;}.cls-3{writing-mode:tb;text-orientation:upright;glyph-orientation-vertical:0deg;}.cls-10,.cls-11,.cls-15,.cls-16,.cls-17,.cls-18,.cls-4,.cls-7,.cls-8{fill:none;}.cls-5{fill:url(#未命名的渐变_2);}.cls-6{fill:#dc4f4e;}.cls-10,.cls-7{stroke:#d26d11;}.cls-10,.cls-11,.cls-15,.cls-16,.cls-17,.cls-18,.cls-7,.cls-8{stroke-miterlimit:10;}.cls-11,.cls-8{stroke:#dc4f4e;}.cls-9{fill:#d26d11;}.cls-10,.cls-11,.cls-16{stroke-width:5.2px;}.cls-12{fill:url(#未命名的渐变_5);}.cls-13{fill:#e27f76;}.cls-14{fill:#e0726b;}.cls-15{stroke:#e0726b;}.cls-16,.cls-17{stroke:#e27f76;}.cls-18{stroke:#d13f52;}</style><linearGradient id="未命名的渐变_2" x1="407.21" y1="304.72" x2="574.56" y2="304.72" gradientTransform="translate(-72.23 70.22) rotate(-6.47)" gradientUnits="userSpaceOnUse"><stop offset="0.3" stop-color="#f08f90"/><stop offset="0.56" stop-color="#e94b48"/></linearGradient><linearGradient id="未命名的渐变_5" x1="169.57" y1="778.74" x2="667.41" y2="778.74" gradientTransform="translate(-72.23 70.22) rotate(-6.47)" gradientUnits="userSpaceOnUse"><stop offset="0.3" stop-color="#e99b94"/><stop offset="0.56" stop-color="#da605e"/></linearGradient></defs><g id="图层_1" data-name="图层 1"><text class="cls-1" transform="translate(85.08 781.37)">起源</text><text class="cls-1" transform="translate(234.95 872.12)">演变</text><text class="cls-1" transform="translate(594.42 863.19)">革新</text><text class="cls-2" transform="translate(102.03 826.82) rotate(90)">——————</text><text class="cls-2" transform="translate(250.2 924.32) rotate(90)">——————</text><text class="cls-2" transform="translate(609.85 909.38) rotate(90)">——————</text><text class="cls-2" transform="translate(798.12 798.89) rotate(90)">——————</text><text class="cls-3" transform="translate(125.61 975.72)">胡乐西来<tspan x="-28.8" y="0">唐称奚琴</tspan></text><text class="cls-3" transform="translate(271.41 1077.75)">竹片改弓<tspan x="-28.8" y="0">马尾定音</tspan></text><text class="cls-3" transform="translate(650.25 1064.2)">民间传习<tspan x="-28.8" y="0">戏曲相融</tspan></text><text class="cls-3" transform="translate(784.35 931.19)">二泉映月<tspan x="-28.8" y="0">赛马失声</tspan></text><line class="cls-4" x1="1002.88" y1="1003.41" x2="570.85" y2="1052.51"/><path class="cls-5" d="M464.52,136.48c1.42-1.82,3.58,0,5.16.69a69.53,69.53,0,0,1,22.19,20.37,38.6,38.6,0,0,1,5.32,10,59.78,59.78,0,0,0-35.6,12.9c-10.28,8.08-16.82,21.86-18.88,36.57-.53,3.86-1.1,7.83-1.28,11.81-.38,4.86,3.26,8.83,3,13.69-.32,10-.91,20-1.06,30.06,26.36,0,52.71-.54,79.1-.25,1.76.12,3.76-.42,5.35.75,2,2.72,1.87,6.57,2,9.91,0,7.68,0,15.55-2,22.78-.81,2.31-3.22,2-4.94,1.77-14.42-2.39-28.71-5.92-43.05-9q-16.18-3.42-32.32-7.16a16.3,16.3,0,0,0-4.66-.56q-1.22,33.25-2.39,66.54c11.14.51,22.27.16,33.41.34,15.68.28,31.33.16,47,.69,1.44.11,3-.06,4.34.86a11.24,11.24,0,0,1,1.47,4.47c.93,7,.31,13.9-.25,20.86-.33,2.57-.48,5.38-1.68,7.55-1.22,1.8-3.39.93-5.07.79-13.27-2.79-26.6-5.19-39.81-8.52-13.39-2.57-26.69-5.85-40.05-8.59-.45,12.8-1.06,25.59-1.42,38.39-.06,5.54-2.34,10.4-3.46,15.59A57.51,57.51,0,0,0,433.43,443q-.82,22.91-1.64,45.8c-.11,3.82-.42,7.48-.28,11.26-8.1-1.92-16.33-3.46-24.5-3.32.28-15.58,1.25-31.08,1.76-46.63.17-7.83.94-15.71-.42-23.52-.57-5.6-2.93-11-2.29-16.69.57-12.83,1.29-25.65,1.65-38.5-7-.94-14-1.46-21-2.51a82.69,82.69,0,0,0-.38,10.79,417.44,417.44,0,0,0,2.54,47.69,381.09,381.09,0,0,1,2.25,55.5c-.19,4.94-.36,9.9-.6,14.84-1.47.28-2.93.59-4.39,1,.53-15.27,1.39-30.57.46-46-.79-17.17-3.14-34.25-3.78-51.43a406.19,406.19,0,0,1,.11-45.63c.63-20.43,1.52-40.83,2.34-61.23.6-9,.73-18.1,1.53-27.08,1.81-.49,3.38.68,4.12,2.74,7.07.58,14.15,1.15,21.24,1.4.72-10.89,1-21.84,1.73-32.73.17-3.42,2.06-6,3.75-8.45,1.3-1.7,1.29-4.19,1.61-6.38,1.36-12.83,3.87-25.48,8.5-37,4.87-13.08,12.91-23.88,21.53-33.43C454.29,147.7,459.26,141.88,464.52,136.48ZM389.81,285.6c-.88,22.71-2,45.41-2.74,68.15,7.12.76,14.26,1.69,21.38,1.94,1.05-22.92,2.17-45.86,3-68.76-7.22-.56-14.46-1.44-21.66-1.37Z" transform="translate(-4.75 -110.39)"/></g><g id="图层_2" data-name="图层 2"><path class="cls-6" d="M306.38,802.49A263,263,0,0,1,271,783.66a273.16,273.16,0,0,1-32.19-23.83,336.66,336.66,0,0,1-28.77-27.89c-4.53-4.9-8.88-10-13.16-15.11s-7.81-10.94-11.91-16l0,0,0,0a294.69,294.69,0,0,1-18.45-31.82c-5.49-11-10.35-22.22-14.8-33.66a284.39,284.39,0,0,1-16-71.66,270.83,270.83,0,0,1,3.45-73.3,337.74,337.74,0,0,1,8.8-35.68A325.72,325.72,0,0,1,160.39,420a265.21,265.21,0,0,1,16.87-32.65,231.83,231.83,0,0,1,21.53-29.78l2.89-3.41a9.81,9.81,0,0,0,.79-2,5.58,5.58,0,0,1,.54-1.18,3.65,3.65,0,0,1,.45-.57l.39-.42c2.09-2.23,4.15-4.48,6.27-6.68,4.25-4.41,8.56-8.75,13-13a355.73,355.73,0,0,1,27.8-24,305.06,305.06,0,0,1,30.29-20.72c5.25-3.13,10.56-6.17,16-9,2.72-1.41,5.43-2.83,8.2-4.12l4.13-2a5.51,5.51,0,0,1,2.4-.67,7.53,7.53,0,0,0,2.14-.18,18.69,18.69,0,0,0,2-.9l2.07-1c1.38-.67,2.79-1.27,4.18-1.91,2.81-1.22,5.65-2.38,8.51-3.46,5.73-2.17,11.57-4,17.45-5.73,11.79-3.33,23.74-6,35.69-8.5l.3,1.45c-12,2.42-23.94,4.83-35.67,8.16-5.86,1.66-11.67,3.52-17.37,5.66-2.85,1.08-5.68,2.22-8.47,3.43-1.38.63-2.79,1.22-4.16,1.88l-2,1a19.45,19.45,0,0,1-2.18,1,8.55,8.55,0,0,1-2.4.21,4.39,4.39,0,0,0-2,.56l-4.12,2c-2.77,1.29-5.48,2.7-8.18,4.09-5.42,2.8-10.73,5.81-16,8.93a305.59,305.59,0,0,0-30.07,20.79,353.55,353.55,0,0,0-27.58,24c-4.4,4.22-8.68,8.57-12.89,13-2.1,2.21-4.15,4.48-6.24,6.71l-.38.42a2,2,0,0,0-.26.34,4.1,4.1,0,0,0-.4.89A10.61,10.61,0,0,1,203,355a5.27,5.27,0,0,1-.43.55l-.37.43-.73.87L200,358.62a229.72,229.72,0,0,0-21.22,29.65,264.38,264.38,0,0,0-16.59,32.51,321,321,0,0,0-12.27,34.39,334.53,334.53,0,0,0-8.62,35.48,268.3,268.3,0,0,0-3.13,72.68,265.24,265.24,0,0,0,5.79,36,304.61,304.61,0,0,0,10.23,35c4.4,11.33,9.23,22.55,14.66,33.43a293,293,0,0,0,18.25,31.57l-.06-.09c4.24,5.29,7.62,11,11.84,16.06s8.52,10.18,13,15.08a335,335,0,0,0,28.43,27.84A272.32,272.32,0,0,0,307,801.13Z" transform="translate(-4.75 -110.39)"/><path class="cls-7" d="M567.65,445.92" transform="translate(-4.75 -110.39)"/><path class="cls-7" d="M521.81,415.28l1,.48" transform="translate(-4.75 -110.39)"/><path class="cls-7" d="M482.49,400.59l1.09.29" transform="translate(-4.75 -110.39)"/><path class="cls-7" d="M454.4,395.21" transform="translate(-4.75 -110.39)"/><path class="cls-6" d="M298.92,817.13a383.79,383.79,0,0,1-33.76-18.38,323.4,323.4,0,0,1-31.51-22,303.18,303.18,0,0,1-28.56-25.77c-2.27-2.26-4.44-4.64-6.63-7-1.11-1.15-2.17-2.4-3.19-3.63s-2-2.49-3-3.74c-4-5-7.87-10.09-12-14.91l0,0,0,0c-2.07-3.09-4.33-6.09-6.45-9.22a58.85,58.85,0,0,1-5.66-9.94l.22.33-3-3-.08-.09-.06-.1a297.05,297.05,0,0,1-24.64-48.25,287,287,0,0,1-15.28-52,302.07,302.07,0,0,1-5.4-53.91v-6.78c0-1.13,0-2.26,0-3.39l.13-3.38c.22-4.52.27-9,.72-13.54s.65-9,1.28-13.49,1-9,1.76-13.44c1.37-8.93,3.22-17.79,5.44-26.56s5-17.39,8-25.89a313.85,313.85,0,0,1,22.94-49c4.48-7.85,9.37-15.45,14.55-22.85s10.67-14.58,16.53-21.45,11.95-13.55,18.37-19.89,13.14-12.39,20.06-18.19l0,0a5.61,5.61,0,0,1,2.24-1.14,4.71,4.71,0,0,0,1.77-.85v0h0a281.47,281.47,0,0,1,33.52-24.67,296.89,296.89,0,0,1,36.71-19.58,301.47,301.47,0,0,1,39.1-14.25,329.84,329.84,0,0,1,40.63-9l.21,1.36a308.08,308.08,0,0,0-40.53,8.7,300.77,300.77,0,0,0-39,14.14,280.66,280.66,0,0,0-69.88,44.19l0,0a5.61,5.61,0,0,1-2.23,1.15,4.59,4.59,0,0,0-1.76.86l0,0,0,0q-10.32,8.68-19.91,18.18c-6.38,6.34-12.43,13-18.22,19.87s-11.23,14-16.37,21.41-10,15-14.39,22.78a312.73,312.73,0,0,0-22.65,48.85c-3,8.45-5.69,17-7.9,25.74s-4,17.51-5.32,26.39a335.26,335.26,0,0,0-3.72,53.7,299.21,299.21,0,0,0,5.52,53.49,290.94,290.94,0,0,0,15.1,51.61,294.76,294.76,0,0,0,24.36,48l-.14-.19,3,3,.15.14.07.19a58.59,58.59,0,0,0,5.45,9.6c2.09,3.08,4.34,6.08,6.44,9.24l-.07-.1c4.18,4.89,8.05,10,12,15q1.49,1.86,3,3.71c1,1.23,2,2.43,3.12,3.58,2.17,2.33,4.3,4.69,6.56,6.94a302.07,302.07,0,0,0,28.33,25.67A332.37,332.37,0,0,0,266,797.35a377.68,377.68,0,0,0,33.49,18.53Z" transform="translate(-4.75 -110.39)"/><ellipse class="cls-7" cx="537.52" cy="735.77" rx="15.43" ry="16.13"/><ellipse class="cls-7" cx="537.52" cy="735.77" rx="14.11" ry="14.68"/><path class="cls-7" d="M498,859.71" transform="translate(-4.75 -110.39)"/><path class="cls-7" d="M500.57,864.6" transform="translate(-4.75 -110.39)"/><ellipse class="cls-7" cx="577.34" cy="142.34" rx="15.43" ry="16.13"/><ellipse class="cls-7" cx="605.1" cy="158.47" rx="15.43" ry="16.13"/><ellipse class="cls-7" cx="631.72" cy="177.05" rx="15.43" ry="16.13"/><path class="cls-7" d="M490.9,239.8" transform="translate(-4.75 -110.39)"/><ellipse class="cls-7" cx="517.02" cy="119.41" rx="15.43" ry="16.13"/><ellipse class="cls-7" cx="546.89" cy="130.32" rx="15.43" ry="16.13"/><ellipse class="cls-7" cx="577.34" cy="142.34" rx="14.11" ry="14.68"/><ellipse class="cls-7" cx="605.1" cy="158.47" rx="14.11" ry="14.68"/><ellipse class="cls-7" cx="631.72" cy="177.05" rx="14.11" ry="14.68"/><ellipse class="cls-7" cx="517.02" cy="119.41" rx="14.11" ry="14.68"/><ellipse class="cls-7" cx="546.89" cy="130.32" rx="14.11" ry="14.68"/><ellipse class="cls-7" cx="120.2" cy="314.24" rx="15.43" ry="16.13"/><ellipse class="cls-7" cx="132.89" cy="283.9" rx="15.43" ry="16.13"/><ellipse class="cls-8" cx="149.74" cy="255.56" rx="15.43" ry="16.13"/><ellipse class="cls-8" cx="169.85" cy="229.32" rx="15.43" ry="16.13"/><ellipse class="cls-8" cx="297.09" cy="133" rx="15.43" ry="16.13"/><ellipse class="cls-7" cx="327.95" cy="122.9" rx="15.43" ry="16.13"/><ellipse class="cls-7" cx="358.81" cy="114.19" rx="15.43" ry="16.13"/><ellipse class="cls-8" cx="269.04" cy="147.69" rx="14.11" ry="14.68"/><ellipse class="cls-8" cx="297.09" cy="133" rx="14.11" ry="14.68"/><ellipse class="cls-7" cx="327.95" cy="122.9" rx="14.11" ry="14.68"/><ellipse class="cls-7" cx="358.81" cy="114.19" rx="14.11" ry="14.68"/><ellipse class="cls-8" cx="192.25" cy="205" rx="15.43" ry="16.13"/><ellipse class="cls-8" cx="215.99" cy="182.55" rx="15.43" ry="16.13"/><ellipse class="cls-8" cx="241.46" cy="163.82" rx="15.43" ry="16.13"/><ellipse class="cls-8" cx="269.04" cy="147.69" rx="15.43" ry="16.13"/><ellipse class="cls-8" cx="149.74" cy="255.56" rx="14.11" ry="14.68"/><ellipse class="cls-8" cx="169.85" cy="229.32" rx="14.11" ry="14.68"/><ellipse class="cls-8" cx="192.25" cy="205" rx="14.11" ry="14.68"/><ellipse class="cls-8" cx="215.99" cy="182.55" rx="14.11" ry="14.68"/><ellipse class="cls-8" cx="241.46" cy="163.82" rx="14.11" ry="14.68"/><ellipse class="cls-7" cx="102.03" cy="378.3" rx="14.11" ry="14.68"/><ellipse class="cls-7" cx="109.53" cy="346.03" rx="14.11" ry="14.68"/><ellipse class="cls-7" cx="120.2" cy="314.24" rx="14.11" ry="14.68"/><ellipse class="cls-7" cx="132.89" cy="283.9" rx="14.11" ry="14.68"/><ellipse class="cls-7" cx="116.13" cy="538.58" rx="15.43" ry="16.13"/><ellipse class="cls-7" cx="106.85" cy="507.36" rx="15.43" ry="16.13"/><ellipse class="cls-7" cx="100.95" cy="475.1" rx="15.43" ry="16.13"/><ellipse class="cls-7" cx="97.65" cy="442.83" rx="15.43" ry="16.13"/><ellipse class="cls-7" cx="99.19" cy="410.56" rx="15.43" ry="16.13"/><ellipse class="cls-7" cx="102.03" cy="378.3" rx="15.43" ry="16.13"/><ellipse class="cls-7" cx="109.53" cy="346.03" rx="15.43" ry="16.13"/><ellipse class="cls-8" cx="163.53" cy="623.6" rx="14.11" ry="14.68"/><ellipse class="cls-8" cx="144.76" cy="597.37" rx="14.11" ry="14.68"/><ellipse class="cls-7" cx="127.91" cy="569.39" rx="14.11" ry="14.68"/><ellipse class="cls-7" cx="116.13" cy="538.58" rx="14.11" ry="14.68"/><ellipse class="cls-7" cx="106.85" cy="507.36" rx="14.11" ry="14.68"/><ellipse class="cls-7" cx="100.95" cy="475.1" rx="14.11" ry="14.68"/><ellipse class="cls-7" cx="97.65" cy="442.83" rx="14.11" ry="14.68"/><ellipse class="cls-7" cx="99.19" cy="410.56" rx="14.11" ry="14.68"/><ellipse class="cls-8" cx="207.39" cy="671.09" rx="15.43" ry="16.13"/><ellipse class="cls-8" cx="183.44" cy="649.26" rx="15.43" ry="16.13"/><ellipse class="cls-8" cx="163.53" cy="623.6" rx="15.43" ry="16.13"/><ellipse class="cls-8" cx="144.76" cy="597.37" rx="15.43" ry="16.13"/><ellipse class="cls-7" cx="127.91" cy="569.39" rx="15.43" ry="16.13"/><ellipse class="cls-8" cx="232.27" cy="690.62" rx="14.11" ry="14.68"/><ellipse class="cls-8" cx="207.39" cy="671.09" rx="14.11" ry="14.68"/><ellipse class="cls-8" cx="183.44" cy="649.26" rx="14.11" ry="14.68"/><path class="cls-7" d="M336.05,844.46a15,15,0,0,1,.08,1.65c0,8.91-6.91,16.13-15.43,16.13a15.19,15.19,0,0,1-12.37-6.49" transform="translate(-4.75 -110.39)"/><path class="cls-7" d="M327.47,831.6a16.25,16.25,0,0,1,8.58,12.86" transform="translate(-4.75 -110.39)"/><path class="cls-7" d="M308.33,855.75q-.48-.68-.9-1.41" transform="translate(-4.75 -110.39)"/><path class="cls-7" d="M280.68,844.68" transform="translate(-4.75 -110.39)"/><path class="cls-7" d="M291.6,849.41" transform="translate(-4.75 -110.39)"/><path class="cls-7" d="M302.7,822.07" transform="translate(-4.75 -110.39)"/><path class="cls-8" d="M279.26,843a16.58,16.58,0,0,1-3.1-9.69c0-8.91,6.91-16.14,15.44-16.14a14.77,14.77,0,0,1,6.35,1.43" transform="translate(-4.75 -110.39)"/><path class="cls-7" d="M279.44,843.21l-.18-.24" transform="translate(-4.75 -110.39)"/><path class="cls-7" d="M280.68,844.68a14.6,14.6,0,0,1-1.24-1.47" transform="translate(-4.75 -110.39)"/><ellipse class="cls-8" cx="259.08" cy="707.86" rx="15.43" ry="16.13"/><ellipse class="cls-8" cx="232.27" cy="690.62" rx="15.43" ry="16.13"/><path class="cls-7" d="M324.44,838.08" transform="translate(-4.75 -110.39)"/><path class="cls-7" d="M325.69,835.4" transform="translate(-4.75 -110.39)"/><path class="cls-7" d="M309.16,854.49a13.88,13.88,0,0,0,11.54,6.3c7.79,0,14.11-6.58,14.11-14.68a14.74,14.74,0,0,0-7.92-13.18l-.09.42" transform="translate(-4.75 -110.39)"/><path class="cls-7" d="M294.6,818.94c-13.2-3-21.8,13.25-14,23.45" transform="translate(-4.75 -110.39)"/><ellipse class="cls-8" cx="259.08" cy="707.86" rx="14.11" ry="14.68"/><ellipse class="cls-7" cx="261.32" cy="865.52" rx="45.96" ry="47.97"/><ellipse class="cls-7" cx="619.72" cy="855.09" rx="45.96" ry="47.97"/><ellipse class="cls-7" cx="111.76" cy="774.15" rx="45.96" ry="47.97"/><ellipse class="cls-7" cx="390.25" cy="109.22" rx="14.11" ry="14.68"/><ellipse class="cls-7" cx="486.15" cy="113.67" rx="14.11" ry="14.68"/><ellipse class="cls-7" cx="390.25" cy="109.22" rx="15.43" ry="16.13"/><ellipse class="cls-7" cx="455.74" cy="110.68" rx="15.43" ry="16.13"/><ellipse class="cls-7" cx="455.74" cy="110.68" rx="14.11" ry="14.68"/><ellipse class="cls-7" cx="486.15" cy="113.67" rx="15.43" ry="16.13"/><path class="cls-9" d="M429,255.38l-.19-.13-.63,1.08.38.25.63-1.08-.19-.12c-.68-.44-1.31.64-.63,1.08l.19.12c.68.44,1.31-.64.63-1.08l-.38-.25c-.68-.43-1.31.65-.63,1.08l.19.13C429.08,256.89,429.7,255.81,429,255.38Z" transform="translate(-4.75 -110.39)"/><path class="cls-9" d="M383.4,239.48a125.44,125.44,0,0,1,21.66-.95c.8,0,.8-1.21,0-1.25a125.44,125.44,0,0,0-21.66.95c-.78.1-.79,1.35,0,1.25Z" transform="translate(-4.75 -110.39)"/><path class="cls-9" d="M385.22,248.6h-.09l.6.46,0-.1-.16.6c-.12.12.59-.07.75-.1l1-.18,2.14-.38c1.42-.24,2.85-.47,4.29-.65a51,51,0,0,1,8.47-.41c.81,0,.8-1.21,0-1.25a52.66,52.66,0,0,0-9.3.52c-1.49.2-3,.44-4.46.7l-2.3.42a2.73,2.73,0,0,0-1.46.45.62.62,0,0,0-.16.61l0,.1a.63.63,0,0,0,.6.46h.09c.81,0,.81-1.22,0-1.25Z" transform="translate(-4.75 -110.39)"/><path class="cls-7" d="M405.09,394.81a124.9,124.9,0,0,0-16.76,1.86" transform="translate(-4.75 -110.39)"/><path class="cls-8" d="M378.13,398.79c-31.68,4.72-61.6,18.25-86.75,38A210.2,210.2,0,0,0,257,470.94c-10.54,13.2-20.33,26.84-27.67,42.09a199.56,199.56,0,0,0-19.67,94.88,193.07,193.07,0,0,0,28.54,92.78c18.43,29.83,45.23,53.39,75.07,71.39q5.48,3.31,11.09,6.4" transform="translate(-4.75 -110.39)"/><path class="cls-10" d="M418.82,201.6l-.59,0" transform="translate(-4.75 -110.39)"/><path class="cls-10" d="M369.47,879.16q9.61,1.74,19.31,3" transform="translate(-4.75 -110.39)"/><path class="cls-10" d="M309.18,862.91a348.12,348.12,0,0,0,48.64,14" transform="translate(-4.75 -110.39)"/><path class="cls-11" d="M418.23,201.62C283,205,155,293,105,419c-3,8-6,17-9,25-1,3-1,7-2,10a7.58,7.58,0,0,0-2,4c-14,56-14,110-1,166,2,6,4,11,5,17,23,78,72,141,142,187,5,3,10,5,15,9,7,4,13,7,20,10.36" transform="translate(-4.75 -110.39)"/><path class="cls-7" d="M277.63,903.34C302,915,327,922,352.94,928.08" transform="translate(-4.75 -110.39)"/><path class="cls-8" d="M443.93,135.27a405.08,405.08,0,0,0-59.27,3.54q-15,2-29.89,5.07c-4.28.88-8.41,1.56-12.29,3.46-3.72,1.82-8.44,2.34-12.46,3.42a366.85,366.85,0,0,0-103.48,46,380.3,380.3,0,0,0-43.85,32.63q-10.47,9.06-20.2,18.9c-6.31,6.38-13,12.12-19,18.83a401.72,401.72,0,0,0-59,87A415.84,415.84,0,0,0,41.18,553.75,391.34,391.34,0,0,0,56.52,648a410,410,0,0,0,94,165.36,383.46,383.46,0,0,0,73.6,61.2q9.78,6.23,20,11.82" transform="translate(-4.75 -110.39)"/><path class="cls-7" d="M352.94,928.08c0-.07,0-.14,0-.21" transform="translate(-4.75 -110.39)"/><text class="cls-1" transform="translate(726.44 771.48)">经典</text><path class="cls-12" d="M280.24,844.5q9.6-12.37,19.17-24.78m0,0,7.32-9.5q31.93-41.18,63.71-82.51c.81-1.72.7-3.81.92-5.71q6.31-90.91,12.12-181.81c.72-11.83,1.65-23.63,2.11-35.49A117.63,117.63,0,0,1,413,503.44c5.3.45,10.66.88,15.86,2.62.75.32,1.65.45,2.21,1.25a54.28,54.28,0,0,1-.07,5.56c-12.41-4.74-25.4-4-38-3.69-1.09.3-3.28-.46-3,1.61-3.71,68.13-8.38,136.15-12.48,204.22,0,1.07,0,2.15,0,3.23,3.72-4,6.91-8.71,10.39-13s6.63-8.68,10.07-12.87a4.27,4.27,0,0,0,1.17-2.86q3.07-71.65,5.83-143.37c.46-10.36.64-20.75,1.33-31.08a60.14,60.14,0,0,1,21.24,2.66,7.88,7.88,0,0,1,3.09,1.5c-.08,12.85-.8,25.64-1.18,38.47-.61,18.41-1.11,36.87-1.84,55.23-.47,14.11-1.21,28.19-1.37,42.31,2.43-2.34,4.32-5.38,6.49-8.06,25.75-33.21,51.14-66.81,76.88-100.06q35-45.66,70.18-91.1c5.16-6.4,10-13.16,15.41-19.31,6.7-7.78,14.59-14.29,23.59-17.68,4.87-1.81,10.14-3.68,15.43-2.43a6.54,6.54,0,0,1,5.18,5.9c.46,5-.84,9.82-2,14.44-3.36,12.31-9.81,22.79-17.12,31.92-22.93,28.21-45.63,56.65-68.83,84.61-22.49,28.25-45.58,55.84-68.09,84-19.51,23.75-38.7,47.83-58.07,71.71-.89,1-.9,2.63-1,4.09-1.53,40.93-2.73,81.89-4.32,122.82-.45,18.41-1.26,36.78-1.85,55.17-1,33.22-2.48,66.38-3.46,99.61-.11,6.88-.9,13.73-.47,20.63,7.14.35,13.95-2.16,20.92-3.23,6-.6,12.28-.58,18.13,2,5.2,2,9.32,6.67,14,10a27.65,27.65,0,0,0,21.24,5.55c.8-.24,1.89-.08,2.43-1-.24-2.1-.54-4.21-.57-6.27,2.16-2.33,6-3.4,8.4-.82,1.61,2.35,1.79,5.64,2.63,8.45a9.68,9.68,0,0,1,7.86,4.45c3.62,5.42,5.19,12.23,6.74,18.76a133.26,133.26,0,0,1,1.3,53.15,60.32,60.32,0,0,1-8.44,21.49c4.54,7,1.56,18.59-5.24,21a80.17,80.17,0,0,1-19.24,4.13c-14.21.93-28.51.29-42.75.94a269.52,269.52,0,0,0-28.63,3c-12.68,2.25-25.55,4.23-38.51,2.69-5.6-.63-11.34-1.54-16.53-4.63-3.26-1.89-5.23-6.09-5.87-10.21a27.22,27.22,0,0,1,.67-12c1-2.52,3.51-2.63,5.51-3.44.76-8.31,1.41-16.63,2-25a93.25,93.25,0,0,0,.64-10.7,3.23,3.23,0,0,0-3.39-.5,24.26,24.26,0,0,0-.68,5.23c-.43,6-1.1,12-1.46,18a31.35,31.35,0,0,1-1.1,6.87,13.49,13.49,0,0,1-7.59-2.11,6,6,0,0,1-2.11-4.94c.06-8.71,1.53-17.23,1.74-25.92-3.3-.65-6.85-.71-9.8-2.92-1.47-13,1.13-25.71,4-37.87a162.9,162.9,0,0,1,6.24-19.52c.49.9,1,1.79,1.58,2.69,1.17-2.09,1.18-4.69,1.15-7.17.81-15.3,2.5-30.37,3.56-45.59q8.36-97.64,14.88-195.55a73.17,73.17,0,0,0-7,8.4c-8.91,11-17.66,22.14-26.73,33q-34.8,43.23-69.82,86.18c-4.62,5.45-8.84,11.54-14.11,16.09-4,3.5-9.19,2.69-13.9,2.34-4.1-.36-7.58,2.53-10.25,5.87-5.06,6.3-10,12.77-15,19.14-1.84,2.14-3.36,4.8-5.64,6.24-2.65,1.56-6.44-.82-6.86-4.52-.7-2.84,1-5.18,2.4-7q39.66-50.85,79.29-101.75M600.58,447.16q-40.33,52-80.37,104.42c-24,30.81-47.64,62-71.65,92.88q-15.75,20.31-31.34,40.76c-12.78,16.27-25.36,32.76-38.15,49-1.11,1.48-2.65,2.84-2.67,5-.29,4.05-.63,8.08-.85,12.14,5-5.13,9.22-11.26,13.89-16.78q20.47-25.44,41-50.83,18.61-22.65,37-45.53,72.3-89.1,145-177.62c3.36-4,6.81-8.13,9-13.31,1-2.74,1.84-6.2.31-9.07-1.81-3.34-5.56-3.33-8.31-2.55C608.08,437.44,604.38,442.65,600.58,447.16Zm-240.49,312c-20.53,26.75-41.14,53.22-61.61,79.93-9.33,12.09-18.78,24-28.09,36.13-8.51,11.1-17.27,22-25.79,33.08.83.57,1.92,2.23,2.88,1.2,2.5-2.54,4.51-5.71,6.93-8.38,17.93-22.54,36.21-44.65,54.21-67.11,10-12.31,20.08-24.45,30-36.91s20.35-24.64,30-37.55c.51-4.3.77-8.66,1.21-13C366.44,750.65,363.35,755,360.09,759.16Zm27.61-3.58c-4.12,4.8-7.87,10-12,14.83a5.14,5.14,0,0,0-1.55,3c-4.42,64.11-9.09,128.2-14.94,192.08-1.16,15.62-2.92,31.17-3.74,46.86,2.49-2.73,5.11-5.87,8.76-6.06,5.56-.43,11.18.25,16.79.07.18,1.59.45,3.18.75,4.77,4-.2,8-.22,12-.37a11.36,11.36,0,0,1,4.59.56c1.91,2.24,2.74,5.38,3.67,8.29a153.94,153.94,0,0,1,5.24,28.72,165.94,165.94,0,0,1-2.14,46.66c-1.51,6.3-3,12.71-5.93,18.23-1.79,3.54-4,7.19-7.31,8.66a54,54,0,0,1-15,.52,191.05,191.05,0,0,0,1.51-26,6.85,6.85,0,0,0-.4-3,6.73,6.73,0,0,0-3.34-.8c-.93,3.91-.83,8.18-1.24,12.27-.4,7.65-1.48,15.37-1.26,23.14a57.45,57.45,0,0,0,10.3,1.28c5.09.14,10.39.53,15.09-1.92,3.76-2.2,6.21-6.57,8.41-10.72,6.16-12.85,8.65-28,9.24-42.86.67-18.81-1.18-38.14-7-56-1.68-4.74-3.74-9.72-7.45-12.63-4.48-2.57-9.36-.7-14-.79,3.48-86.56,7.11-173.13,10.38-259.66C393.46,747.59,390.83,751.93,387.7,755.58Zm111.56,279.67c1,4.15,2.2,8.23,3.13,12.4a141.85,141.85,0,0,1,3.61,38.8c-.63,7.91-1.61,16.11-5.24,22.79-.79,1.6-2.12,3-3.79,3-6,0-12.08-.68-18.12-1.22-16.71-1.78-33.35-3.59-50-3.12-3.78.32-7.75,0-11.11,2.14-1.64.79-1.15,4.4.66,4.62a34,34,0,0,0,5.87.5c10,.28,20,1.17,30,2,12.48.88,24.93,2.74,37.41,3.27,2.54.07,5.29.67,7.61-.77,3.59-2,5.76-6.25,7.31-10.47a78.05,78.05,0,0,0,3.81-17.8,131.24,131.24,0,0,0-6.15-53.15,5.73,5.73,0,0,0-2.34-3.43A5.43,5.43,0,0,0,499.26,1035.25Z" transform="translate(-4.75 -110.39)"/><path class="cls-13" d="M498.59,250.53a298.24,298.24,0,0,1,170.17,102A288.65,288.65,0,0,1,666,724.79a298,298,0,0,1-35.84,35.48A304.7,304.7,0,0,1,495,825.05l-.28-1.46A295.65,295.65,0,0,0,665,723.89a287.85,287.85,0,0,0,63.65-134.72,288.52,288.52,0,0,0-12.37-148.32,293.82,293.82,0,0,0-125-152,308.84,308.84,0,0,0-44.93-22.28,300.08,300.08,0,0,0-48-14.55Z" transform="translate(-4.75 -110.39)"/><path class="cls-14" d="M499.13,240.92A313.12,313.12,0,0,1,676.35,346.58a301.07,301.07,0,0,1,0,387.19,313.49,313.49,0,0,1-79.49,67.86A319.48,319.48,0,0,1,499.58,840l-.28-1.35a310.29,310.29,0,0,0,176-105.67,303.18,303.18,0,0,0,51.74-90.26A299.34,299.34,0,0,0,726.63,438a304.06,304.06,0,0,0-51.92-90,311,311,0,0,0-79-67.57,320.71,320.71,0,0,0-46.82-23.05,315.6,315.6,0,0,0-50-15.06Z" transform="translate(-4.75 -110.39)"/><circle class="cls-15" cx="568.4" cy="723.4" r="16.15"/><ellipse class="cls-15" cx="568.4" cy="723.4" rx="14.11" ry="14.68"/><ellipse class="cls-15" cx="597.82" cy="708.72" rx="15.43" ry="16.13"/><ellipse class="cls-15" cx="727.77" cy="565.42" rx="15.43" ry="16.13"/><ellipse class="cls-15" cx="650.25" cy="670.32" rx="14.11" ry="14.68"/><ellipse class="cls-15" cx="673.08" cy="646.96" rx="14.11" ry="14.68"/><ellipse class="cls-15" cx="597.82" cy="708.72" rx="14.11" ry="14.68"/><ellipse class="cls-15" cx="712.34" cy="594.88" rx="15.43" ry="16.13"/><ellipse class="cls-15" cx="694.14" cy="621.88" rx="15.43" ry="16.13"/><ellipse class="cls-15" cx="673.08" cy="646.96" rx="15.43" ry="16.13"/><ellipse class="cls-15" cx="650.25" cy="670.32" rx="15.43" ry="16.13"/><ellipse class="cls-15" cx="727.77" cy="565.42" rx="14.11" ry="14.68"/><ellipse class="cls-15" cx="712.34" cy="594.88" rx="14.11" ry="14.68"/><ellipse class="cls-15" cx="694.14" cy="621.88" rx="14.11" ry="14.68"/><ellipse class="cls-15" cx="757.1" cy="435.22" rx="15.43" ry="16.13"/><ellipse class="cls-15" cx="754.96" cy="468.69" rx="15.43" ry="16.13"/><ellipse class="cls-15" cx="749.29" cy="502.15" rx="15.43" ry="16.13"/><ellipse class="cls-15" cx="739.53" cy="534.51" rx="15.43" ry="16.13"/><ellipse class="cls-15" cx="623.87" cy="689.86" rx="15.43" ry="16.13"/><ellipse class="cls-15" cx="755.77" cy="401.75" rx="14.11" ry="14.68"/><ellipse class="cls-15" cx="751.38" cy="368.29" rx="14.11" ry="14.68"/><ellipse class="cls-15" cx="757.1" cy="435.22" rx="14.11" ry="14.68"/><ellipse class="cls-15" cx="754.96" cy="468.69" rx="14.11" ry="14.68"/><ellipse class="cls-15" cx="749.29" cy="502.15" rx="14.11" ry="14.68"/><ellipse class="cls-15" cx="739.53" cy="534.51" rx="14.11" ry="14.68"/><ellipse class="cls-15" cx="623.87" cy="689.86" rx="14.11" ry="14.68"/><ellipse class="cls-15" cx="679.78" cy="222.43" rx="15.43" ry="16.13"/><ellipse class="cls-15" cx="699.12" cy="246.17" rx="15.43" ry="16.13"/><ellipse class="cls-15" cx="716.24" cy="274.32" rx="15.43" ry="16.13"/><ellipse class="cls-15" cx="731.68" cy="303.76" rx="15.43" ry="16.13"/><ellipse class="cls-15" cx="742.99" cy="336.02" rx="15.43" ry="16.13"/><ellipse class="cls-15" cx="751.38" cy="368.29" rx="15.43" ry="16.13"/><ellipse class="cls-15" cx="755.77" cy="401.75" rx="15.43" ry="16.13"/><ellipse class="cls-15" cx="716.24" cy="274.32" rx="14.11" ry="14.68"/><ellipse class="cls-15" cx="731.68" cy="303.76" rx="14.11" ry="14.68"/><ellipse class="cls-15" cx="742.99" cy="336.02" rx="14.11" ry="14.68"/><ellipse class="cls-15" cx="656.42" cy="198.88" rx="14.11" ry="14.68"/><ellipse class="cls-15" cx="679.78" cy="222.43" rx="14.11" ry="14.68"/><ellipse class="cls-15" cx="699.12" cy="246.17" rx="14.11" ry="14.68"/><ellipse class="cls-15" cx="656.42" cy="198.88" rx="15.43" ry="16.13"/><ellipse class="cls-15" cx="752.16" cy="766.2" rx="45.96" ry="47.97"/><path class="cls-15" d="M572.64,458.42C538,422,490,400,440.45,395.24" transform="translate(-4.75 -110.39)"/><path class="cls-15" d="M590.89,480.75q-3.27-4.63-6.83-9" transform="translate(-4.75 -110.39)"/><path class="cls-15" d="M430.62,800.62C469,799,505,788,538,765c10-7,19-13,28-21,69-62,83-170,35.3-247" transform="translate(-4.75 -110.39)"/><path class="cls-16" d="M421.62,884.75C460,887,497,881,535,871c29-8,55-20,81-36,15-10,28-19,42-30a482.54,482.54,0,0,0,51-50c1-1,1-3,2-4,19-20,30-45,43-69,2-4,2-9,4-14,7-17,13-33,17-52,0-1,2-3,2-4,1-14,4-28,6-42,6-64-9-126-38-183-1-3-4-5-5-7-8-15-16-30-28-43-1-1-1-3-2-4-18-20-35-39-56-56-30-23-60-41-96-52-3-1-5-3-8-4-33-11-66-19-100.07-19.22" transform="translate(-4.75 -110.39)"/><path class="cls-15" d="M436.51,937.06c41.64,1.33,84.18-6.64,123.66-19.53a378.9,378.9,0,0,0,98.74-48.95A410,410,0,0,0,798.37,698.77a394.32,394.32,0,0,0,30-107.9c5.44-42.59,4.93-85.74-2.94-128A444.32,444.32,0,0,0,809.18,402c-6.42-19-14.15-37.68-24.18-55-20.15-34.88-42.55-68.11-71.15-96.71A400.72,400.72,0,0,0,515.24,143q-14.6-3-29.42-4.85" transform="translate(-4.75 -110.39)"/><path class="cls-17" d="M423.07,954.51A479,479,0,0,0,503,949a460.68,460.68,0,0,0,64-16c49-16,93-39,133-73,1-1,3-1,4-2,36-31,67-64,92-105l9-15c9-16,15-32,23-48,1-2,0-3,1-5,14-33,22-67,26-102a384.66,384.66,0,0,0-9-151c0-1-2-2-2-3-5-23-11-44-22-65-1-2,0-3-1-5-5-10-10-19-16-29-12-23-25-44-44-63-2-3-3-6-5-9-43-50-95-85-154-112-40-18-82-28-126-32-51-6-103-4-151,12-40,8-78,25-114,46l-15,9c-14,9-26,19-39,30C90,265,44,335,21,418,0,494,0,571,21,647c1,3,3,5,4,8,10,36,26,67,44,100l3,3c16,28,36,51,58,73,28,26,56,49,90,67,2,2,4,4,7.48,4.9" transform="translate(-4.75 -110.39)"/><path class="cls-7" d="M362.85,949q9,1.47,18.12,2.57" transform="translate(-4.75 -110.39)"/><path class="cls-7" d="M266.07,921.39a426.69,426.69,0,0,0,66,21.48q9.69,2.29,19.48,4.15" transform="translate(-4.75 -110.39)"/><path class="cls-7" d="M266.07,921.39" transform="translate(-4.75 -110.39)"/><ellipse class="cls-7" cx="507.98" cy="745.03" rx="15.43" ry="16.13"/><ellipse class="cls-7" cx="476.04" cy="750.45" rx="15.43" ry="16.13"/><ellipse class="cls-18" cx="444.44" cy="754.21" rx="15.43" ry="16.13"/><ellipse class="cls-7" cx="476.21" cy="750.45" rx="14.11" ry="14.68"/><ellipse class="cls-7" cx="444.44" cy="754.21" rx="14.11" ry="14.68"/><ellipse class="cls-7" cx="508.32" cy="745.03" rx="14.11" ry="14.68"/></g></svg>