<svg id="Layer_1" data-name="Layer 1" xmlns="http://www.w3.org/2000/svg" viewBox="0 0 463.32 1539.98"><defs><style>.cls-1,.cls-184,.cls-185{fill:#fff;}.cls-2{fill:#db943b;}.cls-3{fill:#f6e3cb;}.cls-4{fill:#e09e4d;}.cls-5{fill:#eec897;}.cls-6{fill:#b87939;}.cls-7{fill:#c88234;}.cls-8{fill:#9d5c26;}.cls-9{fill:#ab7854;}.cls-10{fill:#a96629;}.cls-11{fill:#cda177;}.cls-12{fill:#87451c;}.cls-13{fill:#ac7955;}.cls-14{fill:#c1936d;}.cls-15{fill:#9a613c;}.cls-16{fill:#b2805b;}.cls-17{fill:#b98f74;}.cls-18{fill:#afafaf;}.cls-19{fill:#8d5735;}.cls-20{fill:#c19e89;}.cls-21{fill:#ad8165;}.cls-22{fill:#9b7964;}.cls-23{fill:#8f5b3b;}.cls-24{fill:#905d3d;}.cls-25{fill:#9b7b67;}.cls-26{fill:#fddaab;}.cls-27{fill:#868889;}.cls-28{fill:#f4c487;}.cls-29{fill:#eec18b;}.cls-30{fill:#e4a860;}.cls-31{fill:#c8853b;}.cls-32{fill:#fff4e6;}.cls-33{fill:#fff9f2;}.cls-34{fill:#d4903f;}.cls-35{fill:#eebf83;}.cls-36{fill:#f8e2c6;}.cls-37{fill:#dc9d50;}.cls-38{fill:#a46127;}.cls-39{fill:#edbd81;}.cls-40{fill:#ae6b2f;}.cls-41{fill:#dfa35c;}.cls-42{fill:#c2b594;}.cls-43{fill:#fff6e0;}.cls-44{fill:#a86429;}.cls-45{fill:#b67536;}.cls-46{fill:#bd7a37;}.cls-47{fill:#c88235;}.cls-48{fill:#9e775d;}.cls-49{fill:#98725b;}.cls-50{fill:#98725a;}.cls-51{fill:#ffe2a0;}.cls-52{fill:#fff6df;}.cls-53{fill:#ffe4a3;}.cls-54{fill:#fff8e7;}.cls-55{fill:#fff9eb;}.cls-56{fill:#ffe5a7;}.cls-57{fill:#ffd673;}.cls-58{fill:#ffe199;}.cls-59{fill:#ffe7ad;}.cls-60{fill:#ffe6ab;}.cls-61{fill:#ffe29d;}.cls-62{fill:#ffe39f;}.cls-63{fill:#ffe5a5;}.cls-64{fill:#ffe198;}.cls-65{fill:#ffe095;}.cls-66{fill:#ffc435;}.cls-67{fill:#ffdf93;}.cls-68{fill:#ffde8e;}.cls-69{fill:#ffda7f;}.cls-70{fill:#ffd571;}.cls-71{fill:#ffdc87;}.cls-72{fill:#ffdc88;}.cls-73{fill:#ffca4b;}.cls-74{fill:#ffda80;}.cls-75{fill:#fed672;}.cls-76{fill:#f6c347;}.cls-77{fill:#f6c245;}.cls-78{fill:#ffc436;}.cls-79{fill:#ffe4a5;}.cls-80{fill:#fff9e9;}.cls-81{fill:#ffd87c;}.cls-82{fill:#ffcc51;}.cls-83{fill:#eabf55;}.cls-84{fill:#ffcb4e;}.cls-85{fill:#ffda81;}.cls-86{fill:#ffe5a8;}.cls-87{fill:#ffc63d;}.cls-88{fill:#ffda82;}.cls-89{fill:#ffd46b;}.cls-90{fill:#ffd264;}.cls-91{fill:#ffdc8e;}.cls-92{fill:#fff0cb;}.cls-93{fill:#ffcb4c;}.cls-94{fill:#e6d2a4;}.cls-95{fill:#e5d2a6;}.cls-96{fill:#c38cde;}.cls-97{fill:#efdef6;}.cls-98{fill:#ebd7f5;}.cls-99{fill:#a670c0;}.cls-100{fill:#ddbcee;}.cls-101{fill:#9f68b9;}.cls-102{fill:#c996e2;}.cls-103{fill:#c798df;}.cls-104{fill:#a770c1;}.cls-105{fill:#caa1de;}.cls-106{fill:#bd86d8;}.cls-107{fill:#7e4998;}.cls-108{fill:#935cad;}.cls-109{fill:#9f6bb9;}.cls-110{fill:#6d3986;}.cls-111,.cls-183{fill:#e6b0ff;}.cls-112{fill:#d69bf2;}.cls-113{fill:#c07fdf;}.cls-114{fill:#ab64cd;}.cls-115{fill:#9649bb;}.cls-116{fill:#e4affd;}.cls-117{fill:#7b26a3;}.cls-118{fill:#c1aecb;}.cls-119{fill:#d59bf1;}.cls-120{fill:#c484e2;}.cls-121{fill:#b36ed3;}.cls-122{fill:#9b4ebd;}.cls-123{fill:#b571d5;}.cls-124{fill:#e4affe;}.cls-125{fill:#a156c3;}.cls-126{fill:#8939ae;}.cls-127{fill:#9041b6;}.cls-128{fill:#802ba7;}.cls-129{fill:#7c27a4;}.cls-130{fill:#d59bf0;}.cls-131{fill:#812fa9;}.cls-132{fill:#daa1f5;}.cls-133{fill:#f7e6ff;}.cls-134{fill:#c587e3;}.cls-135{fill:#ca8de7;}.cls-136{fill:#f1d5fe;}.cls-137{fill:#e6b3fd;}.cls-138{fill:#dba1f5;}.cls-139{fill:#e7c3f8;}.cls-140{fill:#d196ed;}.cls-141{fill:#b874d8;}.cls-142{fill:#9749bb;}.cls-143{fill:#dbb4ec;}.cls-144{fill:#e06262;}.cls-145{fill:#cd91ea;}.cls-146{fill:#7923a2;}.cls-147{fill:#d2ace6;}.cls-148{fill:#bd7cdc;}.cls-149{fill:#ad72ca;}.cls-150{fill:#d4b4e4;}.cls-151{fill:#d4b5e4;}.cls-152{fill:#a25cc4;}.cls-153{fill:#dc6857;}.cls-154{fill:#b86565;}.cls-155{fill:#df6361;}.cls-156{fill:#a16667;}.cls-157{fill:#ea9a95;}.cls-158{fill:#ea9797;}.cls-159{fill:#de6260;}.cls-160{fill:#cd5757;}.cls-161{fill:#b54949;}.cls-162{fill:#913531;}.cls-163{fill:#983736;}.cls-164{fill:#69c7ec;}.cls-165{fill:#ae9c9c;}.cls-166{fill:#93d7f1;}.cls-167{fill:#a3def5;}.cls-168{fill:#4fb6df;}.cls-169{fill:#41add7;}.cls-170{fill:#72c8e8;}.cls-171{fill:#65b1cd;}.cls-172{fill:#80c0d8;}.cls-173{fill:#74b7d4;}.cls-174{fill:#83c4dc;}.cls-175{fill:#6baac2;}.cls-176{fill:#80c0d9;}.cls-177{fill:#74b1c9;}.cls-178{fill:#93c8de;}.cls-179{fill:#4f93ad;}.cls-180{fill:#317c99;}.cls-181{font-size:27px;fill:#e6d8b5;}.cls-181,.cls-184,.cls-185,.cls-186{font-family:KingHwa_OldSong;}.cls-182{fill:none;}.cls-183{stroke:#a133c4;stroke-miterlimit:10;stroke-width:2px;}.cls-184,.cls-186{font-size:20.73px;}.cls-185{font-size:23.47px;}.cls-186{fill:#c3fcff;}</style></defs><path class="cls-1" d="M251,184.1c.51-1.55.42-3.45,1.82-4.55l-.16,2.47A92.85,92.85,0,0,0,248.56,193c-.69,2-1.35,4-2,6.07-5.07,14.46-9.86,29-15.23,43.38-2,5.58-4.4,11-6.06,16.74a14.57,14.57,0,0,1,1-5.19c6.94-17.09,12.66-34.63,18.74-52,1.06-3,2-6,3-9S250.12,187.09,251,184.1Z" transform="translate(-50.82 -30.33)"/><path class="cls-1" d="M282.79,909.8c2-1.36,4.17-2.43,6.27-3.59-.55,3.41-4.58,4-6.59,6.32-2.75,3.64-4.44,8-7.42,11.5C277.2,919.05,280.72,914.82,282.79,909.8Z" transform="translate(-50.82 -30.33)"/><path class="cls-2" d="M249,31c5.66-2.27,14.66,1.08,14.79,7.94-2.25,4.19-4.12,8.92-7.94,12-1.54,1.46-2.45,3.43-3.55,5.22L251,53.58c1.75-3.61,3.48-7.47,7.15-9.54l-.53-1.92c.73-.75,1.46-1.49,2.2-2.23a11.87,11.87,0,0,0-11-4.46l-.93,2.4c-.48,1.1-1,2.18-1.52,3.28l-.33.77c-1.13,2.11-1.89,5.11-4.58,5.66a23,23,0,0,0,2.11-7.18A93.83,93.83,0,0,1,249,31Z" transform="translate(-50.82 -30.33)"/><path class="cls-3" d="M248.78,35.43a11.87,11.87,0,0,1,11,4.46c-.74.74-1.47,1.48-2.2,2.23a69.5,69.5,0,0,0-9.72-4.29Z" transform="translate(-50.82 -30.33)"/><path class="cls-4" d="M247.85,37.83a69.5,69.5,0,0,1,9.72,4.29L258.1,44c-3.67,2.07-5.4,5.93-7.15,9.54-1.9,3.43-4.16,6.63-6.25,9.94l-1.31-1.09c-3.49,1.48-7.07,3.42-8.87,6.95-.34-.26-1-.78-1.34-1-2,1.45-3.76,3.27-5.81,4.69,1.71-3.53,4.55-6.59,5.17-10.56.78-2.24,1.3-4.56,2.11-6.78a40.41,40.41,0,0,0,6.47-8l.3-.11c2.69-.55,3.45-3.55,4.58-5.66,1.66,1.73,2.59-2.1.33-.77C246.84,40,247.37,38.93,247.85,37.83Z" transform="translate(-50.82 -30.33)"/><path class="cls-5" d="M246.33,41.11c2.26-1.33,1.33,2.5-.33.77Z" transform="translate(-50.82 -30.33)"/><path class="cls-6" d="M244.7,63.52c2.09-3.31,4.35-6.51,6.25-9.94l1.39,2.6A21.48,21.48,0,0,0,249,64.93a23.05,23.05,0,0,0-4.29,5.55l-.21,0c-1.77,0-4.22,1-5.24-1l-2,3.2a15.63,15.63,0,0,0-4.48,0c-1.52,2.23-1.84,5.19-4,7l-2.38-2.6.12-2-1-.26c.64-.6,1.3-1.2,2-1.78,2-1.42,3.78-3.24,5.81-4.69.33.27,1,.79,1.34,1,1.8-3.53,5.38-5.47,8.87-6.95Z" transform="translate(-50.82 -30.33)"/><path class="cls-7" d="M224.81,67.83a23.63,23.63,0,0,0,7.73-5.37c-.62,4-3.46,7-5.17,10.56-.67.58-1.33,1.18-2,1.78l-.65.62-5.33.6A65.74,65.74,0,0,1,224.81,67.83Z" transform="translate(-50.82 -30.33)"/><path class="cls-8" d="M237.2,72.69l2-3.2c1,2,3.47,1,5.24,1a22.69,22.69,0,0,0-.69,4.77,41.47,41.47,0,0,0-7,2.77l-.07-1.65c-1.17,1.69-2.42,3.43-2.56,5.56q.17,1.41.39,2.82a44.9,44.9,0,0,1-4.51,3.87c.43-2,.85-4,1.35-6A71.58,71.58,0,0,1,237.2,72.69Z" transform="translate(-50.82 -30.33)"/><path class="cls-9" d="M232.72,72.74a15.63,15.63,0,0,1,4.48,0,71.58,71.58,0,0,0-5.78,10l-.93,1.76c-.18-.69-.52-2.06-.69-2.75a247.26,247.26,0,0,0-13.62,22.07l-.55,1a22.62,22.62,0,0,0-2.73-1.28c1.63-2.56,3.14-5.2,4.6-7.86-.76.46-2.27,1.38-3,1.85.81-1.57,1.63-3.13,2.5-4.67.71-1.15,1.42-2.31,2.12-3.47,1.81-2.77,4-5.36,5.2-8.48-.16-.39-.49-1.17-.65-1.57l.2-.76a5.11,5.11,0,0,0,2.48-1.36l2.38,2.6C230.88,77.93,231.2,75,232.72,72.74Z" transform="translate(-50.82 -30.33)"/><path class="cls-9" d="M225.65,95.71c1.58-2.45,2.43-5.48,4.83-7.3-.46,1.25-.95,2.51-1.45,3.75.35.89.71,1.77,1.08,2.66-1.58-.33-3.15,0-3.7,1.7-1.77,3-3.37,6.15-5.07,9.21.17.7.35,1.41.52,2.11a33.62,33.62,0,0,0-4.86,4C219.29,106.19,222.83,101.13,225.65,95.71Z" transform="translate(-50.82 -30.33)"/><path class="cls-10" d="M219.42,76l5.33-.6c-.22.76-.68,2.29-.9,3l-.2.76c.16.4.49,1.18.65,1.57-1.2,3.12-3.39,5.71-5.2,8.48l.05-1.2c0-.4-.13-1.21-.17-1.61l-2.22.36-3.52-.8C215,82.54,217.43,79.4,219.42,76Zm.5,6.41" transform="translate(-50.82 -30.33)"/><path class="cls-11" d="M225.4,74.8l1,.26-.12,2a5.11,5.11,0,0,1-2.48,1.36c.22-.76.68-2.29.9-3Z" transform="translate(-50.82 -30.33)"/><path class="cls-12" d="M236.82,78a41.47,41.47,0,0,1,7-2.77c.76,1.77,1.14,4,0,5.68q-10.46,18.63-21,37.24c-1.88,5-6.91,7.78-8.94,12.71-1.71,3.68-4.08,7.11-5,11.12-.8,4.21-3.22,7.89-5.58,11.39-6.09,1-11.94-2.58-16.77-5.93-2.53-2.26-6.42-4.62-5.88-8.52,2.13-4.67,5.55-8.5,9.18-12,3.26-5.35,7.87-10.31,8.44-16.83,2.1-4.34,5.1-8.18,7.55-12.34,2.42-3.93,4.86-7.86,7.41-11.72l3.52.8,2.39,1.25-.05,1.2c-.7,1.16-1.41,2.32-2.12,3.47L215.8,93c-.48-1.5-1.07-1.55-1.79-.16l-.64,2.18-.15.47.34.41c-.71,3.16-2.05,7.89-6.1,7.63.32.79.64,1.57,1,2.35-1.43,2.57-3,5.27-5.88,6.4l.77,1.83-2.23.21c.56,3-1.44,5.42-2.74,7.89l2.91-1c-2.62,4.56-5.57,8.91-8.23,13.45l-1.74-1.19-2.56.69c2.27,1.68,4.61,3.54,7.53,3.88l.35,0c1,1.06,2,2.11,3.07,3.18l1.79.11a8.76,8.76,0,0,1,1.46-4.25c-.88.91-1.77,1.81-2.67,2.71l-1.4-1.86a3,3,0,0,0-1.67-2.17c4.61-7.28,9-14.69,13.52-22-.26,1.6-.52,3.21-.75,4.82,3.3-3.61,5.22-8.15,7.8-12.24,4.19-7.36,8.65-14.56,12.73-22l.93-1.76c-.5,2-.92,4-1.35,6a44.9,44.9,0,0,0,4.51-3.87q-.22-1.41-.39-2.82l2.91-.35C237,80.42,236.87,79.23,236.82,78ZM225.65,95.71c-2.82,5.42-6.36,10.48-8.65,16.17a33.62,33.62,0,0,1,4.86-4c-.17-.7-.35-1.41-.52-2.11,1.7-3.06,3.3-6.18,5.07-9.21.55-1.69,2.12-2,3.7-1.7-.37-.89-.73-1.77-1.08-2.66.5-1.24,1-2.5,1.45-3.75C228.08,90.23,227.23,93.26,225.65,95.71Zm-16.26,4.18-5.18,8.34,3.27,20.1,3.14-.22c-.69-2.72,1-5.1,1.81-7.56C209.62,122.18,208.74,125.56,207.48,128.33Zm-13.24-2.65a1.42,1.42,0,1,0,2.63,1C197.76,124.86,195.09,124.91,194.24,125.68Z" transform="translate(-50.82 -30.33)"/><path class="cls-12" d="M246.54,199c4.32-1.88,7.53-5.77,12.18-6.93Q245.77,233.66,232.05,275c-4-1.51-7.94-3-11.94-4.46-10.55-3.66-21.33-6.84-32.42-8.35-1.09-2.23-3.65-4.72-1.82-7.24,3.89-7.53,7.72-15.1,11.63-22.63,4.37-.4,8.47-2,12.63-3.24q-3.81,8.19-8,16.19a11.12,11.12,0,0,0-1.24,6.14c3.86-8.77,8.54-17.16,12.76-25.74l1.07-2.79,3.12,1.2c-1,2.11-2.35,4.18-2.47,6.58,2.27-3.35,3.68-7.18,5.39-10.83l4.09-1.57c-2.18,5.16-5.1,10.14-6.61,15.5,4.07-6.82,6.88-14.47,10.26-21.71l4.17-1.64c-2.72,6.36-4.56,13.09-7.85,19.19-2.09,3.68-3.82,7.52-5.59,11.35-2,4.45-5,8.5-6,13.34,3.17-5.42,4.83-11.93,9.2-16.5-.85,6.37-4,12.13-5.1,18.43,3-8.21,5.91-16.51,8.42-24.89,2.18-8.11,5.74-15.75,8.68-23.59l4-1.32c-5.86,17-12.35,33.74-17.26,51,1.87-3.46,3-7.26,4.39-10.91q7.56-21.93,15.36-43.78a6,6,0,0,1,4.16-.79c-6.08,17.41-11.8,34.95-18.74,52a14.57,14.57,0,0,0-1,5.19c1.66-5.71,4.05-11.16,6.06-16.74C236.68,228.07,241.47,213.5,246.54,199Zm-32.93,33.08c-2.35,5.09-4.82,10.12-7.48,15.06a8.69,8.69,0,0,0-1.13,5.31l1.15-1.51c2.49-6.44,6.36-12.24,8.89-18.66l-.2-.41Zm3,3.19c-2.34,6.11-6.88,11.45-7.74,18l1-.45c2.25-6,5.63-11.55,8.15-17.46l-.26-.51Z" transform="translate(-50.82 -30.33)"/><path class="cls-13" d="M234.19,82c.14-2.13,1.39-3.87,2.56-5.56l.07,1.65c.05,1.19.17,2.38.28,3.56Z" transform="translate(-50.82 -30.33)"/><path class="cls-14" d="M219.92,82.43" transform="translate(-50.82 -30.33)"/><path class="cls-15" d="M216.18,103.72A247.26,247.26,0,0,1,229.8,81.65c.17.69.51,2.06.69,2.75-4.08,7.42-8.54,14.62-12.73,22C217.23,105.49,216.7,104.61,216.18,103.72Z" transform="translate(-50.82 -30.33)"/><path class="cls-16" d="M216.76,86.83l2.22-.36c0,.4.13,1.21.17,1.61Z" transform="translate(-50.82 -30.33)"/><path class="cls-17" d="M214,92.87c.72-1.39,1.31-1.34,1.79.16Z" transform="translate(-50.82 -30.33)"/><path class="cls-18" d="M165.59,99.48a36.07,36.07,0,0,1,29.68-5.8c3.7.84,7.09,2.58,10.56,4.07-2.45,4.16-5.45,8-7.55,12.34-.57,6.52-5.18,11.48-8.44,16.83-3.63,3.54-7.05,7.37-9.18,12-.54,3.9,3.35,6.26,5.88,8.52,4.83,3.35,10.68,6.88,16.77,5.93,2.36-3.5,4.78-7.18,5.58-11.39.87-4,3.24-7.44,5-11.12,2-4.93,7.06-7.68,8.94-12.71-.52,1.93.05,3.88.41,5.79a39.08,39.08,0,0,1-9.29,33,36.57,36.57,0,0,1-37.66,10.64c-13.64-4.06-24.1-16.56-26.12-30.59C147.74,122.94,153.86,107.74,165.59,99.48Z" transform="translate(-50.82 -30.33)"/><path class="cls-18" d="M200.26,139.84c.9-.9,1.79-1.8,2.67-2.71a8.76,8.76,0,0,0-1.46,4.25l-1.79-.11c-1-1.07-2.05-2.12-3.07-3.18l2.25-.11Z" transform="translate(-50.82 -30.33)"/><path class="cls-18" d="M182.93,215.61c7.26-1,14.36,1.18,21.07,3.71l-.11.32c-1.12,2.09-2.11,4.25-3.18,6.37s-2.17,4.18-3.21,6.3c-3.91,7.53-7.74,15.1-11.63,22.63-1.83,2.52.73,5,1.82,7.24,11.09,1.51,21.87,4.69,32.42,8.35A38.61,38.61,0,0,1,203,288.07a36.37,36.37,0,0,1-32.95-.2A38.14,38.14,0,0,1,152,267a39.27,39.27,0,0,1,3.75-34.25A37,37,0,0,1,182.93,215.61Z" transform="translate(-50.82 -30.33)"/><path class="cls-18" d="M159.76,349.7c9.17-11.07,25.24-16,38.92-11.26-7,4.4-13.59,10.1-17.22,17.71a29.65,29.65,0,0,0-3,9.72,35.14,35.14,0,0,0,.77,11c4.44,15.65,22.34,25.67,38,20.9-9,13.59-28,19.21-42.93,12.89A38,38,0,0,1,151.89,385,39.17,39.17,0,0,1,159.76,349.7Z" transform="translate(-50.82 -30.33)"/><path class="cls-18" d="M162.92,474.87c10.79-9.75,27.74-12,40.55-5-.18.82-.54,2.47-.73,3.29a16.31,16.31,0,0,1-1.2,5.77c-1.8,3.08-3.39,6.27-5.18,9.35-1.37,2.62-4.68,3.47-5.85,6.24-1.71,3.47-3.88,6.73-5.14,10.41,1.82,7.18,9.48,11.75,16.67,11.31,2.32-.18,5.25-.48,6.15-3,2-4.38,5.26-8.35,5.89-13.25s3.51-9.07,5.77-13.34A39.17,39.17,0,0,1,223.16,512,38.34,38.34,0,0,1,204,538a36.27,36.27,0,0,1-25.28,3.4C166.37,538.65,156,528.94,152,517,146.73,502.45,151.09,485,162.92,474.87Z" transform="translate(-50.82 -30.33)"/><path class="cls-18" d="M157.57,612.63c5.37-17,24-28.8,41.66-24.86-1.88,3.38-3.8,6.72-5.72,10.07-1.19,2-2.39,4.1-3.52,6.2a22.88,22.88,0,0,1-6,8.09c-.27,5.6-4.89,9.56-6.13,14.85a21.17,21.17,0,0,0,4,9.12c2.49,2.29,6.42,1.55,8.54-.89,6.15.49,12.51,1.57,18,4.5,2.3,2.16,5.87,5.28,8.94,2.56,2.4-3.63,2.09-8.29,3.8-12.22,2.12-5.06,4.53-10,7.11-14.84,4.85,15.95-2.48,34.56-16.8,43.06a36.29,36.29,0,0,1-38.89-.79C158.11,648.19,151.8,628.7,157.57,612.63Z" transform="translate(-50.82 -30.33)"/><path class="cls-18" d="M157.36,724.25c5.52-17.41,25.29-29.36,43.17-24.33-4.07,3.63-7.84,7.79-10.16,12.79a34.06,34.06,0,0,0-2.77,10.35c-.28,5-.17,10.09,1.63,14.8a41.79,41.79,0,0,0,4.06,7.86,33.36,33.36,0,0,0,23.51,13.87c1.73.16,3.47.21,5.22.2C212,775,190,779.91,174.4,770.6,158.54,761.87,151.15,741.16,157.36,724.25Z" transform="translate(-50.82 -30.33)"/><path class="cls-18" d="M162,834.09c4.42-13,16.32-23.18,30-24.9a35,35,0,0,1,20.53,3.28c.82.41,1.64.84,2.45,1.3,16.56,9.05,23.4,31.16,16.1,48.32a39.54,39.54,0,0,1-7.22,11.39c-.93-.87-1.87-1.72-2.78-2.58-1.15-1.11-2.27-2.25-3.39-3.36a22.65,22.65,0,0,1-4.35-5.45c-.28-2.38-.5-4.75-.82-7.11-1.19-2.71-2.41-5.77-5.16-7.24a20.38,20.38,0,0,1-5.4-4.37l3.82-.14c-1.14-3.08-3.91-4.74-6.67-6.15a29.41,29.41,0,0,0-4.46,1.64c-.65,1.54.65,2.92,1.13,4.34-.56,1.91-1.91,3.88-1,5.92,2.18,5.14,8.19,7.19,10.49,12.3a43.7,43.7,0,0,0,4.06,5c1.31,1.22,2.72,2.34,4.08,3.53s2.62,2.38,4,3.56a40.82,40.82,0,0,1,3.48,3.36c-2.75,1.62-5.16,4-8.31,4.81a11.23,11.23,0,0,0-4.9,2.86,37.08,37.08,0,0,0-4.34.43,14.3,14.3,0,0,0,2.91-5.34c-3.09,1.43-5.27,4.09-7.78,6.29l-1.87-.77c2.54-3.06,5.25-6.12,6.59-9.94-4.76,2.28-8.08,6.49-11.86,10a37.83,37.83,0,0,1-22.86-13.44A39.23,39.23,0,0,1,162,834.09Z" transform="translate(-50.82 -30.33)"/><path class="cls-18" d="M181.2,977.3A36.07,36.07,0,0,1,211.37,981c-1.88,1.88-3.68,3.84-5.46,5.83a70.24,70.24,0,0,0-8.84,11,32.53,32.53,0,0,0-5.73,17.08c0,5.82,1.53,11.83,5.41,16.31,5.4,6.5,14.18,9.38,22.46,8.74-11.21,13.17-32.25,15.94-46.56,6.26-15.36-9.58-21.63-30.62-14.59-47.19A37.68,37.68,0,0,1,181.2,977.3Z" transform="translate(-50.82 -30.33)"/><path class="cls-18" d="M206.56,1017.54l1.39-1.46c1.63.9,3.25,1.81,4.87,2.76-.55,1.35-1.1,2.74-1.64,4.13.9-1.35,1.79-2.72,2.7-4a5.41,5.41,0,0,1,1.76,3.55l2.14-1.45c1.27,1.42.39,2.91-.33,4.29,1.06,1.64,2.25,4.37-.35,5.31-3.39.31-5.62-3-8.48-4.27-2.33-1.71-6.18-2.07-6.91-5.32.43-1.91,2.53-2,4-2.74Z" transform="translate(-50.82 -30.33)"/><path class="cls-18" d="M167,1119a36.32,36.32,0,0,1,54.23-1.27c-4.33-.56-9,.21-12.45,3-4.84,3.72-9.83,7.64-12.87,13a42.13,42.13,0,0,0-3.93,11.44,29.25,29.25,0,0,0,0,7.82,39.36,39.36,0,0,0,5.63,10c-.87,2.23-3.65,4.75-1.87,7.21,2.32,2.73,5.67,5,9.33,5.22,2.14-.68,2.79-3.36,4.12-5a43.46,43.46,0,0,0,11,1.29c-10.4,12-29.64,14.2-43.19,6.36a38.18,38.18,0,0,1-18.7-26.13A39.07,39.07,0,0,1,167,1119Z" transform="translate(-50.82 -30.33)"/><path class="cls-18" d="M179.8,1241.76a36.38,36.38,0,0,1,40.52-5.22c-2.72,3.81-4.61,8.36-8.44,11.27a26.92,26.92,0,0,0-6.77,8.19c.53.73,1,1.5,1.52,2.3-.44,2.21-3.09,3.88-2.25,6.33,2.9.7,3.51-3.78,5.79-5-1.3,3.34-3.23,6.74-6.72,8.17,0,1.25-.5,2.6,0,3.84,2.18,2.29,5.14,3.63,8,4.79,3.75,1.22,7.58,2.27,11.23,3.8,5.07,2,9.85,4.83,15.25,5.91a39.78,39.78,0,0,1-13.4,16.48A36,36,0,0,1,195,1308a37.52,37.52,0,0,1-25.14-21.92C163.34,1271.15,167.43,1252.39,179.8,1241.76Z" transform="translate(-50.82 -30.33)"/><path class="cls-18" d="M216.83,1244.33c1.54-2.46,3.12-4.89,4.71-7.3,2.07,1.44,4.16,2.89,6.26,4.33-1,1.76-2,3.54-3,5.33a25,25,0,0,1,3.39,2.34c.68,6.27-2.24,12.39-5.86,17.35-2.44,3.14-6.58,6.73-10.65,4-.87-.52-1.72-1.07-2.57-1.58,1.29-2.35,2.43-5,4.84-6.36a56.67,56.67,0,0,1-3,5.76c1.78,1.06,4.09,2.29,6,.74a26.17,26.17,0,0,0,9.89-19.38C223.47,1247.75,220.73,1244.87,216.83,1244.33Z" transform="translate(-50.82 -30.33)"/><path class="cls-18" d="M220.76,1270.6c2.72-.65,5.07,1.26,7.44,2.27,4,2.22,8.19,4.12,11.92,6.76-.09.37-.25,1.11-.34,1.49C233.42,1277.65,226.92,1274.39,220.76,1270.6Z" transform="translate(-50.82 -30.33)"/><path class="cls-18" d="M190.29,1354.45c8.67-3.45,18.85-3.68,27.38.31A35.18,35.18,0,0,0,194,1384.37c-1.49,7.4.62,16,6.82,20.78,4.44,3.09,9.77,4.6,14.92,6.07,8.24,1.87,16.49-2,22.43-7.54-5.06,16.42-23.38,27.33-40.27,24.17-16.14-2.41-29.17-16.74-30.9-32.83C164.61,1378.32,174.49,1360.64,190.29,1354.45Z" transform="translate(-50.82 -30.33)"/><path class="cls-18" d="M173.74,1509.7c7.48-10.93,21.09-17.45,34.3-15.71,6.67.92,13.68,3.28,18.55,8-4.33-.68-8.84-1.42-13.15-.18-8.63,1.48-14.69,10-14.8,18.47.18,4.13,2.8,7.91,1.91,12.15a5.49,5.49,0,0,0,3.06,6.29c4,1.85,7.88,3.88,12,5.47,3.55,1.12,6.82-.7,9.42-3,4.35,2.23,9.39,3.42,14.07,1.38-2.89,14.52-16.58,25.81-31.13,27.41-13.2,1.66-26.78-4.87-34.22-15.78A39.33,39.33,0,0,1,173.74,1509.7Z" transform="translate(-50.82 -30.33)"/><path class="cls-19" d="M214,92.87l1.79.16,1.18-.28c-.87,1.54-1.69,3.1-2.5,4.67.75-.47,2.26-1.39,3-1.85-1.46,2.66-3,5.3-4.6,7.86a22.62,22.62,0,0,1,2.73,1.28l.55-1c.52.89,1,1.77,1.58,2.66-2.58,4.09-4.5,8.63-7.8,12.24.23-1.61.49-3.22.75-4.82-4.54,7.32-8.91,14.73-13.52,22a3,3,0,0,1,1.67,2.17l-2.25.11-.35,0a7.44,7.44,0,0,0-3.23-3.38c2.66-4.54,5.61-8.89,8.23-13.45l-2.91,1c1.3-2.47,3.3-4.91,2.74-7.89l2.23-.21-.77-1.83c2.89-1.13,4.45-3.83,5.88-6.4-.33-.78-.65-1.56-1-2.35,4,.26,5.39-4.47,6.1-7.63-.05-.22-.15-.66-.19-.88Z" transform="translate(-50.82 -30.33)"/><path class="cls-20" d="M213.37,95.05c0,.22.14.66.19.88l-.34-.41Z" transform="translate(-50.82 -30.33)"/><path class="cls-21" d="M209.39,99.89" transform="translate(-50.82 -30.33)"/><path class="cls-22" d="M204.21,108.23" transform="translate(-50.82 -30.33)"/><path class="cls-23" d="M207.48,128.33c1.26-2.77,2.14-6.15,5-7.78-.85,2.46-2.5,4.84-1.81,7.56Z" transform="translate(-50.82 -30.33)"/><path class="cls-24" d="M194.24,125.68c.85-.77,3.52-.82,2.63,1A1.42,1.42,0,1,1,194.24,125.68Z" transform="translate(-50.82 -30.33)"/><path class="cls-25" d="M188.73,134.18l2.56-.69,1.74,1.19a7.44,7.44,0,0,1,3.23,3.38C193.34,137.72,191,135.86,188.73,134.18Z" transform="translate(-50.82 -30.33)"/><path class="cls-26" d="M240.4,155.45c7.53-1.1,15.9.59,21.43,6.09-6.42,4.63-13.11,9-18.9,14.38,1,.8,2.07,1.6,3.1,2.44.05.27.16.83.22,1.11-.86,2-1.83,4-2.71,6,.06-2.26.13-4.52.25-6.78a15.43,15.43,0,0,0-3.61,6.58c-1.81,4.2-4,8.24-5.51,12.56-1.87,4.83-4.27,9.44-6.17,14.25-3.38,7.24-6.19,14.89-10.26,21.71,1.51-5.36,4.43-10.34,6.61-15.5,2.2-4.52,3.9-9.26,5.93-13.85,3.76-8.23,6.32-16.92,9.67-25.3-4.26,8.54-9,16.84-12.78,25.63-2.23,5.06-4.75,10-6.91,15.09-1.71,3.65-3.12,7.48-5.39,10.83.12-2.4,1.46-4.47,2.47-6.58,2.78-5.44,5-11.13,7.57-16.67,2.65-6.44,6.39-12.65,7.38-19.62a187,187,0,0,0-10.25,19.14c-2.54,5.35-5.48,10.51-7.82,16l-1.07,2.79c-.11-.52-.34-1.56-.45-2.08l.53-1.05c1.5-2.88,2.87-5.82,4.28-8.75,1.62-3.24,3.15-6.54,4.76-9.79,1.39-2.81,2.71-5.65,4.1-8.46a58.47,58.47,0,0,0,3.9-9.73,115,115,0,0,1-12,5.15c.8-2.1,1.71-4.28,3.71-5.52,3.05-2.06,4.61-5.54,5.5-9-2.87-.64-5.8-1-8.6-1.91-1.31-1.25-.8-3-.41-4.53,3.81-.53,6.87,2.47,10.32,3.6.19-.65.58-1.93.77-2.58-1.15-1.31-3.26-1.07-4.85-1.55l3.46-3.16,3.23.64c1.29-3.14,2.19-6.45,3.63-9.53C236.73,156.06,238.71,155.85,240.4,155.45Zm-4.33,19.76c-.49,1.45,0,1.91,1.35,1.37C237.91,175.14,237.46,174.69,236.07,175.21Zm2.93,1.07" transform="translate(-50.82 -30.33)"/><path class="cls-27" d="M98,166.83a52.17,52.17,0,0,1,29.64-7.6c.63,25.39,1.32,50.78,1.89,76.18-17.45,1.72-32.81,12-44.39,24.65-12,13.42-19.43,30.41-23.29,47.88a204.55,204.55,0,0,0-4,36.1c-.28,8,1,16,.43,23.95C58,421.32,58.25,474.67,58,528c-.38,20.64-.2,41.29-.24,61.94.06,51.7-.1,103.4.37,155.09.27,102,0,204,0,306-.53,87,0,174,.23,261,.64,9.67-1,19.31-.28,29,.79,19.48,3.72,39.2,12,57a88.59,88.59,0,0,0,34.58,39.33,59.2,59.2,0,0,0,24.87,8.52c-.45,25.38-1.26,50.75-1.82,76.12-15.7,1.31-30.6-6.4-42-16.57a95.71,95.71,0,0,1-21.14-27.76A145.65,145.65,0,0,1,56.2,1451c-5-22-4.61-44.61-5.35-67-.26-28.72,1.86-57.38,1.86-86.08q0-79,0-158c-.2-70.66-.55-141.32-.57-212-.83-105.66-.15-211.35-.4-317,0-87.32-.71-174.64-.43-262,.28-17.67-.68-35.33-.42-53,.57-11.31.1-22.66,1.18-33.95,1-19.75,4.63-39.54,12.2-57.86C71.8,189,83.37,175.57,98,166.83Z" transform="translate(-50.82 -30.33)"/><path class="cls-28" d="M242.93,175.92c5.79-5.43,12.48-9.75,18.9-14.38a28.87,28.87,0,0,1,2.77,5c-5.49,3.4-10,8-14.94,12.16a1.49,1.49,0,0,0-.82,2.87l-.75,2.06c-1.07,2.92-2.27,5.79-3.36,8.71-.22.53-.64,1.6-.85,2.13l-1.13.46c1.18-5.11,4.53-10.06,3.5-15.44-.06-.28-.17-.84-.22-1.11C245,177.52,244,176.72,242.93,175.92Z" transform="translate(-50.82 -30.33)"/><path class="cls-29" d="M221.34,166.94c-.49-1.47.73-2.51,1.62-3.44a45.91,45.91,0,0,1,5.67,2.8l-3.46,3.16C223.87,168.74,221.41,168.91,221.34,166.94Z" transform="translate(-50.82 -30.33)"/><path class="cls-30" d="M249.66,178.68c4.9-4.14,9.45-8.76,14.94-12.16,0,.77,0,2.3.06,3.06a76.55,76.55,0,0,0-12,12.44l.16-2.47c-1.4,1.1-1.31,3-1.82,4.55l-2.88-.49.75-2.06C249,180.83,249.45,179.4,249.66,178.68Z" transform="translate(-50.82 -30.33)"/><path class="cls-31" d="M252.63,182a76.55,76.55,0,0,1,12-12.44c.68,5-1.69,9.7-3.23,14.34-.13-.48-.38-1.43-.5-1.91a55.46,55.46,0,0,1-12.37,11A92.85,92.85,0,0,1,252.63,182Z" transform="translate(-50.82 -30.33)"/><path class="cls-32" d="M236.07,175.21c1.39-.52,1.84-.07,1.35,1.37C236,177.12,235.58,176.66,236.07,175.21Z" transform="translate(-50.82 -30.33)"/><path class="cls-33" d="M239,176.28" transform="translate(-50.82 -30.33)"/><path class="cls-34" d="M227.67,204.73c3.76-8.79,8.52-17.09,12.78-25.63-3.35,8.38-5.91,17.07-9.67,25.3Z" transform="translate(-50.82 -30.33)"/><path class="cls-34" d="M248.09,183.61l2.88.49c-.85,3-2,5.9-2.95,8.86l-3.29-.64C245.82,189.4,247,186.53,248.09,183.61Z" transform="translate(-50.82 -30.33)"/><path class="cls-34" d="M222.54,206.92a187,187,0,0,1,10.25-19.14c-1,7-4.73,13.18-7.38,19.62Z" transform="translate(-50.82 -30.33)"/><path class="cls-34" d="M221.29,202.38l1.48,1.61c-1.61,3.25-3.14,6.55-4.76,9.79-2.41-1-4.21,1.06-6.11,2.14-2.33,1.53-5.07,2.23-7.54,3.49l-.47.23.11-.32c2.17-4.17,4.41-8.33,6.57-12.52A31.29,31.29,0,0,0,221.29,202.38Z" transform="translate(-50.82 -30.33)"/><path class="cls-35" d="M240.18,185.23a15.43,15.43,0,0,1,3.61-6.58c-.12,2.26-.19,4.52-.25,6.78-1.37,3.59-2.53,7.35-5,10.38C239,192.27,241.32,188.87,240.18,185.23Z" transform="translate(-50.82 -30.33)"/><path class="cls-36" d="M248.84,181.55a1.49,1.49,0,0,1,.82-2.87C249.45,179.4,249,180.83,248.84,181.55Z" transform="translate(-50.82 -30.33)"/><path class="cls-37" d="M246.25,179.47c1,5.38-2.32,10.33-3.5,15.44-.46,1-.91,2.06-1.32,3.11l-.57-1.47-1.81-.35c-.48.35-.93.72-1.37,1.11l-3,.48c1.51-4.32,3.7-8.36,5.51-12.56,1.14,3.64-1.15,7-1.64,10.58,2.47-3,3.63-6.79,5-10.38C244.42,183.43,245.39,181.48,246.25,179.47Z" transform="translate(-50.82 -30.33)"/><path class="cls-38" d="M248.56,193a55.46,55.46,0,0,0,12.37-11c.12.48.37,1.43.5,1.91-.71,2.73-1.68,5.39-2.46,8.1l-.25.09c-4.65,1.16-7.86,5-12.18,6.93C247.21,197,247.87,195,248.56,193Z" transform="translate(-50.82 -30.33)"/><path class="cls-39" d="M218.73,191a115,115,0,0,0,12-5.15,58.47,58.47,0,0,1-3.9,9.73c-5.05,0-8.19,5.25-13.25,5.72C214.81,197.58,217.1,194.42,218.73,191Z" transform="translate(-50.82 -30.33)"/><path class="cls-40" d="M244.73,192.32,248,193c-1,3-2,6-3,9a6,6,0,0,0-4.16.79c1-2.76,2-5.51,3-8.27C244.09,193.92,244.51,192.85,244.73,192.32Z" transform="translate(-50.82 -30.33)"/><path class="cls-41" d="M213.62,201.25c5.06-.47,8.2-5.74,13.25-5.72-1.39,2.81-2.71,5.65-4.1,8.46l-1.48-1.61a31.29,31.29,0,0,1-10.72,4.42q1.32-2.78,2.78-5.47Z" transform="translate(-50.82 -30.33)"/><path class="cls-42" d="M241.43,198c.41-1.05.86-2.09,1.32-3.11l1.13-.46c-1,2.76-2,5.51-3,8.27Q233,224.55,225.48,246.5c-1.43,3.65-2.52,7.45-4.39,10.91,4.91-17.26,11.4-34,17.26-51Q239.88,202.21,241.43,198Z" transform="translate(-50.82 -30.33)"/><path class="cls-42" d="M219.23,240.94c1.77-3.83,3.5-7.67,5.59-11.35.22.44.67,1.3.89,1.73-2.51,8.38-5.4,16.68-8.42,24.89,1.1-6.3,4.25-12.06,5.1-18.43-4.37,4.57-6,11.08-9.2,16.5C214.25,249.44,217.21,245.39,219.23,240.94Z" transform="translate(-50.82 -30.33)"/><path class="cls-42" d="M209.67,356.56q2.6-3.8,5.4-7.45l1,.95c-5.26,8.06-11.22,15.65-16.29,23.83l1.9,1c2.94-4.52,6.13-8.91,8.49-13.78a44.8,44.8,0,0,1,6.76-10.19l1,1.27.39.71c1.09,2,2.29,3.94,3.34,6-.3,1-.62,2.05-.94,3.07l3.24,2.88q-1.35,1.77-2.68,3.55l-4.07-2.17c-2.6,4.25-5.22,8.5-7.62,12.87a23.34,23.34,0,0,1,.82,8.57c-.08,1.72-2.29,2.46-3.7,1.83-3.48-1.4-4.52-5.83-8-7.18-3.2-1.24-7.13-1.11-9.35-4.13.27-.9.81-2.69,1.09-3.59a8,8,0,0,0,6-2.06l2.47.07C202.58,367.32,206.08,361.91,209.67,356.56Zm1.55,6.39a132.25,132.25,0,0,0-8.4,12.92l2.07,1.19c2.83-4.66,6.25-9.08,8.22-14.19Zm-2.26,10c-.89,2-3.56,3.95-1.92,6.21,1.74-1,2.61-2.83,3.57-4.48,1.8-3.26,3.91-6.34,5.52-9.7l-1.36-.51C212.2,366.72,211,370.18,209,372.94Zm-14,3.12c-1.36.05-2.71.11-4.07.18.43,4.44,6,3.13,8.89,4.95,3.76,1.55,4.65,7.32,9.28,6.9.17-1.51-.72-2.78-1.3-4.07.42-.89.85-1.77,1.29-2.65l-1.86.34-.91-2.21-2.18.15c-.23-.49-.68-1.46-.9-1.95l-2.24-.45-1.23-1.73c-1.37.2-2.68.12-3-1.51Z" transform="translate(-50.82 -30.33)"/><path class="cls-43" d="M237.68,197.31c.44-.39.89-.76,1.37-1.11-1.68,3.79-3.26,7.62-4.66,11.53-2.94,7.84-6.5,15.48-8.68,23.59-.22-.43-.67-1.29-.89-1.73,3.29-6.1,5.13-12.83,7.85-19.19C234.45,206.08,235.9,201.63,237.68,197.31Z" transform="translate(-50.82 -30.33)"/><path class="cls-43" d="M243.55,305.55a37.68,37.68,0,0,0,3.52-5.17,62.83,62.83,0,0,1,7.14,4.48c-1.89,3.18-4,6.25-5.82,9.45.24.36.72,1.07,1,1.42l.52.72-1,.07c-.61,0-1.22.08-1.82.13a10.46,10.46,0,0,1-3.58,6.19c.35.65,1,2,1.37,2.6l-3.64.22c.81,1.35,1.63,2.68,2.45,4l-3.87-1.11-.28.92c1.08,1.19,2.17,2.38,3.25,3.58-1.93-.31-3.86-.62-5.78-1a37.47,37.47,0,0,1,4.39,4.6c-2-.56-4-1.58-6.1-1.26a23.91,23.91,0,0,1,4.54,4.56c-2-.75-4-1.59-6-2.37.86,2.28,2.91,3.72,4.52,5.44-2.06-.47-4.13-2.72-6.16-2.08-.15,2.14,2.84,3.11,3.95,4.71a26.47,26.47,0,0,0-6.47-2.1c1.17,2.13,3.15,3.58,4.93,5.17a46.07,46.07,0,0,0-6.5-1.71c1.63,1.57,3.8,2.64,4.89,4.73-2-.8-4-1.76-6-2.71.56,2.42,3,3.61,4.5,5.36-2.18-.74-4.32-1.61-6.47-2.45.73,2.35,3.28,3.28,4.68,5.16a46.87,46.87,0,0,1-6-2.51c.11,2.41,3.26,3,4.3,5.06-2-.72-3.9-1.49-5.85-2.24,1.3,1,2.63,2.08,4,3.09-.62,1.18-1.26,2.34-1.88,3.52a5,5,0,0,1-1.71-3.83l-.72-1.38c-1-2-2.25-4-3.34-6,2.46,1,1.22-2.56-.39-.71l-1-1.27-.86-.87-1-.95c-1-.87-2-1.7-2.92-2.59l-.89-1.32c1.85,1,3.71,2.34,6,2-1.45-1.53-3-3-4.5-4.44,1.88.74,3.76,1.49,5.68,2.15-.59-2.18-2.67-3.36-4-5.05,2,.73,3.93,1.54,5.92,2.27a21.11,21.11,0,0,0-4.55-5.11c2.13.76,4.27,1.47,6.46,2.06a31.79,31.79,0,0,0-4.19-4.71c1.63.56,3.26,1.16,4.92,1.66.19-.22.56-.68.75-.91.72-.95,1.42-1.92,2.12-2.88-1.58-1.14-3.23-2.3-4.07-4.13,1.82.78,3.58,1.68,5.34,2.6l.63-1.33c-1.35-1.17-2.68-2.35-4-3.58a33.51,33.51,0,0,1,5.38,1.93c.13-.3.41-.89.54-1.19-1-1.13-2.06-2.26-3.11-3.36a38.27,38.27,0,0,0,5.42,1.21c-.68-1.15-1.37-2.29-2.06-3.43l3.6.53c0-1,0-2-.05-3,1-.63,2.2-1,2.85-2C238.81,312.91,241.52,309.45,243.55,305.55ZM231.2,336.23q-.8,2.46,1.65,1.62Q233.62,335.38,231.2,336.23ZM227.25,338,223,339.29q-.66,2.16,1.44,1.26Q225.12,338.41,223,339.29Zm7.19-.24c-1.32.76-1.34,1.43,0,2C231.49,340.33,231.5,339.65,230.21,339.05Zm-4.08,1.19c-1.34.7-1.38,1.39-.11,2.07C227.34,341.6,227.38,340.91,226.13,340.24Zm-5,1.93c-.46,1.44,0,1.88,1.4,1.34C223,342.07,222.5,341.62,221.11,342.17Zm7.23-.12c-1.33.77-1.34,1.45-.05,2Q230.3,342.9,228.34,342.05Zm-4.12,1.12c-1.34.67-1.38,1.36-.11,2.05C225.44,344.53,225.48,343.85,224.22,343.17Zm-5,1.87,6.89.18c-.46,1.43,0,1.88,1.4,1.36C228,345.15,227.52,344.7,226.12,345.22ZM222,346.36m-3.86.72c-1.34.68-1.36,1.36-.08,2C219.42,348.44,219.45,347.76,218.17,347.08Zm6.12,1c-.35,1.42.16,1.88,1.54,1.39C226.18,348.07,225.66,347.61,224.29,348.11Zm-4.15,1q-.79,2.07,1.35,1.47Q222.29,348.49,220.14,349.09Zm3.19,1.2c-1.35.64-1.39,1.32-.13,2C224.55,351.67,224.59,351,223.33,350.29Zm-2.28,2.9c-.55,1.61,0,2.18,1.66,1.69Q223.51,352.47,221.05,353.19Z" transform="translate(-50.82 -30.33)"/><path class="cls-44" d="M239.05,196.2l1.81.35.57,1.47q-1.55,4.18-3.08,8.39l-4,1.32C235.79,203.82,237.37,200,239.05,196.2Z" transform="translate(-50.82 -30.33)"/><path class="cls-44" d="M234.67,197.79l3-.48c-1.78,4.32-3.23,8.77-5,13.09L228.5,212C230.4,207.23,232.8,202.62,234.67,197.79Z" transform="translate(-50.82 -30.33)"/><path class="cls-44" d="M200.71,226c4.6-.2,8.46-3.18,13-3.48l-.53,1.05c-1,1.82-2.13,3.61-3.07,5.49-4.16,1.27-8.26,2.84-12.63,3.24C198.54,230.19,199.63,228.1,200.71,226Z" transform="translate(-50.82 -30.33)"/><path class="cls-45" d="M227.67,204.73l3.11-.33c-2,4.59-3.73,9.33-5.93,13.85l-4.09,1.57C222.92,214.72,225.44,209.79,227.67,204.73Z" transform="translate(-50.82 -30.33)"/><path class="cls-46" d="M222.54,206.92l2.87.48c-2.58,5.54-4.79,11.23-7.57,16.67l-3.12-1.2C217.06,217.43,220,212.27,222.54,206.92Z" transform="translate(-50.82 -30.33)"/><path class="cls-47" d="M211.9,215.92c1.9-1.08,3.7-3.14,6.11-2.14-1.41,2.93-2.78,5.87-4.28,8.75-4.56.3-8.42,3.28-13,3.48,1.07-2.12,2.06-4.28,3.18-6.37l.47-.23C206.83,218.15,209.57,217.45,211.9,215.92Z" transform="translate(-50.82 -30.33)"/><path class="cls-48" d="M210.13,229.07c.94-1.88,2-3.67,3.07-5.49.11.52.34,1.56.45,2.08-4.22,8.58-8.9,17-12.76,25.74a11.12,11.12,0,0,1,1.24-6.14Q206.33,237.27,210.13,229.07Z" transform="translate(-50.82 -30.33)"/><path class="cls-49" d="M213.61,232.12l1.23-.21.2.41c-2.53,6.42-6.4,12.22-8.89,18.66L205,252.49a8.69,8.69,0,0,1,1.13-5.31C208.79,242.24,211.26,237.21,213.61,232.12Z" transform="translate(-50.82 -30.33)"/><path class="cls-50" d="M216.61,235.31l1.19-.39.26.51c-2.52,5.91-5.9,11.43-8.15,17.46l-1,.45C209.73,246.76,214.27,241.42,216.61,235.31Z" transform="translate(-50.82 -30.33)"/><path class="cls-51" d="M237,285.91a2.06,2.06,0,0,1,3-2.87c3.93,2.89,7,6.77,10.94,9.69.18-2.1-.63-4.49.63-6.36,1.59-1.44,3.65-2.23,5.46-3.36a62.81,62.81,0,0,1,8.55,5.31c-.31,2.32-.11,4.82-1.18,7-2.29,1.73-6.56,1.51-6.22,5.38,4.34,1.73,8.84,3.08,13.05,5.1,1.75.91.7,2.63,0,3.89-5.3-1.34-9.55-5.06-14.4-7.42-.41.75-1.21,2.25-1.61,3,4.19,2.8,8.87,4.77,13,7.61a2.07,2.07,0,0,1-1.81,3.69c-4.51-2.49-7.88-6.65-12.41-9.14-1.72,2.69-3.19,5.52-4.64,8.35-.25-.35-.73-1.06-1-1.42,1.85-3.2,3.93-6.27,5.82-9.45a62.83,62.83,0,0,0-7.14-4.48,37.68,37.68,0,0,1-3.52,5.17c-.55-2.17,1.42-3.82,2.25-5.62-4.5-2.5-9.33-4.38-13.75-7-1.62-1.17-.5-4.06,1.55-3.53,4.64,2.07,8.29,5.85,12.75,8.25,1.79.63,2.33-2,3.39-2.84C245.83,291.35,241,289.24,237,285.91ZM251.75,287c0,1.72-.47,3.77,1,5a38.43,38.43,0,0,1,6.31,4.42,15.89,15.89,0,0,0,5.18-2.31c-.08-1.91.37-3.95-.36-5.76-2.12-1.45-4.23-3.35-6.81-3.79A42,42,0,0,0,251.75,287Zm4.59,11.48c.68-2.45-1.85-3.09-3.41-4C250.2,296.6,254.2,298.84,256.34,298.45Zm-6.43-.58c-1.4,2.88,2.36,4,4.46,4.48C255.29,299.35,252.05,298.55,249.91,297.87Z" transform="translate(-50.82 -30.33)"/><path class="cls-52" d="M251.75,287a42,42,0,0,1,5.35-2.39c2.58.44,4.69,2.34,6.81,3.79.73,1.81.28,3.85.36,5.76a15.89,15.89,0,0,1-5.18,2.31,38.43,38.43,0,0,0-6.31-4.42C251.28,290.74,251.71,288.69,251.75,287Zm5.54-.72c-1.37.6-2.73,1.23-4.06,1.91.32.88.64,1.77,1,2.66a28,28,0,0,1,5.37,3.73l2.8-1.22c.05-1.3.09-2.6.15-3.89C260.83,288.29,259.08,287.24,257.29,286.25Z" transform="translate(-50.82 -30.33)"/><path class="cls-53" d="M257.29,286.25c1.79,1,3.54,2,5.23,3.19-.06,1.29-.1,2.59-.15,3.89l-2.8,1.22a28,28,0,0,0-5.37-3.73c-.33-.89-.65-1.78-1-2.66C254.56,287.48,255.92,286.85,257.29,286.25Z" transform="translate(-50.82 -30.33)"/><path class="cls-53" d="M227.25,338" transform="translate(-50.82 -30.33)"/><path class="cls-54" d="M256.34,298.45c-2.14.39-6.14-1.85-3.41-4C254.49,295.36,257,296,256.34,298.45Z" transform="translate(-50.82 -30.33)"/><path class="cls-55" d="M249.91,297.87c2.14.68,5.38,1.48,4.46,4.48C252.27,301.85,248.51,300.75,249.91,297.87Z" transform="translate(-50.82 -30.33)"/><path class="cls-56" d="M240.6,307.57c.84-.84,1.35-2.74,3-2-2,3.9-4.74,7.36-7.2,11-.65,1-1.89,1.33-2.85,2,0,1,0,2,.05,3L230,321c.69,1.14,1.38,2.28,2.06,3.43a38.27,38.27,0,0,1-5.42-1.21c1,1.1,2.08,2.23,3.11,3.36-.13.3-.41.89-.54,1.19a33.51,33.51,0,0,0-5.38-1.93c1.28,1.23,2.61,2.41,4,3.58l-.63,1.33c-1.76-.92-3.52-1.82-5.34-2.6.84,1.83,2.49,3,4.07,4.13-.7,1-1.4,1.93-2.12,2.88L219.79,333c.27-1.25.54-2.49.82-3.73-1.55-.08-3.1-.17-4.65-.2C225.18,323.22,234.32,316.7,240.6,307.57Z" transform="translate(-50.82 -30.33)"/><path class="cls-57" d="M247,316.65c.6,0,1.21-.1,1.82-.13-5.66,10.29-6,22.31-7.48,33.67-.26-2.35-.59-4.69-.9-7a15.36,15.36,0,0,0-6,5.63c-1.78-1.59-3.76-3-4.93-5.17a26.47,26.47,0,0,1,6.47,2.1c-1.11-1.6-4.1-2.57-3.95-4.71,2-.64,4.1,1.61,6.16,2.08-1.61-1.72-3.66-3.16-4.52-5.44,2,.78,4,1.62,6,2.37a23.91,23.91,0,0,0-4.54-4.56c2.13-.32,4.1.7,6.1,1.26a37.47,37.47,0,0,0-4.39-4.6c1.92.35,3.85.66,5.78,1-1.08-1.2-2.17-2.39-3.25-3.58l.28-.92,3.87,1.11c-.82-1.36-1.64-2.69-2.45-4l3.64-.22c-.34-.65-1-1.95-1.37-2.6A10.46,10.46,0,0,0,247,316.65Z" transform="translate(-50.82 -30.33)"/><path class="cls-58" d="M198.68,338.44c5.72-3.19,11.41-6.46,17.28-9.37,1.55,0,3.1.12,4.65.2-.28,1.24-.55,2.48-.82,3.73l3.93,2.14c-.19.23-.56.69-.75.91-1.66-.5-3.29-1.1-4.92-1.66a31.79,31.79,0,0,1,4.19,4.71c-2.19-.59-4.33-1.3-6.46-2.06a21.11,21.11,0,0,1,4.55,5.11c-2-.73-3.94-1.54-5.92-2.27,1.31,1.69,3.39,2.87,4,5.05-1.92-.66-3.8-1.41-5.68-2.15,1.52,1.45,3,2.91,4.5,4.44-2.24.32-4.1-1-6-2l.89,1.32c-6.84,3-13.19,7-20.3,9.39a19,19,0,0,1-10.39.24C185.09,348.54,191.64,342.84,198.68,338.44Z" transform="translate(-50.82 -30.33)"/><path class="cls-59" d="M231.2,336.23q2.42-.86,1.65,1.62Q230.41,338.69,231.2,336.23Z" transform="translate(-50.82 -30.33)"/><path class="cls-60" d="M223,339.29q2.1-.89,1.44,1.26Q222.36,341.45,223,339.29Z" transform="translate(-50.82 -30.33)"/><path class="cls-61" d="M230.21,339.05c1.29.6,1.28,1.28,0,2C228.87,340.48,228.89,339.81,230.21,339.05Z" transform="translate(-50.82 -30.33)"/><path class="cls-62" d="M226.13,340.24c1.25.67,1.21,1.36-.11,2.07C224.75,341.63,224.79,340.94,226.13,340.24Z" transform="translate(-50.82 -30.33)"/><path class="cls-63" d="M221.11,342.17c1.39-.55,1.86-.1,1.4,1.34C221.12,344.05,220.65,343.61,221.11,342.17Z" transform="translate(-50.82 -30.33)"/><path class="cls-64" d="M228.34,342.05q2,.85-.05,2C227,343.5,227,342.82,228.34,342.05Z" transform="translate(-50.82 -30.33)"/><path class="cls-65" d="M224.22,343.17c1.26.68,1.22,1.36-.11,2.05C222.84,344.53,222.88,343.84,224.22,343.17Z" transform="translate(-50.82 -30.33)"/><path class="cls-65" d="M218.17,347.08c1.28.68,1.25,1.36-.08,2C216.81,348.44,216.83,347.76,218.17,347.08Z" transform="translate(-50.82 -30.33)"/><path class="cls-66" d="M234.5,348.79a15.36,15.36,0,0,1,6-5.63c.31,2.34.64,4.68.9,7-.7,11.24-1.06,23.17-6.84,33.2a31.68,31.68,0,0,1-17.28,14.34c-15.65,4.77-33.55-5.25-38-20.9,2.91-2.88,7.41-2.55,11.18-2.25-.28.9-.82,2.69-1.09,3.59,2.22,3,6.15,2.89,9.35,4.13,3.51,1.35,4.55,5.78,8,7.18,1.41.63,3.62-.11,3.7-1.83a23.34,23.34,0,0,0-.82-8.57c2.4-4.37,5-8.62,7.62-12.87l4.07,2.17q1.34-1.78,2.68-3.55L220.73,362c.32-1,.64-2.05.94-3.07l.72,1.38a5,5,0,0,0,1.71,3.83c.62-1.18,1.26-2.34,1.88-3.52-1.34-1-2.67-2-4-3.09,2,.75,3.88,1.52,5.85,2.24-1-2-4.19-2.65-4.3-5.06a46.87,46.87,0,0,0,6,2.51c-1.4-1.88-3.95-2.81-4.68-5.16,2.15.84,4.29,1.71,6.47,2.45-1.53-1.75-3.94-2.94-4.5-5.36,2,.95,4,1.91,6,2.71-1.09-2.09-3.26-3.16-4.89-4.73A46.07,46.07,0,0,1,234.5,348.79Z" transform="translate(-50.82 -30.33)"/><path class="cls-67" d="M219.23,345" transform="translate(-50.82 -30.33)"/><path class="cls-68" d="M226.12,345.22c1.4-.52,1.87-.07,1.4,1.36C226.12,347.1,225.66,346.65,226.12,345.22Z" transform="translate(-50.82 -30.33)"/><path class="cls-69" d="M222,346.36" transform="translate(-50.82 -30.33)"/><path class="cls-70" d="M191.85,355.91c7.11-2.35,13.46-6.42,20.3-9.39.94.89,1.94,1.72,2.92,2.59q-2.81,3.64-5.4,7.45c-3.95.27-7.14,2.82-10.62,4.39-6.33,3.38-13.32,5.61-20.57,4.92a29.65,29.65,0,0,1,3-9.72A19,19,0,0,0,191.85,355.91Z" transform="translate(-50.82 -30.33)"/><path class="cls-71" d="M224.29,348.11c1.37-.5,1.89,0,1.54,1.39C224.45,350,223.94,349.53,224.29,348.11Z" transform="translate(-50.82 -30.33)"/><path class="cls-71" d="M221.05,353.19q2.46-.72,1.66,1.69C221.06,355.37,220.5,354.8,221.05,353.19Z" transform="translate(-50.82 -30.33)"/><path class="cls-72" d="M220.14,349.09q2.15-.6,1.35,1.47Q219.35,351.16,220.14,349.09Z" transform="translate(-50.82 -30.33)"/><path class="cls-73" d="M216.08,350.06l.86.87a44.8,44.8,0,0,0-6.76,10.19c-2.36,4.87-5.55,9.26-8.49,13.78l-1.9-1C204.86,365.71,210.82,358.12,216.08,350.06Z" transform="translate(-50.82 -30.33)"/><path class="cls-73" d="M199.05,361c3.48-1.57,6.67-4.12,10.62-4.39-3.59,5.35-7.09,10.76-10.78,16l-2.47-.07a8,8,0,0,1-6,2.06c-3.77-.3-8.27-.63-11.18,2.25a35.14,35.14,0,0,1-.77-11C185.73,366.56,192.72,364.33,199.05,361Z" transform="translate(-50.82 -30.33)"/><path class="cls-74" d="M223.33,350.29c1.26.71,1.22,1.38-.13,2C221.94,351.61,222,350.93,223.33,350.29Z" transform="translate(-50.82 -30.33)"/><path class="cls-75" d="M217.94,352.2c1.61-1.85,2.85,1.76.39.71Z" transform="translate(-50.82 -30.33)"/><path class="cls-76" d="M211.22,363l1.89-.08c-2,5.11-5.39,9.53-8.22,14.19l-2.07-1.19A132.25,132.25,0,0,1,211.22,363Z" transform="translate(-50.82 -30.33)"/><path class="cls-77" d="M209,372.94c2-2.76,3.24-6.22,5.81-8.48l1.36.51c-1.61,3.36-3.72,6.44-5.52,9.7-1,1.65-1.83,3.49-3.57,4.48C205.4,376.89,208.07,374.91,209,372.94Z" transform="translate(-50.82 -30.33)"/><path class="cls-78" d="M195,376.06l1.76-2.05c.33,1.63,1.64,1.71,3,1.51l1.23,1.73,2.24.45c.22.49.67,1.46.9,1.95l2.18-.15.91,2.21,1.86-.34c-.44.88-.87,1.76-1.29,2.65.58,1.29,1.47,2.56,1.3,4.07-4.63.42-5.52-5.35-9.28-6.9-2.87-1.82-8.46-.51-8.89-4.95C192.28,376.17,193.63,376.11,195,376.06Z" transform="translate(-50.82 -30.33)"/><path class="cls-78" d="M230.68,455.39c2.13-1.5,4.14-4.34,6.89-4.24.21.68.62,2.06.83,2.75-4.85,9.08-9.29,18.37-13.94,27.56-1.22,2-3.47,3.12-4.61,5.19-2.26,4.27-5.16,8.43-5.77,13.34s-3.88,8.87-5.89,13.25c-.9,2.56-3.83,2.86-6.15,3-7.19.44-14.85-4.13-16.67-11.31,1.26-3.68,3.43-6.94,5.14-10.41,1.17-2.77,4.48-3.62,5.85-6.24,1.79-3.08,3.38-6.27,5.18-9.35,4.45.19,8.11-4.35,12.51-2.75,1.55-3.06,4.18-5.25,6.73-7.43,3.39-2.7,5.31-7.21,9.95-8.09C230.66,458.94,230.17,457.11,230.68,455.39ZM196.9,500l.41,1.61c2.81,1.68,5.86,2.89,8.73,4.44.2-.43.58-1.28.78-1.7C203.5,503,200.55,500.43,196.9,500Z" transform="translate(-50.82 -30.33)"/><path class="cls-79" d="M249.21,382.15c5.57-1,11.68.28,15.48,4.73-.24,1-.48,1.94-.71,2.91l2.15-.6a24.63,24.63,0,0,1,1.84,4.58,22.32,22.32,0,0,0-4.6,5.64c-3.64,7.25-7.28,14.52-10.71,21.88l-.33.09c-1.15.4-2.48.61-3.33,1.57-3.89,4.11-7.1,8.91-11.64,12.38-2.64,2-4.47,4.94-7.21,6.88-7.3,6.1-13.56,13.43-21.48,18.8,1-3.21,2.85-6,4.38-9,6-11.31,11.92-22.71,18-34,1.45-2.5,4.59-3.42,6-6,4-6.76,7.4-13.89,11.12-20.81C249.8,388.46,249.38,385.2,249.21,382.15Zm2.49,11c1.18,1.64,3.12,2.35,4.76,3.43s3.36,2.51,5.51,2.39C259.73,395.46,256.38,391.35,251.7,393.1Z" transform="translate(-50.82 -30.33)"/><path class="cls-80" d="M251.7,393.1c4.68-1.75,8,2.36,10.27,5.82-2.15.12-3.77-1.42-5.51-2.39S252.88,394.74,251.7,393.1Z" transform="translate(-50.82 -30.33)"/><path class="cls-81" d="M249,423c.85-1,2.18-1.17,3.33-1.57.46,4.67-1.67,8.87-4.1,12.67-.13-.49-.4-1.46-.53-1.95-3.73,3.13-7,6.72-10.48,10.14-2.49,2.35-3.8,5.76-6.65,7.74-4.34,3.07-7.35,7.64-11.87,10.48-1.62.87-2.43,2.51-3.13,4.14-4.74,2.16-8.15,6.31-12.83,8.6.19-.82.55-2.47.73-3.29,1.82-2.92,3.28-6.06,5.2-8.9,7.92-5.37,14.18-12.7,21.48-18.8,2.74-1.94,4.57-4.84,7.21-6.88C241.9,431.86,245.11,427.06,249,423Z" transform="translate(-50.82 -30.33)"/><path class="cls-82" d="M237.22,442.24c3.45-3.42,6.75-7,10.48-10.14.13.49.4,1.46.53,1.95-3.19,6.66-6.57,13.22-9.83,19.85-.21-.69-.62-2.07-.83-2.75-2.75-.1-4.76,2.74-6.89,4.24-.51,1.72,0,3.55,0,5.31-4.64.88-6.56,5.39-9.95,8.09-2.55,2.18-5.18,4.37-6.73,7.43-4.4-1.6-8.06,2.94-12.51,2.75a16.31,16.31,0,0,0,1.2-5.77c4.68-2.29,8.09-6.44,12.83-8.6.7-1.63,1.51-3.27,3.13-4.14,4.52-2.84,7.53-7.41,11.87-10.48C233.42,448,234.73,444.59,237.22,442.24Z" transform="translate(-50.82 -30.33)"/><path class="cls-83" d="M196.9,500c3.65.42,6.6,2.94,9.92,4.35-.2.42-.58,1.27-.78,1.7-2.87-1.55-5.92-2.76-8.73-4.44Z" transform="translate(-50.82 -30.33)"/><path class="cls-84" d="M253,505.59c6.19-3.3,16.59-2.28,18.42,5.67l-3.76-1,.87-1.67c-.62,0-1.24,0-1.85,0A7.38,7.38,0,0,1,264,514c-1-.44-2-.91-3.07-1.33,2.15-2-1.89-2.35-2.85-.88-1.6.15-3.2.3-4.8.38l-1.93-1.64c.75-.93,1.51-1.85,2.26-2.76Z" transform="translate(-50.82 -30.33)"/><path class="cls-85" d="M249.2,508.48c.45-1.53,2.54-2.08,3.81-2.89l.61,2.13c-.75.91-1.51,1.83-2.26,2.76l1.93,1.64-3.49,0Q249.47,510.31,249.2,508.48Z" transform="translate(-50.82 -30.33)"/><path class="cls-86" d="M266.69,508.58c.61,0,1.23,0,1.85,0l-.87,1.67c-.63,1.18-1.28,2.36-2,3.5L264,514A7.38,7.38,0,0,0,266.69,508.58Z" transform="translate(-50.82 -30.33)"/><path class="cls-86" d="M242.74,566.53c5.51-5.41,11-10.88,16.86-15.89-1.55,4.76-4.52,8.9-6.34,13.57-8.33,17-16.55,34.08-25.06,51-2.58,4.84-5,9.78-7.11,14.84-1.71,3.93-1.4,8.59-3.8,12.22-3.07,2.72-6.64-.4-8.94-2.56-5.47-2.93-11.83-4-18-4.5-2.12,2.44-6.05,3.18-8.54.89a21.17,21.17,0,0,1-4-9.12c1.24-5.29,5.86-9.25,6.13-14.85a22.88,22.88,0,0,0,6-8.09l2.54.37c-.48,1.48-1,3-1.46,4.46a32.88,32.88,0,0,1,4.19-3.72c-1.27,3.06-5.51,7.1-2.13,10.12l.8-2.45,2.84,2.81c.35-2.6.72-5.19,1.25-7.75a39,39,0,0,1-3.94,3.43c.64-1.42,1.33-2.81,2-4.22,2-.74,4-1.51,6-2.28a21.93,21.93,0,0,0-3.19,8.53c3.12-4.23,5.12-9.13,8.15-13.42,1-.64,2.05-1.24,3.07-1.86-.46,1.48-.83,3-1.19,4.52,2.18-2.64,5.32-5.78,4.21-9.51,1.65-3.52,3.29-7.24,6.41-9.72-.91,2.93-2.26,5.71-3.2,8.64,3.81-4.89,5.45-11.32,10.08-15.56-.92,3.69-3,6.94-4.09,10.59,3.48-5.28,6.2-11,9.55-16.36.15.79.43,2.37.57,3.16a111.77,111.77,0,0,1,6.07-10.56Z" transform="translate(-50.82 -30.33)"/><path class="cls-87" d="M223,550c11-12.29,17.18-27.88,26.22-41.52q.27,1.83.6,3.66l3.49,0c1.6-.08,3.2-.23,4.8-.38l2.85.88c1,.42,2,.89,3.07,1.33l1.67-.19c.71-1.14,1.36-2.32,2-3.5l3.76,1c1,9-6.78,15.35-10.24,22.92-3.75,2.52-6.48,6.82-11.05,7.89.6-3.18,1.87-6.29,4.72-8.07-.89-5.57,4-9.8,5-15a33.88,33.88,0,0,0-.91-5.48,16.82,16.82,0,0,0-5.4,6.06c-7.82,14.66-16.31,29-24.38,43.47-.81,1.57-1.64,3.13-2.42,4.72a8.48,8.48,0,0,1,1-5c8.46-15.74,17.32-31.27,26.31-46.71a36.31,36.31,0,0,0,1.38-3.38c-1.7,1.25-3.36,2.56-5,3.91-.19-1.29-.37-2.57-.57-3.84a9.44,9.44,0,0,0-2,2.07c-7.6,14.15-16.41,27.61-24.79,41.3-4,6.35-7.89,12.77-12.38,18.79-.35-1.72-.7-3.44-1-5.14C213.74,563,217.77,556.05,223,550Z" transform="translate(-50.82 -30.33)"/><path class="cls-88" d="M258.09,511.74c1-1.47,5-1.12,2.85.88Z" transform="translate(-50.82 -30.33)"/><path class="cls-89" d="M247.84,514.81a9.44,9.44,0,0,1,2-2.07c.2,1.27.38,2.55.57,3.84,1.63-1.35,3.29-2.66,5-3.91a36.31,36.31,0,0,1-1.38,3.38c-9,15.44-17.85,31-26.31,46.71a8.48,8.48,0,0,0-1,5c-2.69,5.37-5.43,10.92-9.61,15.31,1.15-3.63,3-7,4.15-10.59-2.55,2.46-4.1,5.67-5.8,8.73-.12-.69-.37-2.08-.49-2.77q-2.51,3.49-5.06,7c1.08-2.87,2.73-5.93.92-8.9-5.91,7.44-9.17,16.81-16.07,23.47l-1.24-2.13c1.92-3.35,3.84-6.69,5.72-10.07,3.51-6,6.79-12.09,10.4-18,.34,1.7.69,3.42,1,5.14,4.49-6,8.39-12.44,12.38-18.79C231.43,542.42,240.24,529,247.84,514.81Zm-22.37,43.38c-1.43.81-2.74,2.83-2.28,4.5C224.63,562.55,227,559.13,225.47,558.19Z" transform="translate(-50.82 -30.33)"/><path class="cls-90" d="M253.51,519.57a16.82,16.82,0,0,1,5.4-6.06,33.88,33.88,0,0,1,.91,5.48c-.95,5.21-5.85,9.44-5,15-2.85,1.78-4.12,4.89-4.72,8.07,4.57-1.07,7.3-5.37,11.05-7.89-.65,2.45-1.35,4.9-1.79,7.4-5.28,2.5-8.22,8.46-14.15,9.8a49.27,49.27,0,0,1,2.67-7.35l3.5-.07-2.74-2.46c-.59.66-1.18,1.34-1.76,2l-.36-2.31c-3.37,7.93-8.09,15.16-12.06,22.79-.17-.65-.52-2-.7-2.6-2,2.79-3.76,5.78-5.61,8.69.43-2.29,2.43-4.8.94-7.06C237.2,548.53,245.69,534.23,253.51,519.57Z" transform="translate(-50.82 -30.33)"/><path class="cls-91" d="M246.56,541.22l.36,2.31c.58-.69,1.17-1.37,1.76-2l2.74,2.46-3.5.07a49.27,49.27,0,0,0-2.67,7.35c5.93-1.34,8.87-7.3,14.15-9.8a80.54,80.54,0,0,1,.2,9.06c-5.89,5-11.35,10.48-16.86,15.89l-4.28-3.27a111.77,111.77,0,0,0-6.07,10.56c-.14-.79-.42-2.37-.57-3.16-3.35,5.36-6.07,11.08-9.55,16.36,1.06-3.65,3.17-6.9,4.09-10.59-4.63,4.24-6.27,10.67-10.08,15.56.94-2.93,2.29-5.71,3.2-8.64-3.12,2.48-4.76,6.2-6.41,9.72-1,1.68-2,3.34-3,5-1,.62-2.06,1.22-3.07,1.86,0-.57-.13-1.72-.17-2.3a61.94,61.94,0,0,0-4.79,7.19c-2,.77-4,1.54-6,2.28.41-1.11.79-2.21,1.14-3.32l-1.92,1.38a32.88,32.88,0,0,0-4.19,3.72c.49-1.49,1-3,1.46-4.46L190,604c1.13-2.1,2.33-4.15,3.52-6.2l1.24,2.13c6.9-6.66,10.16-16,16.07-23.47,1.81,3,.16,6-.92,8.9q2.57-3.46,5.06-7c.12.69.37,2.08.49,2.77,1.7-3.06,3.25-6.27,5.8-8.73-1.11,3.63-3,7-4.15,10.59,4.18-4.39,6.92-9.94,9.61-15.31.78-1.59,1.61-3.15,2.42-4.72,1.49,2.26-.51,4.77-.94,7.06,1.85-2.91,3.59-5.9,5.61-8.69.18.65.53,2,.7,2.6C238.47,556.38,243.19,549.15,246.56,541.22ZM246.09,552" transform="translate(-50.82 -30.33)"/><path class="cls-92" d="M246.09,552" transform="translate(-50.82 -30.33)"/><path class="cls-93" d="M225.47,558.19c1.51.94-.84,4.36-2.28,4.5C222.73,561,224,559,225.47,558.19Z" transform="translate(-50.82 -30.33)"/><path class="cls-94" d="M210.05,598.06c1-1.65,2-3.31,3-5,1.11,3.73-2,6.87-4.21,9.51C209.22,601.05,209.59,599.54,210.05,598.06Z" transform="translate(-50.82 -30.33)"/><path class="cls-94" d="M202,604.81a61.94,61.94,0,0,1,4.79-7.19c0,.58.13,1.73.17,2.3-3,4.29-5,9.19-8.15,13.42A21.93,21.93,0,0,1,202,604.81Z" transform="translate(-50.82 -30.33)"/><path class="cls-95" d="M195.26,605.15l1.92-1.38c-.35,1.11-.73,2.21-1.14,3.32-.63,1.41-1.32,2.8-2,4.22a39,39,0,0,0,3.94-3.43c-.53,2.56-.9,5.15-1.25,7.75l-2.84-2.81-.8,2.45C189.75,612.25,194,608.21,195.26,605.15Z" transform="translate(-50.82 -30.33)"/><path class="cls-96" d="M249.7,648c1.86-3.34,2.56-7.81,5.21-10.39,3.53,1.38,6.87,3.2,10.43,4.53a36.89,36.89,0,0,1-9.83,16.47c-1.56,1.73,1,2.75,2.06,3.66l-2.28.59-1.9.55c-.53,1.55-1.06,3.11-1.57,4.69,1.45.65,3.21.92,4.26,2.22l-3.75.38-1.49.14-1.28,1.93c-2.49-1.11-5-2.25-7.44-3.39.72-1.83,1.45-3.64,2.22-5.44-4.1-1.3-8.27-2.4-12.28-4a2.15,2.15,0,0,1-.06-3.87c1.29-1.16,2.81.38,4.06.83,3.22,1.64,6.08,4,9.58,5.08,1-1.83,1.94-3.63,3-5.42-4.28-2.44-9.13-3.56-13.54-5.66a2.44,2.44,0,0,1,3.28-3.4c3.8,2.16,7.43,4.6,11,7.11C251.35,652.83,250.13,650.2,249.7,648Zm1.37,9.11c-2,.41-1,3.47.85,2.88C253.93,659.61,252.92,656.48,251.07,657.11ZM247.81,662c-.9,2.12,2.12,2.18,3.4,2.3C252.82,662,248.83,658.94,247.81,662Zm-3.32,2.64c0,3.26,3.93,1.68,5.89,2.18C249.31,664.55,246.61,664.7,244.49,664.66Z" transform="translate(-50.82 -30.33)"/><path class="cls-97" d="M251.07,657.11c1.85-.63,2.86,2.5.85,2.88C250.05,660.58,249.07,657.52,251.07,657.11Z" transform="translate(-50.82 -30.33)"/><path class="cls-98" d="M247.81,662c1-3.08,5-.06,3.4,2.3C249.93,664.2,246.91,664.14,247.81,662Z" transform="translate(-50.82 -30.33)"/><path class="cls-99" d="M255.29,662.86l2.28-.59c2.56-.12,5,.92,7.44,1.63,1.1.59,2.94.53,3.29,2a2.2,2.2,0,0,1-3,2.73A112.67,112.67,0,0,1,255.29,662.86Z" transform="translate(-50.82 -30.33)"/><path class="cls-100" d="M244.49,664.66c2.12,0,4.82-.11,5.89,2.18C248.42,666.34,244.5,667.92,244.49,664.66Z" transform="translate(-50.82 -30.33)"/><path class="cls-101" d="M252.33,670.7l3.75-.38c2.84.16,5.53,1.41,8.16,2.43,1.5,1.46.23,4.49-2,4A66.64,66.64,0,0,1,252.33,670.7Z" transform="translate(-50.82 -30.33)"/><path class="cls-102" d="M242.15,671a32.92,32.92,0,0,1,6.23,2.19,13.67,13.67,0,0,1-1.42,3.77,28.93,28.93,0,0,1-6.08-3C241.3,672.94,241.73,672,242.15,671Z" transform="translate(-50.82 -30.33)"/><path class="cls-103" d="M240.16,675.07a54.86,54.86,0,0,1,6.43,2.73,42.75,42.75,0,0,1-3.45,9.14c-.59-3.29-4.74-2.84-7.18-3.82A60.91,60.91,0,0,1,240.16,675.07Z" transform="translate(-50.82 -30.33)"/><path class="cls-104" d="M236,683.12c2.44,1,6.59.53,7.18,3.82a67.06,67.06,0,0,0-4.24,11.81c.73.52,1.45,1.06,2.18,1.6a8.08,8.08,0,0,0-4.17,5.61c-2.37,1.19-5,2-6.86,4q1.26,2.35,2.5,4.74c-1.41.76-2.82,1.52-4.22,2.3-.53-.81-1.05-1.6-1.58-2.38l-4.44-.49-.08-2c-1-.18-1.95-.33-2.92-.48-7.26,6.59-15.44,13.15-25.39,14.76-2.38-.51-4.3-2.11-6.32-3.37a34.06,34.06,0,0,1,2.77-10.35c1.16,2.79,1.39,7,5,7.74,4.7.92,9-2.11,12.86-4.28,6.66-4.74,12.46-10.59,19.08-15.39-1.92-2.54.86-4,2.57-5.47a2.92,2.92,0,0,1,2.83,2.17c.32-.54.64-1.06,1-1.57l-1.51-.27.51-1.39-2.45-.39L232,691l3.61-1.06,1,.62c1-.4,2-.83,2.95-1.23-1.44-1.28-2.9-2.54-4.44-3.68Z" transform="translate(-50.82 -30.33)"/><path class="cls-105" d="M234.51,685.18l.61.44c1.54,1.14,3,2.4,4.44,3.68-1,.4-2,.83-2.95,1.23l-1-.62L232,691A62,62,0,0,1,234.51,685.18Z" transform="translate(-50.82 -30.33)"/><path class="cls-106" d="M200.53,699.92c8.4-5.62,19.73-8.8,29.37-4.61-1.71,1.51-4.49,2.93-2.57,5.47-6.62,4.8-12.42,10.65-19.08,15.39-3.9,2.17-8.16,5.2-12.86,4.28-3.63-.7-3.86-5-5-7.74C192.69,707.71,196.46,703.55,200.53,699.92Z" transform="translate(-50.82 -30.33)"/><path class="cls-107" d="M236.91,706a8.08,8.08,0,0,1,4.17-5.61,33.18,33.18,0,0,1,11.68,18.35c-.37,1.21-.78,2.42-1.18,3.63-7,2.85-12.72,8-17.94,13.3a31.35,31.35,0,0,0-7.72,12.43c-1,3.34,1.09,6.48,2.46,9.38-.48.58-.95,1.17-1.42,1.78-1.65.17-3.29.46-4.94.57s-3.49,0-5.22-.2A83.68,83.68,0,0,1,215,745c0-2.27-1.64-4.74-4.07-4.82a50.29,50.29,0,0,0-8,1.65c-3.33.93-7.05,1.38-9.64,3.92a41.79,41.79,0,0,1-4.06-7.86c7.37-2.15,15.07-3.82,21.49-8.28,6.39-3.48,11.34-9,17.61-12.59,1.4-.78,2.81-1.54,4.22-2.3q-1.25-2.38-2.5-4.74C231.91,707.93,234.54,707.15,236.91,706Z" transform="translate(-50.82 -30.33)"/><path class="cls-108" d="M219.31,711.67c1,.15,1.94.3,2.92.48l.08,2,4.44.49c.53.78,1.05,1.57,1.58,2.38-6.27,3.62-11.22,9.11-17.61,12.59-6.42,4.46-14.12,6.13-21.49,8.28-1.8-4.71-1.91-9.83-1.63-14.8,2,1.26,3.94,2.86,6.32,3.37C203.87,724.82,212.05,718.26,219.31,711.67Z" transform="translate(-50.82 -30.33)"/><path class="cls-109" d="M251.58,722.33c.4-1.21.81-2.42,1.18-3.63,4.81,17.61-7.77,37.45-25.8,40.52.47-.61.94-1.2,1.42-1.78-1.37-2.9-3.48-6-2.46-9.38a31.35,31.35,0,0,1,7.72-12.43C238.86,730.3,244.58,725.18,251.58,722.33Z" transform="translate(-50.82 -30.33)"/><path class="cls-110" d="M202.93,741.8a50.29,50.29,0,0,1,8-1.65c2.43.08,4,2.55,4.07,4.82a83.68,83.68,0,0,0,1.78,14.62,33.36,33.36,0,0,1-23.51-13.87C195.88,743.18,199.6,742.73,202.93,741.8Z" transform="translate(-50.82 -30.33)"/><path class="cls-111" d="M252.06,765.1c2.17-2.71,6.12-3.28,9.33-2.47,3.63,1.92,3.78,6.57,5.13,10,.83,3,3.77,4.85,4.91,7.68.44,4.52,5.27,6.15,8.38,8.64-.19.92-.37,1.86-.54,2.81,1,.29,2,.61,2.93.93,2.26,5.14,3.91,10.5,5.79,15.79-2.6.69-5.24,1.72-6.48,4.31-3.28-8.73-6.9-17.86-14.14-24.11-4-3.39-8.22-6.81-10.32-11.77-1.34-1.77-.77-3.93-.45-5.92A18.74,18.74,0,0,1,252.06,765.1Z" transform="translate(-50.82 -30.33)"/><path class="cls-111" d="M237,785.92c2-2,3.89-4.46,6.84-5-2.42,4.38-6.13,7.79-9.37,11.54-6.58,7-12.66,14.5-19.46,21.32-.81-.46-1.63-.89-2.45-1.3.48-3.06,3.17-4.82,5.15-6.89C224.19,799.12,230.74,792.68,237,785.92Z" transform="translate(-50.82 -30.33)"/><path class="cls-112" d="M281.51,812.79c1.24-2.59,3.88-3.62,6.48-4.31a65.35,65.35,0,0,1,2.29,8,17.18,17.18,0,0,0-6.94,4.25A52.37,52.37,0,0,0,281.51,812.79Z" transform="translate(-50.82 -30.33)"/><path class="cls-113" d="M283.34,820.74a17.18,17.18,0,0,1,6.94-4.25c.37,2.31.75,4.62,1.12,6.94-2,.83-4.54,1.17-5.86,3.1a24.71,24.71,0,0,0-1.68,4.69C283.71,827.72,283.78,824.21,283.34,820.74Z" transform="translate(-50.82 -30.33)"/><path class="cls-114" d="M285.54,826.53c1.32-1.93,3.85-2.27,5.86-3.1.13,1.77.25,3.57.34,5.37a21.12,21.12,0,0,0-8.17,5.33c.07-.73.22-2.18.29-2.91A24.71,24.71,0,0,1,285.54,826.53Z" transform="translate(-50.82 -30.33)"/><path class="cls-115" d="M283.57,834.13a21.12,21.12,0,0,1,8.17-5.33c0,2.86-.05,5.73-.28,8.6-3.89.31-6.58,3.44-9.68,5.44A77.33,77.33,0,0,0,283.57,834.13Z" transform="translate(-50.82 -30.33)"/><path class="cls-116" d="M194.64,838.72a29.41,29.41,0,0,1,4.46-1.64c2.76,1.41,5.53,3.07,6.67,6.15l-3.82.14a20.38,20.38,0,0,0,5.4,4.37c2.75,1.47,4,4.53,5.16,7.24-1.09,3.36-4.32,4.9-7.27,6.3-2.3-5.11-8.31-7.16-10.49-12.3-.89-2,.46-4,1-5.92C195.29,841.64,194,840.26,194.64,838.72Zm8.78,13.55c-1.2.92.21,3.19,1.53,2.25S204.77,851.15,203.42,852.27Z" transform="translate(-50.82 -30.33)"/><path class="cls-117" d="M281.78,842.84c3.1-2,5.79-5.13,9.68-5.44-1.63,13.05-7.38,25.34-15.23,35.79A418.1,418.1,0,0,1,246,907.68a18.68,18.68,0,0,1-6.73-6.66c-.51-2.06,1.2-3.48,2.26-5-1.29-1.23-2.58-2.47-3.84-3.7-.93.87-1.85,1.77-2.8,2.64.72-1,1.45-2,2.19-3-4.11-4-8.48-7.81-12.59-11.83l2.46-3.49c5.55,4.85,10.78,10,16.19,15a49.75,49.75,0,0,1,5.63-1.52c1.21.52,2.91,2.19,4.09.69,2.38-1.9,5.65-5,2.94-8.09,5.59-6.74,12.31-12.71,16.24-20.67A80.36,80.36,0,0,0,281.78,842.84Z" transform="translate(-50.82 -30.33)"/><path class="cls-117" d="M223.77,891.14c-1.43,5.47-6.14,8.94-9.76,12.93-1.08,2.11-4.16-1.07-2.15-2.16C215.93,898.41,219.17,894,223.77,891.14Z" transform="translate(-50.82 -30.33)"/><path class="cls-118" d="M203.42,852.27c1.35-1.12,2.82,1.31,1.53,2.25S202.22,853.19,203.42,852.27Z" transform="translate(-50.82 -30.33)"/><path class="cls-119" d="M212.51,855c.32,2.36.54,4.73.82,7.11-.28,2.25-2.16,3.31-4,4.15a43.7,43.7,0,0,1-4.06-5C208.19,859.88,211.42,858.34,212.51,855Z" transform="translate(-50.82 -30.33)"/><path class="cls-120" d="M213.33,862.09a22.65,22.65,0,0,0,4.35,5.45c-1.44.72-2.88,1.46-4.3,2.23-1.36-1.19-2.77-2.31-4.08-3.53C211.17,865.4,213.05,864.34,213.33,862.09Z" transform="translate(-50.82 -30.33)"/><path class="cls-121" d="M213.38,869.77c1.42-.77,2.86-1.51,4.3-2.23,1.12,1.11,2.24,2.25,3.39,3.36q-1.87,1.2-3.74,2.43C216,872.15,214.7,870.94,213.38,869.77Z" transform="translate(-50.82 -30.33)"/><path class="cls-122" d="M217.33,873.33q1.86-1.23,3.74-2.43c.91.86,1.85,1.71,2.78,2.58,1.08,1,2.09,2.06,3.08,3.15l-2.46,3.49a13.46,13.46,0,0,1-3.66-3.43A40.82,40.82,0,0,0,217.33,873.33Z" transform="translate(-50.82 -30.33)"/><path class="cls-123" d="M191.25,885c3.78-3.52,7.1-7.73,11.86-10-1.34,3.82-4.05,6.88-6.59,9.94-1.13,1.26-2.45,2.34-3.7,3.49a19.88,19.88,0,0,1-2.6-2.42Z" transform="translate(-50.82 -30.33)"/><path class="cls-124" d="M289.36,887.33c.77-4.09,5.23-5.34,7.61-8.27a55.52,55.52,0,0,1,6,2c1.46,1.24,2.79,2.62,4.25,3.88-2.18,8.82-7.27,16.42-13,23.35,3.23,1.1,6.62,1.57,9.9,2.49-2.36.26-5,.18-6.82,2a49.19,49.19,0,0,1-5-2.5,25.37,25.37,0,0,0-4.26,4.28c2.07.72,4.27,1.25,6.1,2.55l-2.6.42c-.14.56-.41,1.69-.55,2.25-2-1.11-3.87-2.36-5.75-3.61-2.44,3-3.21,7.59-7.38,8.71-4.52,5.89-7.2,13-10.06,19.77-1.23-.58-2.47-1.12-3.7-1.64,2.19-3.7,4.7-7.23,6.39-11.19a17.23,17.23,0,0,0-4.41-.31c-1.6,1.17-2.89,2.74-4.61,3.77l-1.5-.34c3.55-6.55,10.29-11.13,12.52-18.47,2.27-2.86,3.94-6.19,6.69-8.64-1.21-.48-2.43-.91-3.67-1.27a6.51,6.51,0,0,0,1.16-3.57c2,1,3.92,2.61,6.24,2.87a8.28,8.28,0,0,0,4.29-4.69c-1.74-.92-3.45-1.86-5.15-2.83l1.36-1.67c-.12-.85-.24-1.69-.35-2.51,2,1.84,4,3.65,6,5.37a19.55,19.55,0,0,0,2.59-3.81C290.84,892.93,288.33,890.46,289.36,887.33Zm.22,18c2.8.45,5-2.9,4.28-5.41C291.91,901.21,290.1,902.94,289.58,905.33Zm-6.79,4.47c-2.07,5-5.59,9.25-7.74,14.23,3-3.5,4.67-7.86,7.42-11.5,2-2.31,6-2.91,6.59-6.32C287,907.37,284.78,908.44,282.79,909.8Z" transform="translate(-50.82 -30.33)"/><path class="cls-125" d="M198.39,885.74c2.51-2.2,4.69-4.86,7.78-6.29a14.3,14.3,0,0,1-2.91,5.34c-2.14,2.44-4.32,4.85-6.35,7.39a7.17,7.17,0,0,1-2.89-2.37C195.44,888.42,196.89,887.05,198.39,885.74Z" transform="translate(-50.82 -30.33)"/><path class="cls-126" d="M214.37,885.39c2.2-1.52,3.81-3.67,5.78-5.43-1.22,1.86-3,3.28-4.18,5.15-2.59,4.84-6.68,8.62-10.45,12.52-1.4.55-2-.8-2.23-1.88C207,892.34,210.22,888.33,214.37,885.39Z" transform="translate(-50.82 -30.33)"/><path class="cls-126" d="M241.23,991.61l2.72.11c1.39.1,2.77.23,4.15.4-6.68,7.51-15.43,12.82-23.94,18-2.6,3.2-5.9,6.69-6.38,10.92l-2.14,1.45a5.41,5.41,0,0,0-1.76-3.55c-.91,1.32-1.8,2.69-2.7,4,.54-1.39,1.09-2.78,1.64-4.13-1.62-1-3.24-1.86-4.87-2.76l-1.39,1.46c-1.51-1.72-3.77-.95-5.74-.93-3.25.29-6.37-.93-9.48-1.66a37.47,37.47,0,0,1,1.41-8.17c3.21,1.28,6.5,2.64,10,2.71,4.46.08,8.67-1.62,13-2.48-.21,1.35-.43,2.69-.65,4.06,1.51-1.81,3.1-3.56,4.75-5.24-.17,1.33-.34,2.68-.52,4a20.25,20.25,0,0,1,4.78-5.2c-.24,1.4-.49,2.82-.75,4.24a57.78,57.78,0,0,0,4.38-6.9c1.6.34,3.2.7,4.79,1.09,2.68-3.49,5.11-7.15,7.75-10.66Z" transform="translate(-50.82 -30.33)"/><path class="cls-127" d="M207.6,884.36a11.23,11.23,0,0,1,4.9-2.86A95.52,95.52,0,0,1,201,895.16a4.53,4.53,0,0,1-1.85-2.19C201.76,889.91,204.71,887.15,207.6,884.36Z" transform="translate(-50.82 -30.33)"/><path class="cls-128" d="M224,883c-1.39,2.47-3.81,4.14-5.28,6.56A65,65,0,0,1,209,901.13a1.49,1.49,0,0,1-2.51-.53c-.76-1.13.77-1.93,1.3-2.7,3-3,5.7-6.64,9.54-8.75C220,887.67,221.76,885.08,224,883Z" transform="translate(-50.82 -30.33)"/><path class="cls-129" d="M228.11,894.16a43.22,43.22,0,0,1,4-4.08c-1.79,2.62-4.64,4.45-5.85,7.46-2,4.54-5.94,7.74-9.12,11.42l-2.91-2c1.95-2.58,4.49-4.62,6.6-7S226.05,896.49,228.11,894.16Z" transform="translate(-50.82 -30.33)"/><path class="cls-130" d="M275.64,891.76c2.31-3,5.55.64,7.41,2.38.11.82.23,1.66.35,2.51L282,898.32C279.61,896.71,274,895.77,275.64,891.76Z" transform="translate(-50.82 -30.33)"/><path class="cls-131" d="M217.46,910.73c3.68-3.92,7.28-8.19,12.3-10.44,0,3-2.71,4.89-4.37,7.1-2.19,2.1-3.8,4.94-6.54,6.38C218.5,913,217.8,911.49,217.46,910.73Z" transform="translate(-50.82 -30.33)"/><path class="cls-132" d="M267.32,901.3c2.16-3.95,6.61.52,9.34,1.67a6.51,6.51,0,0,1-1.16,3.57C272.73,905.39,266.29,905.84,267.32,901.3Z" transform="translate(-50.82 -30.33)"/><path class="cls-133" d="M289.58,905.33c.52-2.39,2.33-4.12,4.28-5.41C294.6,902.43,292.38,905.78,289.58,905.33Z" transform="translate(-50.82 -30.33)"/><path class="cls-134" d="M297.33,912.76c1.82-1.8,4.46-1.72,6.82-2,2.91,0,4.86,4,1.83,5.49C302.7,916.69,300.19,913.92,297.33,912.76Z" transform="translate(-50.82 -30.33)"/><path class="cls-135" d="M291.53,917.51l2.6-.42a16.57,16.57,0,0,1,6.17,2.7,2.81,2.81,0,0,1-2.28,4.27c-2.82-.46-4.72-2.86-7-4.3C291.12,919.2,291.39,918.07,291.53,917.51Z" transform="translate(-50.82 -30.33)"/><path class="cls-136" d="M261.46,935.26c1.72-1,3-2.6,4.61-3.77a17.23,17.23,0,0,1,4.41.31c-1.69,4-4.2,7.49-6.39,11.19,1.23.52,2.47,1.06,3.7,1.64q-1,.45-2,.87c-1.59,0-3.18-.09-4.77-.1a56.28,56.28,0,0,0-6.64-4.87c.58-.73,1.16-1.44,1.72-2.16l.13.08a19.45,19.45,0,0,0,3.58,1.9L261,938c-.21-.48-.62-1.45-.82-1.94C260.48,935.88,261.13,935.46,261.46,935.26Z" transform="translate(-50.82 -30.33)"/><path class="cls-137" d="M256.25,938.45c.87-1.1,1.77-2.16,2.69-3.19l1.22.83c.2.49.61,1.46.82,1.94l-1.15,2.32A19.45,19.45,0,0,1,256.25,938.45Z" transform="translate(-50.82 -30.33)"/><path class="cls-138" d="M214.45,978.05c13.29-12.53,27.4-24.21,40-37.52A56.28,56.28,0,0,1,261,945.4c1.59,0,3.18.05,4.77.1l1.12,1.17-.89.27a14.42,14.42,0,0,0-6,3.17c-3.4-1.15-6.78-2.38-10.27-3.21.49,2.81,3.48,3.93,5.39,5.71a35.85,35.85,0,0,0-8.47-1.92,18.9,18.9,0,0,0,4.25,3.45,48.91,48.91,0,0,1-7.26-.25,50.63,50.63,0,0,0,5,3.56l-.81,1.13c-2.14-1-4.29-2.52-6.76-1.94a16,16,0,0,0,5.7,3.92l-1,.85a58.25,58.25,0,0,0-7-2.23c1.08,2.54,3.94,3.23,6.15,4.46q-.74.36-1.44.75a64.18,64.18,0,0,0-6.81-2.43c.44,3,4,3.28,6.17,4.61l-1,1c-2.39-1-4.78-1.95-7.23-2.73.5,3.06,4.09,3.43,6.34,4.79l-1.1.92a43.78,43.78,0,0,0-7.11-2.89c.33,3.14,4.49,3.44,6.5,5.42-2.85-.84-5.62-2-8.59-2.32,1.49,2.68,4.95,2.85,6.77,5.18a64.47,64.47,0,0,0-7.89-2.38c2.35,3.66,7.13,4.29,10.79,6.08l-.2-3.1c.9.5,1.8,1,2.7,1.53,1.75,1.49,3.79,2.81,4.9,4.91-2.29-.62-4.59-1.21-6.91-1.67-4.44-1.61-8.38-4.44-13-5.44,1.59,2.29,4.14,3.54,6.43,5a37.83,37.83,0,0,0-7.66-2.18c.66,2.49,3.5,2.67,5.47,3.66-.67,1.29-1.35,2.59-2,3.93,0-.79,0-2.36-.05-3.15-4.52,3.18-9.14,6.37-14.29,8.43-2,1-5.73-.17-5.06-2.87,0-3.93,4.24-6.34,3.91-10.21Z" transform="translate(-50.82 -30.33)"/><path class="cls-139" d="M249.73,946.9c3.49.83,6.87,2.06,10.27,3.21l1.11,3-3.13.55,2.26,3.56c-1.39-.24-2.76-.45-4.14-.66-.23.3-.69.91-.93,1.21q2,1.2,3.9,2.45l-.57.75c-1.82-.11-3.62-.31-5.42-.49a31.44,31.44,0,0,1,4.53,3.95c-2.14-.35-4.33-.95-6.49-.4,1.85,1.08,4,1.93,5.15,3.86-2.37-.34-4.77-1.67-7.17-.78a23.75,23.75,0,0,1,5.49,4c-2.36-.37-4.64-1.85-7.08-1.31,1.73,1.46,3.48,2.89,5.14,4.44-2.29-.64-4.55-1.37-6.82-2.05.65,2.41,3.14,3.18,5.07,4.32l-.73.78c-1.87-.42-3.72-.87-5.57-1.29a25.49,25.49,0,0,1,4.78,4,29,29,0,0,1-6.66-2c-.9-.53-1.8-1-2.7-1.53l.2,3.1c-3.66-1.79-8.44-2.42-10.79-6.08a64.47,64.47,0,0,1,7.89,2.38c-1.82-2.33-5.28-2.5-6.77-5.18,3,.34,5.74,1.48,8.59,2.32-2-2-6.17-2.28-6.5-5.42a43.78,43.78,0,0,1,7.11,2.89l1.1-.92c-2.25-1.36-5.84-1.73-6.34-4.79,2.45.78,4.84,1.74,7.23,2.73l1-1c-2.14-1.33-5.73-1.65-6.17-4.61a64.18,64.18,0,0,1,6.81,2.43q.71-.39,1.44-.75c-2.21-1.23-5.07-1.92-6.15-4.46a58.25,58.25,0,0,1,7,2.23l1-.85a16,16,0,0,1-5.7-3.92c2.47-.58,4.62,1,6.76,1.94l.81-1.13a50.63,50.63,0,0,1-5-3.56,48.91,48.91,0,0,0,7.26.25,18.9,18.9,0,0,1-4.25-3.45,35.85,35.85,0,0,1,8.47,1.92C253.21,950.83,250.22,949.71,249.73,946.9Z" transform="translate(-50.82 -30.33)"/><path class="cls-140" d="M260,950.11a14.42,14.42,0,0,1,6-3.17c-1.14,4.85-3.18,9.44-4.77,14.15l-.72-3-1.48,2.09q-1.95-1.25-3.9-2.45c.24-.3.7-.91.93-1.21,1.38.21,2.75.42,4.14.66L258,953.63l3.13-.55Z" transform="translate(-50.82 -30.33)"/><path class="cls-141" d="M259.07,960.19l1.48-2.09.72,3c-1.12,2.8-1.44,6-2.89,8.63-3.28,1.27-5.32,4.16-7.48,6.77-1.93-1.14-4.42-1.91-5.07-4.32,2.27.68,4.53,1.41,6.82,2.05-1.66-1.55-3.41-3-5.14-4.44,2.44-.54,4.72.94,7.08,1.31a23.75,23.75,0,0,0-5.49-4c2.4-.89,4.8.44,7.17.78-1.16-1.93-3.3-2.78-5.15-3.86,2.16-.55,4.35,0,6.49.4a31.44,31.44,0,0,0-4.53-3.95c1.8.18,3.6.38,5.42.49Z" transform="translate(-50.82 -30.33)"/><path class="cls-142" d="M250.9,976.49c2.16-2.61,4.2-5.5,7.48-6.77-1.07,4.32-2.24,8.63-3.37,12.94l-.3.21c-3.94,2.51-6.85,6.29-10.76,8.85l-2.72-.11a29.59,29.59,0,0,0-5.45-3.64c2.16.47,4.28,1.07,6.43,1.62a17,17,0,0,0-4.47-3.67c2.09.56,4.19,1,6.31,1.48a37,37,0,0,0-5.18-4.26c2.3.77,4.59,1.57,6.91,2.3-.68-2.31-3.28-3-5.07-4.15,2.32.46,4.62,1.05,6.91,1.67-1.11-2.1-3.15-3.42-4.9-4.91a29,29,0,0,0,6.66,2,25.49,25.49,0,0,0-4.78-4c1.85.42,3.7.87,5.57,1.29Z" transform="translate(-50.82 -30.33)"/><path class="cls-143" d="M227.67,975.85c4.66,1,8.6,3.83,13,5.44,1.79,1.17,4.39,1.84,5.07,4.15-2.32-.73-4.61-1.53-6.91-2.3a37,37,0,0,1,5.18,4.26c-2.12-.44-4.22-.92-6.31-1.48a17,17,0,0,1,4.47,3.67c-2.15-.55-4.27-1.15-6.43-1.62-1.85-.34-3.72-.42-5.57-.66l-.27-1c.62-1.34,1.3-2.64,2-3.93-2-1-4.81-1.17-5.47-3.66a37.83,37.83,0,0,1,7.66,2.18C231.81,979.39,229.26,978.14,227.67,975.85Z" transform="translate(-50.82 -30.33)"/><path class="cls-144" d="M311.08,985a34.33,34.33,0,0,1,4.83-8.47c3.57,2.33,7.57,4.14,10.68,7.11a54.07,54.07,0,0,0-5,7.29,162.71,162.71,0,0,1,16.78,7.13c-.56,1.59-.86,4-2.64,4.63-6.51-2.48-12-7.05-18-10.43a8.17,8.17,0,0,0-2.8,4.56c5.89,4,12.32,7.25,17.73,11.93a16.34,16.34,0,0,1-3.61,4.25c-5.2-3.57-9.19-8.79-14.6-12-1.87,2.73-3.28,6.24-6.56,7.58a4.37,4.37,0,0,0-2.15,2.07c-20,31.87-39.66,63.91-59.68,95.75l-.2,0c-3.25.17-4.91,3.36-7.17,5.25-8.64,7.3-16.59,15.41-25.59,22.3-6.27,4.93-12.52,11.49-21.17,11.14a42.13,42.13,0,0,1,3.93-11.44c3-5.41,8-9.33,12.87-13,3.49-2.77,8.12-3.54,12.45-3,2.23.63,4.39,1.49,6.59,2.24,11.83-17.11,22.66-34.89,33.88-52.4,12.87-20.41,25.83-40.78,38.71-61.18.7-4.41,3.05-8.2,4.9-12.19l2.88.14,1.44-2.45c-5.44-3.19-11.51-5.23-16.68-8.85-1.51-1.44-.29-3.45.37-5,7,1.79,11.86,7.84,17.82,11.65l1.32-2.49C312.08,986.68,311.41,985.58,311.08,985Z" transform="translate(-50.82 -30.33)"/><path class="cls-145" d="M211.37,981a28.45,28.45,0,0,1,3.08-2.52c.33,3.87-3.94,6.28-3.91,10.21-.67,2.7,3,3.87,5.06,2.87,5.15-2.06,9.77-5.25,14.29-8.43,0,.79,0,2.36.05,3.15-.61.87-1.23,1.75-1.8,2.67-6.69,2.72-12.84,9.09-20.58,7.55-4.24-1.53-2.16-6.46-1.65-9.67C207.69,984.83,209.49,982.87,211.37,981Z" transform="translate(-50.82 -30.33)"/><path class="cls-146" d="M244,991.72c3.91-2.56,6.82-6.34,10.76-8.85-3.49,14.25-7,28.8-14.07,41.75-4.32,8-12.26,14.18-21.43,15.38-8.28.64-17.06-2.24-22.46-8.74-3.88-4.48-5.45-10.49-5.41-16.31,3.11.73,6.23,1.95,9.48,1.66,2,0,4.23-.79,5.74.93l-.88.76c-1.44.71-3.54.83-4,2.74.73,3.25,4.58,3.61,6.91,5.32,2.86,1.31,5.09,4.58,8.48,4.27,2.6-.94,1.41-3.67.35-5.31.72-1.38,1.6-2.87.33-4.29.48-4.23,3.78-7.72,6.38-10.92,8.51-5.17,17.26-10.48,23.94-18C246.72,992,245.34,991.82,244,991.72Z" transform="translate(-50.82 -30.33)"/><path class="cls-147" d="M228.14,988.94c.57-.92,1.19-1.8,1.8-2.67l.27,1c1.85.24,3.72.32,5.57.66a29.59,29.59,0,0,1,5.45,3.64l-1,.82a16.36,16.36,0,0,0-5.19-2.73c.25.61.74,1.84,1,2.45l-2.31-.21,1.32,2.1-3.29.07c1.42,1,2.85,1.92,4.28,2.91-1.63-.38-3.25-.76-4.86-1.12.21.5.64,1.48.85,2l-2.25.27c.77.56,1.54,1.14,2.31,1.73l-3.55.07q2,1.57,4,3.14c-1.59-.39-3.19-.75-4.79-1.09-.11-1.09-.21-2.17-.31-3.24-.48-.4-1.42-1.21-1.89-1.62l2.38-1.17.28-3.12-2.48,1C226.49,992.2,227.27,990.54,228.14,988.94Z" transform="translate(-50.82 -30.33)"/><path class="cls-148" d="M197.07,997.87a70.24,70.24,0,0,1,8.84-11c-.51,3.21-2.59,8.14,1.65,9.67,7.74,1.54,13.89-4.83,20.58-7.55-.87,1.6-1.65,3.26-2.43,4.92l2.48-1-.28,3.12-2.38,1.17c-6.27.63-11.33,5.09-17.59,5.84C203.47,1004.26,199.91,1000.74,197.07,997.87Z" transform="translate(-50.82 -30.33)"/><path class="cls-149" d="M235.08,989.7a16.36,16.36,0,0,1,5.19,2.73c-2.64,3.51-5.07,7.17-7.75,10.66q-2-1.56-4-3.14l3.55-.07c-.77-.59-1.54-1.17-2.31-1.73l2.25-.27c-.21-.5-.64-1.48-.85-2,1.61.36,3.23.74,4.86,1.12-1.43-1-2.86-1.94-4.28-2.91l3.29-.07,1.11,1.28.72-.32-.11-.76-1.72-.2-1.32-2.1,2.31.21c1.43,3,2.88-1.56,0,0C235.82,991.54,235.33,990.31,235.08,989.7Z" transform="translate(-50.82 -30.33)"/><path class="cls-150" d="M236.06,992.15" transform="translate(-50.82 -30.33)"/><path class="cls-151" d="M235.07,994l1.72.2.11.76-.72.32Z" transform="translate(-50.82 -30.33)"/><path class="cls-152" d="M207.94,1003c6.26-.75,11.32-5.21,17.59-5.84.47.41,1.41,1.22,1.89,1.62.1,1.07.2,2.15.31,3.24a57.78,57.78,0,0,1-4.38,6.9c.26-1.42.51-2.84.75-4.24a20.25,20.25,0,0,0-4.78,5.2c.18-1.35.35-2.7.52-4-1.65,1.68-3.24,3.43-4.75,5.24.22-1.37.44-2.71.65-4.06-4.31.86-8.52,2.56-13,2.48-3.51-.07-6.8-1.43-10-2.71a37.64,37.64,0,0,1,4.32-8.91C199.91,1000.74,203.47,1004.26,207.94,1003Z" transform="translate(-50.82 -30.33)"/><path class="cls-153" d="M329.35,1089.77c4.33,1.85,5.36,7.55,5.47,11.82-1.72-.92-1.42-3-2-4.6C332.3,1094.31,330.44,1092.2,329.35,1089.77Z" transform="translate(-50.82 -30.33)"/><path class="cls-153" d="M313,1097c4-3.68,9.49-4.61,14.41-6.43,3.09,2.08,4.33,5.87,4.92,9.39-5.79-1.89-13.11-2.19-17.27,3.06-2.27,1.77-2,4.92-3.52,7.07-5,2.5-8.36,7.06-13.09,9.88l-.64-2c.64-1.53,2.13-2.93,2-4.64a27.2,27.2,0,0,0-4.56-2.25c-2.36,4.18-4.89,8.27-7.08,12.55l-1,1.15c-.23-2,.93-3.41,1.79-5,2.15-3.53,4-7.24,6.38-10.62l-2.55.28c-.08-2.86,2.12-2.19,4-1.84a36,36,0,0,0,5.31,3c1.52-2.35,2.44-5.22,4.72-7C309.1,1101.71,310.56,1098.88,313,1097Z" transform="translate(-50.82 -30.33)"/><path class="cls-154" d="M238.7,1111.76c2.26-1.89,3.92-5.08,7.17-5.25-3.18,6.35-8,11.83-10.5,18.53-7.17,7-15.26,13-23,19.39-5.8,4.73-12.6,9.28-20.46,8.59a29.25,29.25,0,0,1,0-7.82c8.65.35,14.9-6.21,21.17-11.14C222.11,1127.17,230.06,1119.06,238.7,1111.76Z" transform="translate(-50.82 -30.33)"/><path class="cls-155" d="M298.41,1119.92c4.73-2.82,8.13-7.38,13.09-9.88-.72,1.4-1.49,2.77-2.26,4.17,6.55,3.06,13.16,6,19.73,9,0,2.68-1.68,4.83-3.29,6.82-6.53-3.48-12-8.64-18.5-12.13-2.28,4.06-4.66,8.08-6.89,12.19,6.56,3,13,6.12,19.62,9.09.16,2.67-1.71,4.71-3.08,6.8-6.54-3.62-12.26-8.51-18.61-12.42-2,3.47-3.66,7.17-6.56,10-2.89,3.87-4.84,8.36-7.41,12.45-1.75-1.1-3.51-2.15-5.3-3.15,2.15-5.1,6-9.37,7.43-14.78,1-3.25,3.25-5.93,4.7-9q-2.37-1.41-4.81-2.63c-4.31,7.64-6.15,16.42-10.93,23.82l-1.57,1.31a28.68,28.68,0,0,1,2.56-5.43c3.58-6.29,5-13.63,9-19.65-.41-.93-.83-1.85-1.26-2.75l.88-1.65c.71.86,1.41,1.74,2.11,2.64l1-1.15,4.78,2.57c1.6-2.76,3.21-5.51,4.87-8.23Z" transform="translate(-50.82 -30.33)"/><path class="cls-156" d="M212.42,1144.43c7.69-6.41,15.78-12.41,23-19.39,2.68,1.84,4.51,4.58,6.46,7.13,3.16,6.87.41,14.52-2.72,20.89-4.31,7.79-10,15.89-18.93,18.66a43.46,43.46,0,0,1-11-1.29c-1.33,1.64-2,4.32-4.12,5-3.66-.23-7-2.49-9.33-5.22-1.78-2.46,1-5,1.87-7.21a39.36,39.36,0,0,1-5.63-10C199.82,1153.71,206.62,1149.16,212.42,1144.43Z" transform="translate(-50.82 -30.33)"/><path class="cls-157" d="M329.65,1126.18c1.73.3-.42,3.83-1.86,3.59C327.42,1128.4,328.74,1127.05,329.65,1126.18Z" transform="translate(-50.82 -30.33)"/><path class="cls-158" d="M320.67,1142.19c1.66.31-.48,3.89-1.92,3.62C318.43,1144.41,319.73,1143.06,320.67,1142.19Z" transform="translate(-50.82 -30.33)"/><path class="cls-159" d="M273.12,1152c3.62,1.62,8.59,2.53,10.45,6.33-3.29-1.65-6.45-3.53-9.85-4.93-7.81,12.49-15.44,25.09-23.08,37.69,2.94-.78,6.76-1.11,8.37-4.07,6-10.26,11.88-20.59,17.84-30.87a45.88,45.88,0,0,1,5.21,3c-4,8.85-9.55,17-14,25.62,20.08-7.34,39.91-15.37,60-22.77,3.83-1.31,8.4-2.17,12.08,0,1.09.58.84,2.17,0,2.92-2.7,3.58-7,5.16-11.12,6.55q-24.75,8.74-49.52,17.47c-1.23-.54-2.46-1.07-3.69-1.58,11.94-4.3,23.95-8.43,35.92-12.65,7.83-3,16.13-5,23.59-8.84-.43-3.41-3.86-2.54-6.15-1.58-26.44,10.05-52.81,20.26-79.25,30.28-1.44.45-2.32,1.71-3.29,2.78h-1a9.87,9.87,0,0,0-5.43.91c-13.13,5.2-26.47,9.91-39.55,15.22,3-.22,5.75-1.66,8.58-2.59,6.84-2.36,13.61-4.89,20.47-7.2q0,1.43,0,2.88v.18c-9.28,3.13-18.46,6.59-27.75,9.7a6.46,6.46,0,0,1-5-.44c-4-1.78-7.89,3.51-11.77,1.9.06-.41.17-1.24.22-1.65,19.25-7.45,38.63-14.58,57.89-22,1.79-.86,4.14-1.07,5.27-2.87C256.85,1178.4,264.84,1165.11,273.12,1152Z" transform="translate(-50.82 -30.33)"/><path class="cls-160" d="M246.58,1197.42c9.9-2.72,19.41-6.8,29.18-10,1.23.51,2.46,1,3.69,1.58-5.47,2-11,3.82-16.41,6-1.25.37-1.67,1.74-2.43,2.67a11.44,11.44,0,0,0-8.3,1.43c-2.78.81-5.9,1.16-8.24,3-7.46,11.43-14.32,23.26-22.18,34.44-.08-.43-.26-1.28-.34-1.71,6.39-10.84,13.77-21.42,20.27-32.32-4.06,1.37-8,3-12.15,4.2q0-1.45,0-2.88c5.3-2.13,11.05-3.29,15.93-6.34Z" transform="translate(-50.82 -30.33)"/><path class="cls-161" d="M252.31,1199.06a11.44,11.44,0,0,1,8.3-1.43c-4.4,8-8.78,15.94-13.43,23.75.13-1.48.22-2.91.3-4.36-2.7,1.24-5.36,2.58-8,4C243.72,1213.68,247.88,1206.29,252.31,1199.06Z" transform="translate(-50.82 -30.33)"/><path class="cls-162" d="M239.52,1221c2.6-1.44,5.26-2.78,8-4-.08,1.45-.17,2.88-.3,4.36-4.78,8.5-9.54,17-14.45,25.45-.89,1.48-1.71,3-2.53,4.55,2.21.65,4.44,1.26,6.64,2,3.2.93,4.29,4.32,6.25,6.64,1.41,1.28,4,3.06,5.09.39,1.89,1.14,1.87,3.71,2.68,5.59a20.27,20.27,0,0,1-9,16.89c-.13.54-.41,1.63-.55,2.17l-2.19,1.36-1.09-.26c-5.4-1.08-10.18-3.93-15.25-5.91-3.65-1.53-7.48-2.58-11.23-3.8a30.25,30.25,0,0,1,.17-6c4.07,2.71,8.21-.88,10.65-4,3.62-5,6.54-11.08,5.86-17.35a25,25,0,0,0-3.39-2.34c1-1.79,2-3.57,3-5.33C231.67,1234.56,235.68,1227.85,239.52,1221Zm8.53,45c-1.23,5.08-2.78,11.15-7.93,13.61-3.73-2.64-7.93-4.54-11.92-6.76-2.37-1-4.72-2.92-7.44-2.27,6.16,3.79,12.66,7.05,19,10.52,6.35-2.42,8.92-10,9.06-16.25C248.64,1265.16,248.25,1265.74,248.05,1266Z" transform="translate(-50.82 -30.33)"/><path class="cls-163" d="M221.55,1234.77c.08.43.26,1.28.34,1.71l-.35.55c-1.59,2.41-3.17,4.84-4.71,7.3,3.9.54,6.64,3.42,9.95,5.25a26.17,26.17,0,0,1-9.89,19.38c-1.9,1.55-4.21.32-6-.74a56.67,56.67,0,0,0,3-5.76c-2.41,1.41-3.55,4-4.84,6.36.85.51,1.7,1.06,2.57,1.58a30.25,30.25,0,0,0-.17,6c-2.89-1.16-5.85-2.5-8-4.79-.53-1.24,0-2.59,0-3.84,3.49-1.43,5.42-4.83,6.72-8.17-2.28,1.23-2.89,5.71-5.79,5-.84-2.45,1.81-4.12,2.25-6.33-.48-.8-1-1.57-1.52-2.3a26.92,26.92,0,0,1,6.77-8.19c3.83-2.91,5.72-7.46,8.44-11.27C220.62,1236.09,221.24,1235.21,221.55,1234.77Z" transform="translate(-50.82 -30.33)"/><path class="cls-164" d="M283.35,1242.37c1.81-2.77,4.66-4.52,7.49-6.07,2.68,1,7.71,1.21,6.89,5.32a51.49,51.49,0,0,0-6.69,0,11.51,11.51,0,0,0-4.43,3.94c-2,2.31-1.15,5.63-2.53,8.25,4.88,1,10.3-.17,14.64,2.76-.5,1.61-.85,4.18-3.11,4,0-1,.12-3.11.17-4.15-.46,1.33-.9,2.69-1.34,4.06-3.83-1.58-7.72-3-11.63-4.35-.94,3.37-4.82,6.81-2.82,10.38-.16.32-.48,1-.63,1.27l-2.13.63a45.86,45.86,0,0,1-2.42,5.53c-1.24,1.37-2.86,2.48-3.53,4.29q-14.1,30.9-28.21,61.79c-1.87,4.53-4.44,8.83-5.63,13.62.73,2.26,1.87,4.42,2.09,6.86a46.2,46.2,0,0,0-9.39,7.57c-7.44,7.82-16.74,13.48-26,18.86-3.53,1.83-5.63,5.26-7.52,8.61-1-3.71-1.56-7.53-2.57-11.23a35.18,35.18,0,0,1,23.63-29.61c3.71-.39,7.58-.75,11.18.45-.75-2.76,2.92-4.28,3.4-7a10.61,10.61,0,0,1,7.2-5.46l-3.37-2.07a36.24,36.24,0,0,1,2.45-5.51l3.92.65a10.91,10.91,0,0,0-3.16-1.8c7.81-17,16.24-33.72,24.28-50.61l3.95.51a6.12,6.12,0,0,0-3.07-2.74c1.57-3.32,3.79-6.5,3.9-10.28.15-2,1.45-3.63,2.29-5.35a19.48,19.48,0,0,1-4.83-2.52c1.85-.74,3.74.11,5.57.48,1.55-2.89,2.87-5.89,4.28-8.85-1.63-.56-3.23-1.16-4.78-1.87,1.55-1.49,3.67-.19,5.46,0C277.87,1248.79,281.23,1246,283.35,1242.37Z" transform="translate(-50.82 -30.33)"/><path class="cls-165" d="M230.2,1251.38c.82-1.54,1.64-3.07,2.53-4.55,1.45,2.11,2.86,4.26,4.11,6.52C234.64,1252.64,232.41,1252,230.2,1251.38Z" transform="translate(-50.82 -30.33)"/><path class="cls-166" d="M280,1266.57l.52-1.09c4.25,1.1,8.68,1.66,12.68,3.59.18,1.84-.48,4.8-2.89,4.43-4.05-.88-7.48-3.43-11.28-5l.34-.67C279.51,1267.52,279.83,1266.89,280,1266.57Z" transform="translate(-50.82 -30.33)"/><path class="cls-167" d="M236.08,1340.73l3.37,2.07a10.61,10.61,0,0,0-7.2,5.46c-1.13.07-2.24.17-3.36.31.48-1.16,1-2.32,1.43-3.44l1.94,1.64C233.5,1344.73,234.79,1342.73,236.08,1340.73Z" transform="translate(-50.82 -30.33)"/><path class="cls-168" d="M230.14,1368.13a46.2,46.2,0,0,1,9.39-7.57,15.72,15.72,0,0,1,5.82,6.12c-1-.46-2.11-.88-3.16-1.29-5.45,6.51-12.42,11.49-18.83,17-5.74,5.16-13.14,7.72-20,11-.65,3-1.29,6.08-2.18,9.08a11.88,11.88,0,0,1-4.58-6.85c1.89-3.35,4-6.78,7.52-8.61C213.4,1381.61,222.7,1376,230.14,1368.13Z" transform="translate(-50.82 -30.33)"/><path class="cls-169" d="M242.19,1365.39c1.05.41,2.11.83,3.16,1.29,5.68,12.32,1.45,27.12-7.14,37-5.94,5.52-14.19,9.41-22.43,7.54-5.15-1.47-10.48-3-14.92-6.07-6.2-4.74-8.31-13.38-6.82-20.78,1,3.7,1.56,7.52,2.57,11.23a11.88,11.88,0,0,0,4.58,6.85c.89-3,1.53-6,2.18-9.08,6.85-3.27,14.25-5.83,20-11C229.77,1376.88,236.74,1371.9,242.19,1365.39Z" transform="translate(-50.82 -30.33)"/><path class="cls-170" d="M283.09,1385c3.64-4.39,8.79-7.14,13.85-9.58,2.73,2.5,5.52,5.4,6,9.26-5.52-1.21-12.05-.12-15.62,4.64-1.51,2.18-3.62,4.69-2.92,7.53s-1.25,5.13-2.16,7.57c3.74,1,7.57,1.68,11.33,2.67a14.64,14.64,0,0,1-5.34,5.26c-2.51-1.34-5-2.63-7.53-4a135.63,135.63,0,0,0-6.31,13.76l1.72.7.57,2.12c-1.23.43-2.46.84-3.68,1.31l-.72.26c-2,3.52-2.59,8.43-6.86,10-2.37,3.87-3.68,8.32-5.82,12.34-1.1-.13-2.2-.25-3.3-.34-1.64,1.22-3.3,2.42-4.92,3.7a38.82,38.82,0,0,1,3.32-7.62c-2-1.43-5.61-1.06-6.72-3.46a21.93,21.93,0,0,1,7.46,1.72c1.43-4.28,4.72-8.11,4.11-12.86.69-2.92,2.33-5.5,3.43-8.26-1-.44-2.07-.87-3.11-1.27l.24-3.41c1.41.5,2.81,1,4.23,1.5,2.21-4.63,4.23-9.35,6.29-14l.87-1.91c-.48-.51-1-1-1.45-1.45,3.08,1,3-3,4.32-4.76.56-1.84,2.48-2.39,4-3.11C279.79,1390.45,281,1387.43,283.09,1385Z" transform="translate(-50.82 -30.33)"/><path class="cls-170" d="M301.27,1377.23c2.73,1.69,3.49,5,4,8C303.24,1383,303,1379.67,301.27,1377.23Z" transform="translate(-50.82 -30.33)"/><path class="cls-171" d="M262.82,1398.8c2.49.43,5.1.93,7.22,2.38.49.45,1,.94,1.45,1.45l-.87,1.91c-2.52-.93-5.14-1.6-7.57-2.73C261.66,1401.29,262.92,1399.71,262.82,1398.8Z" transform="translate(-50.82 -30.33)"/><path class="cls-172" d="M293.56,1407.08c3,.48,6.21.78,8.81,2.52,2.88,2.82-.32,9-4.39,7.65-3.41-1.32-6.51-3.29-9.76-4.91A14.64,14.64,0,0,0,293.56,1407.08Z" transform="translate(-50.82 -30.33)"/><path class="cls-173" d="M254.06,1418c-1.07-1.07.33-2.93,1.61-2.47a38.23,38.23,0,0,1,4.43,1.56l-.24,3.41C258,1419.67,255.33,1419.85,254.06,1418Z" transform="translate(-50.82 -30.33)"/><path class="cls-174" d="M276.1,1422.81a142.6,142.6,0,0,1,15.1,4.1c-1.78.24-3.67.19-5.33.95a24,24,0,0,0-3.31,4c-3.27-1.74-6.4-3.71-9.57-5.61,1.22-.47,2.45-.88,3.68-1.31Z" transform="translate(-50.82 -30.33)"/><path class="cls-175" d="M285.87,1427.86c1.66-.76,3.55-.71,5.33-.95,4.3,0,6,5.38,2.74,8.07-3.84,3-7.88-1.62-11.38-3.13A24,24,0,0,1,285.87,1427.86Z" transform="translate(-50.82 -30.33)"/><path class="cls-176" d="M256.29,1448.54c1.1.09,2.2.21,3.3.34-3.82,8.94-7.88,17.78-11.78,26.69l-.16-.06a10.85,10.85,0,0,0-6.7-1c3.48-7.42,6.45-15.14,10.42-22.28C253,1451,254.65,1449.76,256.29,1448.54Z" transform="translate(-50.82 -30.33)"/><path class="cls-177" d="M241,1474.52a10.85,10.85,0,0,1,6.7,1c-4.56,10.74-9.63,21.25-14.17,32a88.77,88.77,0,0,1-16.6,23.24c-3.84,3.55-8.72,5.57-13.27,8a5.49,5.49,0,0,1-3.06-6.29c.89-4.24-1.73-8-1.91-12.15.11-8.5,6.17-17,14.8-18.47-1.93,2.36-4.83,3.5-7.16,5.38a17.85,17.85,0,0,0-5.06,18.46c.75,1.64,1.74,3.62,3.66,4.1,4.21-.7,7.05-4.2,9.89-7.06,5.17-5.87,10-12.2,13-19.46C232.39,1493.77,236.61,1484.12,241,1474.52Z" transform="translate(-50.82 -30.33)"/><path class="cls-178" d="M213.44,1501.84c4.31-1.24,8.82-.5,13.15.18l1.43.26-.23,1c-3,7.26-7.85,13.59-13,19.46-2.84,2.86-5.68,6.36-9.89,7.06-1.92-.48-2.91-2.46-3.66-4.1a17.85,17.85,0,0,1,5.06-18.46C208.61,1505.34,211.51,1504.2,213.44,1501.84Z" transform="translate(-50.82 -30.33)"/><path class="cls-179" d="M216.88,1530.75a88.77,88.77,0,0,0,16.6-23.24c2.8,1.51,5.54,3.15,8.3,4.75-3.92,3.81-5.95,9-9.31,13.28-4.63,7.1-11.65,12.09-16.89,18.68-4.09-1.59-8-3.62-12-5.47C208.16,1536.32,213,1534.3,216.88,1530.75Z" transform="translate(-50.82 -30.33)"/><path class="cls-180" d="M232.47,1525.54c3.36-4.26,5.39-9.47,9.31-13.28,2.6,1.62,5.37,3.44,6.5,6.46,3.55,8.81-1,19.47-9.21,23.93-4.68,2-9.72.85-14.07-1.38-2.6,2.25-5.87,4.07-9.42,3C220.82,1537.63,227.84,1532.64,232.47,1525.54Z" transform="translate(-50.82 -30.33)"/><text class="cls-181" transform="translate(246.45 42.69)">.</text><text class="cls-181" transform="translate(243.18 157.45)">.</text><text class="cls-181" transform="translate(237.17 289.93)">.</text><text class="cls-181" transform="translate(240.1 391.09)">.</text><text class="cls-181" transform="translate(238.24 510.89)">.</text><text class="cls-181" transform="translate(245.02 634.33)">.</text><text class="cls-181" transform="translate(248.29 760.55)">.</text><text class="cls-181" transform="translate(258.85 913.16)">.</text><text class="cls-181" transform="translate(254.43 1027.4)">.</text><text class="cls-181" transform="translate(258.85 1175.18)">.</text><text class="cls-181" transform="translate(256.68 1267.26)">.</text><text class="cls-181" transform="translate(252.65 1424.5)">.</text><line class="cls-182" x1="217.75" y1="759.45" x2="155.47" y2="827.69"/><line class="cls-183" x1="232.77" y1="791.67" x2="180.62" y2="850.37"/><line class="cls-183" x1="231.7" y1="786.14" x2="177.5" y2="847.14"/><line class="cls-183" x1="230.69" y1="780.85" x2="174.39" y2="844.22"/><line class="cls-183" x1="228.51" y1="776.84" x2="170.52" y2="841.39"/><line class="cls-183" x1="226.51" y1="773.62" x2="166.86" y2="838.35"/><line class="cls-183" x1="232.77" y1="798.47" x2="184.59" y2="852.7"/><line class="cls-183" x1="224.53" y1="769.67" x2="164.3" y2="835.91"/><line class="cls-183" x1="232.75" y1="803.8" x2="186.61" y2="855.48"/><line class="cls-183" x1="222.92" y1="765.78" x2="163.03" y2="831.76"/><line class="cls-183" x1="233.3" y1="809.12" x2="188.43" y2="858.99"/><rect class="cls-12" x="388.03" y="107.79" width="53.62" height="30.89"/><rect class="cls-164" x="400.29" y="1257.54" width="63.03" height="42.56" rx="2.19"/><text class="cls-184" transform="translate(396.06 130.84) scale(0.95 1)"></text><text class="cls-185" transform="translate(307.13 319.36) scale(0.88 1)"></text><rect class="cls-66" x="388.14" y="279.83" width="53.39" height="34.06"/><text class="cls-184" transform="translate(396.06 303.02) scale(0.95 1)"></text><rect class="cls-107" x="396.06" y="571.01" width="53.39" height="34.06"/><text class="cls-184" transform="translate(403.65 594.94) scale(0.95 1)"></text><rect class="cls-144" x="402.05" y="958.55" width="59.51" height="36.81"/><text class="cls-184" transform="translate(412.79 985.71) scale(0.95 1)"></text><text class="cls-184" transform="translate(413.6 1285.62) scale(0.95 1)"></text><text class="cls-186" transform="translate(402.98 1508.42) scale(0.95 1)"></text></svg>