<?xml version="1.0" encoding="UTF-8"?>
<svg xmlns="http://www.w3.org/2000/svg" xmlns:xlink="http://www.w3.org/1999/xlink" viewBox="0 0 840.79 1375.81">
  <defs>
    <style>
      .cls-1, .cls-2 {
        fill: #c35d1b;
      }

      .cls-1, .cls-2, .cls-3, .cls-4, .cls-5 {
        font-family: 'KingHwa_OldSong', KingHwa_OldSong;
        font-size: 24px;
      }

      .cls-1, .cls-3, .cls-6, .cls-7 {
        opacity: .7;
      }

      .cls-8 {
        fill: #d26d11;
      }

      .cls-3, .cls-4, .cls-5 {
        fill: #e3d5b3;
      }

      .cls-9 {
        fill: url(#_未命名的渐变_57);
      }

      .cls-6, .cls-10 {
        fill: none;
        stroke: #d26d11;
        stroke-miterlimit: 10;
      }

      .cls-5 {
        glyph-orientation-vertical: 0deg;
        text-orientation: upright;
        writing-mode: tb;
      }
    </style>
    <linearGradient id="_未命名的渐变_57" data-name="未命名的渐变 57" x1="407.62" y1="1375.81" x2="407.62" y2="47.49" gradientUnits="userSpaceOnUse">
      <stop offset="0" stop-color="#fff" stop-opacity=".3"/>
      <stop offset="1" stop-color="#956134"/>
    </linearGradient>
  </defs>
  <g id="_图层_1" data-name="图层_1">
    <text class="cls-3" transform="translate(25.65 725.02)"><tspan x="0" y="0">起源</tspan></text>
    <text class="cls-4" transform="translate(156.89 832.64)"><tspan x="0" y="0">鼎盛</tspan></text>
    <text class="cls-4" transform="translate(586.14 858.07)"><tspan x="0" y="0">流变</tspan></text>
    <text class="cls-4" transform="translate(718.16 766.37)"><tspan x="0" y="0">传承</tspan></text>
    <text class="cls-1" transform="translate(35.83 781.86) rotate(90)"><tspan x="0" y="0">——————</tspan></text>
    <text class="cls-1" transform="translate(170.68 887.45) rotate(90)"><tspan x="0" y="0">——————</tspan></text>
    <text class="cls-2" transform="translate(601.57 904.27) rotate(90)"><tspan x="0" y="0">——————</tspan></text>
    <text class="cls-1" transform="translate(789.84 791.75) rotate(90)"><tspan x="0" y="0">——————</tspan></text>
    <text class="cls-5" transform="translate(57.2 937.99)"><tspan x="0" y="0">西域传入</tspan><tspan x="-28.8" y="0">汉唐交融</tspan></text>
    <text class="cls-5" transform="translate(199.4 1048.48)"><tspan x="0" y="0">宫廷雅乐</tspan><tspan x="-28.8" y="0">敦煌飞天</tspan></text>
    <text class="cls-5" transform="translate(641.97 1059.09)"><tspan x="0" y="0">曲响改良</tspan><tspan x="-28.8" y="0">四弦定音</tspan></text>
    <text class="cls-5" transform="translate(776.07 926.07)"><tspan x="0" y="0">名曲迭出</tspan><tspan x="-28.8" y="0">千年未绝</tspan></text>
    <path class="cls-9" d="M587.25,1132.11c-2.45-20.02-4.53-40.12-8.61-59.89-3.33-19.86-8.16-39.41-12.89-58.96-14.55-60.01-33.44-118.79-50.71-178.03-4.64-15.36-8.51-30.96-13.53-46.2-4.5-14.49-7.33-29.43-11.55-44-1.95-7.85-3.89-15.7-6.32-23.42-5.9-24.2-11.73-48.44-16.46-72.91-3.19-12.85-4.48-26.03-6.92-39.01-1.72-9.45-2.55-19.05-4.67-28.42-9.9.19-19.66,2.08-29.48,3.09-.55,9.5.22,19.01-.24,28.51.25,1.72-1.3,2.97-2.91,2.64-1.75-10.03.53-20.31-1.57-30.33-2.18-.37-4.35-.74-6.52-1.09,0,.03-.01.05-.02.08v-6.82c2.19.2,4.42-.38,6.62-.56,1.15-11.9,1.21-23.95-.69-35.78-1.97.34-3.95.64-5.93.93v-8.34c.72.85,1.7,1.37,3.02,1.16,2.53.35,3.12-2.82,3.59-4.68,1.96-10.91.16-22.02.12-32.99-.36-41.49-.07-82.99-.27-124.49-.51-15.24-.91-30.47-.82-45.71-.04-3.27.12-6.57-.5-9.79-.79-3.55-3.62-6.16-4.6-9.63.08-4.89,2.27-9.46,4.25-13.83,2.86-6.23,7.59-11.25,11.09-17.08,3.22-5.33,3.85-11.79,7.01-17.12,2.05-3.4,6.69-1.81,9.94-2.25-3.2,14.69-9.11,28.66-16.03,41.92-2.49,4.85-5.88,9.31-7.26,14.66-1.1,4.95-.76,10.06-.66,15.1.54,16.2-.11,32.43,1.05,48.62.27,24.31-.03,48.63.29,72.94.12,6.73,1.32,13.44.68,20.17-1.34,11.06-.6,22.2-.65,33.3.98,23.88.46,47.79.84,71.68,9.43.46,18.93.04,28.11-2.34-.13-7.99-1.78-15.82-2.63-23.74-1.26-11.33-2.51-22.67-3.89-33.98-1.57-14.75-2.5-29.55-3.91-44.31-4.51-.11-9.01-.44-13.5-.77,4.55-1.03,8.99-2.48,13.52-3.62-.31-5.07-.74-10.12-1.29-15.16-1.07-10.1-.83-20.27-.86-30.42.09-6.03.23-12.67,4.13-17.6,3.14-3.75,7.39-6.28,11.43-8.91.05-10.36-1.86-20.58-2.09-30.92-.27-11.63-.71-23.47,2.36-34.8,23.36.67,46.66,2.63,70.03,3.55,9.18.41,18.52,1.87,27.6-.24,6.53-1.43,11.56-6.82,13.96-12.93,3.67-9.13-1.76-20.72-11.03-23.69-6.06-2.2-12.52-.64-18.69.09-25.32,2.52-49.97,9.5-75.22,12.53,4.17-13.9,8.78-27.65,12.65-41.63,24.24-1.58,48.53-2.39,72.73-4.46,8.34-.78,17.39-.61,24.59-5.61,5.52-3.4,9.6-9.52,9.38-16.22-.05-9.15-8.18-16.53-16.72-17.81-6-.52-11.56,2.36-17.21,3.9-16.4,4.72-32.23,11.24-48.57,16.17-6.8,2.24-13.55,4.77-20.64,5.9,1.6-15.13,4.28-30.12,5.38-45.3,1.13-9.84,1.07-19.76,1.76-29.63.57-11.45.41-22.94-.41-34.37-.41-13.51-1.48-27.05-4.32-40.29-1.41-6.55-3.18-13.09-6.13-19.13-1.29-2.85-2.95-5.62-3.34-8.77-.38-4.73,1.48-9.34,1.02-14.07-.36-2.72-2.42-5.7-5.37-5.74-5.11,0-9.3,3.73-14.3,4.18-4.8-.95-8.58-4.45-13.09-6.18-8.8-3.82-19.01-1.09-26.75,3.98-2.81,1.72-5.38,3.96-8.53,5.01-4.69.38-9.12-2.54-13.84-1.76-2.3.45-5.02,1.75-5.33,4.4-1.08,6.96.75,14.45-2.47,21.01-3.37,6.95-8.44,13.09-10.47,20.68-2.72,10.64-3.32,22.01-.36,32.68,2.26,10.64,8.46,20.16,16.71,27.01,7.93,5.85,17.05,9.98,26.6,12.2,1.86,13.1.99,26.31.04,39.45-9.74-1.23-19.23-3.85-28.91-5.43-16.76-3.6-33.57-6.93-50.48-9.61-7.56-1.23-15.98-1.21-22.51,3.39-5.18,3.8-9.12,10.41-7.84,17.08,1.16,5.6,4.98,10.34,9.42,13.71,5.2,3.64,11.83,2.64,17.76,2.34,26.6-.79,53.09-3.73,79.67-4.75-1.29,16.29-5.49,32.35-11.81,47.38-25.45,2.08-50.97,2.81-76.48,4.05-7.49.78-15.55-.06-22.4,3.68-5.53,3.3-10.97,8.34-11.67,15.19-1.36,9.65,6.25,19.67,16,20.21,12.63.75,24.6-4.26,36.5-7.78,16.67-4.87,33.06-10.67,49.79-15.36-2.48,4.2-5.06,8.33-7.9,12.29-2.08,3.08-4.43,6.2-5.09,9.98-1.61,10.61,2.78,21.06,1.35,31.67-1.22,9.65-4.46,18.94-5.32,28.64-1.01,9.88,8.48,17.08,7.48,26.98-1.26,19.48-4.07,38.8-6.02,58.21-1.48,14.04-3.83,27.96-5.56,41.97-1.14,10.05-3.72,19.91-4.04,30.07,4.89.07,9.77-.17,14.61-.8v7.76c-5.4.23-10.8.46-16.19,1.01-.64,11.75-5.27,22.77-5.94,34.51,7.38.28,14.78.14,22.13-.59v8.14c-6.49.18-12.98.61-19.47.91-1.55.37-3.99-.2-4.56,1.77-1.95,4.43-2.3,9.35-3.24,14.07-1.95,11.92-5.28,23.55-7.34,35.45-4.96,23.83-11.17,47.38-17.18,70.96-2.55,10.74-5.95,21.24-8.03,32.09-3.21,13.75-7.84,27.12-11.35,40.79-9.85,32.21-18.56,64.74-28.08,97.04-18.33,63.07-36.16,126.42-48.23,191.08-1.8,12.03-4.58,23.89-5.75,36.01-1.66,11.82-2.26,23.75-3.43,35.62-.98,9.7-.45,19.48-.61,29.22-.2,9.08,1.36,18.06,2.08,27.08,2.1,22.63,7.76,44.91,16.4,65.87,5.66,14.13,13.66,27.13,22.28,39.59,9.75,14.43,22.23,26.83,35.96,37.37,12.64,9.7,26.72,17.47,41.7,22.79,17.96,6.32,36.85,10.61,55.96,10.17,19.56.34,39.1-2.94,57.55-9.53,16.25-5.25,31.75-12.84,45.9-22.47,12.65-8.2,24.46-17.87,34.13-29.57,18.66-19.69,31.51-44.31,40.14-70.01,4.55-13.4,6.64-27.45,8.75-41.4,1.82-12.02,1.1-24.21,1.91-36.31-.5-11.45-.58-22.95-1.77-34.36ZM443.39,211.03c.69-3.19,1-7.41,4.38-8.9,1.82.02,3.68.64,5.08,1.87,1.12,3.26.88,6.78.76,10.17-.72,9.38-1.1,18.84-3.24,28.03-3.89.31-7.79.12-11.63-.57,2.54-10.04,3.19-20.39,4.66-30.6ZM414.85,1060.63c2.31-.14,4.61-.34,6.91-.62.05-3.27,1.5-7.09-.6-9.97-1.92-.98-4.11-1.43-6.31-1.42v-3.74c2.6-.37,5.19-.87,7.74-1.52-.18-3.44-.44-6.87-.72-10.31-2.34.09-4.68.21-7.02.37v-4.09c2.61-.32,5.2-.8,7.77-1.42-.25-3.35.32-6.99-1.36-10.02-2.12-.46-4.26-.5-6.41-.37v-4.77c2.46-.16,4.92-.51,7.35-1.03-.07-3.92-.19-7.83-.4-11.74-2.32.13-4.64.37-6.94.68v-4.32c2.56-.22,5.06-.71,7.34-2,1.01-3.55.49-7.3.42-10.94-2.59,0-5.18.14-7.76.4v-4.51c2.17-.05,4.33-.52,6.24-1.55,1.85-2.98,2.01-7.38.05-10.34-1.96-1.06-4.11-1.22-6.29-1.06v-5.08c2.36-.06,4.72-.17,7.08-.34.51-4.44.82-8.93.43-13.39-2.44.16-5.03.03-7.51.33v-5.48c2.44-.1,4.82-.46,6.81-1.98,1.63-3.92.53-8.22.4-12.3-2.33.25-4.84.1-7.21.4v-6.14c2.35-.02,4.71-.1,7.06-.27.58-4.84.6-9.75-.12-14.58-2.33.29-4.64.65-6.94,1.07v-6.12c2.46-.28,4.91-.66,7.35-1.14.82-4.94.92-9.97.4-14.94-2.53.09-5.19-.18-7.75.04v-5.72c2.5-.25,4.98-.56,7.46-.95.63-5.42.91-10.87.47-16.31-2.65.06-5.3.29-7.93.63v-5.8c3.28.49,7.02-1.08,7.81-4.52.84-4.02,1.35-8.88-.91-12.46-2.16-1.11-4.53-.96-6.89-.6v-6.14c2.54-.27,5.07-.6,7.6-1.01.59-5.63.84-11.29.6-16.95-2.73-.14-5.47-.18-8.2-.07v-6.42c2.73-.32,5.44-.87,8.09-1.61.31-6.2.4-12.42-.25-18.6-2.62.22-5.23.49-7.84.76v-6.78c2.67-.34,5.38-.64,7.78-1.93,1.6-6,.76-12.29.78-18.42-2.91.15-5.77.69-8.56,1.54v-7.1c2.92-.42,6.05-.59,8.2-2.71,1.15-6.04.28-12.24.25-18.34-2.84.17-5.67.51-8.45,1.07v-6.22c3.29-.41,7.3-.42,8.13-4.12,1.63-5.82.93-11.96.72-17.92-2.82.32-6.18-.35-8.85.74v-6.11c2.64-.35,5.28-.7,7.91-1.06,1.42-7.22,1.55-14.57.9-21.88-2.96.15-5.9.46-8.81.99v-7.04c2.79.01,5.58-.15,8.35-.48.61-7.15,1.03-14.3.6-21.47-2.73.06-6.43-1.1-8.95.19v-6.42c2.44.83,5.33-.15,7.85-.19.25-4.46.74-8.91,1.43-13.31,1.6,3.79,2.7,7.79,2.9,11.93,7.3.02,14.61-.57,21.92-.45-1.49,1.94-2.65,4.74-5.37,5.11-5.56,1.1-11.26,1.1-16.87,1.77-.87,7.26-.58,14.59.3,21.84,9.82-.15,19.43-3.6,29.28-1.96-.86,1.95-1.12,4.92-3.76,5.12-8.55,2.02-17.48,1.49-25.98,3.83-.6,7.12-.32,14.26.97,21.29,11.19.13,22.22-3.7,33.41-1.85-1.11,1.62-1.88,3.84-3.95,4.44-8.07,2.91-16.82,2.24-25.18,3.63-1.77.31-3.59.77-5.03,1.91-1.16,6.42-.27,12.97-.07,19.44,12.04.25,23.74-3.78,35.8-2.79.12,1.49.24,2.99.37,4.5-10.05,3.52-20.85,2.46-31.18,4.35-1.41.29-2.83.7-4.05,1.5-1.82,6.24-1.02,12.86-.87,19.27,11.84-.75,23.54-2.94,35.39-3.71,2.21-.12,4.29.79,6.39,1.38-.27.8-.8,2.41-1.06,3.22-9.7,2.46-19.68,3.15-29.6,4.01-3.38.57-7.51.69-9.8,3.66-2.71,5.25-1.59,11.44-1.44,17.1,14.61-.4,29-3.65,43.63-3.52-.15,1.58.43,3.62-.71,4.91-3.99,1.72-8.47,1.53-12.7,2.05-10.18,1.1-20.41,1.91-30.45,4.03-.11,5.71-.95,11.54.38,17.16.25.17.74.5.99.67,5.01.77,10.08-.61,15.09-.98,8.27-.76,16.54-2.37,24.87-1.91,2.51-.08,3.7,2.45,5.17,4.06-11.36,3.17-23.19,3.81-34.89,4.69-3.93.38-8.08.57-11.57,2.62-1.14,5.7.24,11.48.77,17.18,14.91-1.2,29.69-3.87,44.67-4.29-.14,1.59.73,3.82-.85,4.92-3.1,1.74-6.78,1.82-10.2,2.28-11.51,1.01-23.06,1.87-34.4,4.28-.6,5.25-.44,10.55.75,15.72,6.33-.43,12.67-.87,18.97-1.65,8.33-.73,16.67-2.36,25.04-1.2.05,1.42.11,2.86.16,4.31-14.75,3.54-30.19,2.2-44.87,6.05-.42,5.19-.49,10.41-.07,15.62,13.8-.52,27.48-3.03,41.27-3.45,2.89-.53,3.91,2.02,4.63,4.35-9.51,3.09-19.57,3.02-29.4,4.13-5.55.65-11.35.4-16.59,2.61-1.14,4.44.04,9.01.71,13.44,14.79,1.32,29.26-4.03,44.04-2.27-.84,1.6-.81,4.23-2.86,4.8-4.74,1.5-9.78,1.36-14.68,1.94-9.17.99-18.37,1.64-27.47,3.21-.17,4.24-.28,8.49-.31,12.75,6.02.08,12.07.14,18.05-.68,6.95-.73,13.93-2.14,20.93-1.43,2.02.11,3.18,2.03,4.63,3.21-13.74,5.08-28.73,3.33-42.94,5.99-.26,4.17-.28,8.36,0,12.54,11.3-.09,22.45-2.21,33.72-2.63,2.86-.33,5.51.86,8.02,2.07-12.73,7.85-28.19,4.01-42.08,7.24-.02,4.06.09,8.13.3,12.19,11.33-.05,22.46-2.46,33.75-2.88,3.08-.32,5.87,1.12,8.5,2.55-2.35,1.23-4.67,2.63-7.29,3.17-11.5,2-23.4,1.09-34.77,3.78-1.24,3.32-1.63,7.39.23,10.56,12.9,1.52,25.64-3.19,38.59-2.47.2,1.51.4,3.02.61,4.56-12.89,3.63-26.57,1.62-39.49,4.8-1.16,3.48-.8,7.22-.87,10.84,13.63.14,27.04-3.33,40.67-2.78-1.31,1.85-2.33,4.38-4.81,4.84-11.81,2.96-24.3.92-36,4.59.24,3.52.56,7.05.93,10.57,10.93-.18,21.69-2.94,32.64-2.56,2.5-.2,4.44,1.48,6.29,2.94-12.72,5.04-26.57,3.01-39.73,5.54.18,3.17.25,6.36.21,9.55,12.94.56,25.72-3.47,38.64-1.82-1.62,1.76-3.07,4.11-5.65,4.42-9.39,1.81-19.01,1.52-28.49,2.56-1.56.41-3.96.21-4.45,2.22-.66,2.74-.38,5.61-.41,8.42,12.58-.05,24.98-2.64,37.57-2.8-.06,1.51-.11,3.02-.14,4.56-10.65,2.22-21.6,1.68-32.33,3.32-1.54.47-4.01.28-4.35,2.35-.68,2.94,0,5.98.22,8.95,5.56-.05,11.1-.55,16.56-1.71,6.24-1.3,12.65-1.27,18.98-.84-.09.61-.24,1.86-.33,2.48-11.03,4.8-23.28,2.99-34.81,5.44-1.33,11.69-.38,23.46-.86,35.19.34,21.84.4,43.69.4,65.53.17,18.47-.44,36.98.98,55.4h-3.55c.04-.97.06-1.93.04-2.9-.27-36.93.6-73.88-.79-110.8-.32-13.65.32-27.32-.32-40.97-2.63-.34-5.28-.54-7.92-.59v-4.64ZM403.84,578.34c1.16.05,2.33-.04,3.45-.2,1.66-1.95,1.36-4.72,1.52-7.1-.07-6.5-.12-12.99.03-19.49-.11-2.47.17-5.12-.92-7.4-1.27-.65-2.66-.84-4.07-.87v-7.58c1.42.02,2.83.06,4.25.12,1.89-13.82,1.18-27.78,1.28-41.68-.11-4.04,1.04-7.93,2.74-11.53.13.67.22,1.35.33,2.02v132.75c-1.59-.02-3.17-.03-4.75-.03-.47-8.98,2.11-18.07.04-26.94-.44-2.3-1.98-3.28-3.89-3.73v-8.35ZM393.69,535.12c.17-.04.33-.08.5-.12-.17-7.43-.75-14.89-.08-22.31.64-6.88-.33-14.13,2.71-20.57,2.4,7.94,1.11,16.29.96,24.44-.44,6.38.07,12.76.54,19.13.91-.01,1.83,0,2.74,0v7.67c-.84.04-1.67.07-2.48.04-1.1,8.54-1.29,17.14-2.11,25.71-.04,2.49-.54,5.64,1.7,7.38.87.68,1.86,1.13,2.9,1.42v8.43c-1.59-.08-3.19-.06-4.48-.26-.37,8.75.38,17.64-1.65,26.24-.86-1.74-1.81-3.5-2.28-5.39h1.04v-71.81ZM337.08,931.13c16.11-3.55,32.81-2.49,49.04-5.35.83-4.32.96-8.72,1-13.11-12.79-.6-25.49,1.29-38.15,2.82-4.66.62-9.39.34-14-.42,1.51-2.1,2.94-4.7,5.74-5.1,15.17-3.58,31.22-.89,46.22-5.55.29-4.76.41-9.51.19-14.27-13.79.09-27.36,2.79-41.06,4.02-2.98.18-6.02.53-8.95-.12-.88-1.26-1.55-2.66-2.27-4.01,16.56-5.01,34.11-3.4,50.97-6.57,1.47-5.24,2.21-10.64,1.68-16.07-17.3.02-34.35,4.28-51.65,3.73-.13-1.46-.26-2.9-.38-4.33,5.68-1.33,11.42-2.39,17.25-2.74,9.96-.7,19.89-1.78,29.8-2.94,1.68-.53,4.56-.06,4.72-2.48.96-4.51.26-9.17.15-13.73-14.83-.1-29.53,2.31-44.29,3.42-3.15.13-6.3-.1-9.43-.25-.02-1.33-.03-2.66-.03-3.98,7.7-2.49,15.82-2.28,23.76-3.2,10.14-1.14,20.4-1.35,30.38-3.64.35-6.01.36-12.03-.09-18.03-9.19.59-18.25,2.5-27.44,3.21-8.73.62-17.45,2.51-26.22,1.36.43-1.37.82-2.74,1.35-4.05,1.62-1.27,3.79-1.37,5.74-1.72,10.86-1.23,21.74-2.38,32.64-3.26,4.65-.34,9.22-1.27,13.8-2.16,1.07-6.14,1.38-12.36,1.12-18.58-17.74-.88-35.09,6.22-52.86,3.26,1.22-1.73,2.19-4.12,4.56-4.41,6.51-1.57,13.25-1.63,19.88-2.51,9.15-1.23,18.36-1.85,27.5-3.17,1.45-6.44,1.71-13.05,1.19-19.61-9.64.22-19.16,1.83-28.76,2.65-7.42.63-15.43,3.11-22.31-1.09,14.2-7.33,30.68-4.69,45.93-7.27,1.64-.36,3.37-.79,4.71-1.89,2.1-5.96,1.49-12.45,1.55-18.66-14.18-.34-28.12,3.27-42.27,3.13-2.7.27-3.96-2.31-5.37-4.11,9.66-2.46,19.64-3,29.5-4.05,5.29-.63,10.84-.39,15.87-2.38,1.65-.42,1.53-2.32,1.83-3.67.7-5.5.38-11.08.35-16.61-11.57,0-22.96,2.35-34.46,3.36-2.55.13-5.05-.59-7.53-1.04.04-.75.12-2.26.17-3,13.28-4.95,27.75-3.22,41.48-5.84.61-7.11.98-14.23.57-21.34-11.67-1.67-23.15,4.05-34.72.97,1-1.86,1.89-4.26,4.3-4.5,10.06-2.1,20.49-1.7,30.51-4.2.6-6.02,2.02-12.22.45-18.19-.57-2.99-4.03-2.69-6.32-2.84-7.85.14-15.61,1.77-23.48,1.72.21-1.92.41-3.81.63-5.7,6.87-1.55,13.89-1.92,20.9-1.92,4.3.26,7.44-2.99,10.31-5.73,1.9,1.37,3.74,2.97,6.03,3.66.75.08,1.5.07,2.25.02v5.69c-2.34.18-4.68.54-6.98.78-.74,7.48-.84,15-.09,22.48,2.32-.18,4.73-.14,7.07-.4v5.93c-2.57.32-5.13.77-7.67,1.34-.53,7.12-.73,14.25-.25,21.37,2.64-.02,5.28-.15,7.91-.39v6.15c-2.62.4-5.2,1.11-7.68,2.16-.92,6.32-.92,12.74,0,19.07,2.53.2,5.13.38,7.68.2v5.76c-2.63.2-5.24.62-7.82,1.23-.87,6.66-.71,13.38.14,20.04,2.57-.12,5.13-.4,7.67-.81v6.15c-2.7.26-5.38.61-8.05,1.11-1.13,6.51-1.31,13.11-.81,19.7,2.96-.09,5.91-.28,8.86-.53v5.91c-2.82.17-5.62.56-8.27,1.63-2.46,5.54-.9,11.88-.91,17.76,2.97.02,6.14.49,9.18.36v5.71c-2.25.03-4.49.26-6.65.99-1,.48-2.53.74-2.79,2.03-1.57,5.29-.27,10.85.38,16.19,3.03-.01,6.05-.23,9.06-.6v5.82c-3.2.29-6.39.63-9.58,1.02-.84,5.57-1.21,11.19-1.11,16.82,3.56.3,7.13.23,10.69-.07v5.42c-3.27.2-6.52.54-9.76,1.02-.81,5.63-.95,11.35-.26,17.01,3.31-.19,6.72-.14,10.02-.65v5.99c-3.21-.28-6.6.4-9.77.5-.74,5.21-1.12,10.47-1.15,15.74,3.65.08,7.3-.12,10.92-.55v5.87c-3.49.03-6.97.38-10.41.94-.42,4.54-1.62,9.24-.32,13.75,3.5,1.18,7.14.58,10.73-.1v5.9c-3.59.02-7.17.28-10.73.72-.53,4.35-.68,8.74-.43,13.13,3.72,0,7.45-.19,11.16-.59v5.7c-3.58.04-7.16.29-10.72.73-.45,4.47-.59,8.98-.36,13.5,3.72-.11,7.42-.58,11.08-1.22v5.08c-3.95.22-7.86.94-11.62,2.21.37,17.81-.58,35.6-.79,53.4-.15,7.58-1.68,15.5.98,22.83,4.13,1.95,8.7.05,12.92-.54,1.7-8.55,1.59-17.28,1.07-25.93-3-.87-5.98-1.82-8.95-2.8,2.3-1.08,4.57-2.24,6.72-3.61,3.59-1.65,3.18-6.43,2.45-9.66v-9.07c.82-2.65.78-5.5,1.1-8.23-.37-.05-.74-.12-1.1-.17v-6.48c.08-.02.16-.03.24-.05.06-3.35,0-6.71-.24-10.05v-7.44c.15-.03.3-.05.45-.08.39-4.12.71-8.25.96-12.37-.47-.02-.94,0-1.41-.02v-6.07c.19-.03.37-.04.56-.07.56-4.24.89-8.5,1.04-12.75-.53-.03-1.06-.03-1.59-.04v-6.46c.48-.08.96-.16,1.44-.22.77-4.6.62-9.28-.6-13.78-.28-.02-.56-.02-.84-.03v-6.32c.53-.08,1.07-.15,1.6-.25.33-4.54,1.83-9.42.11-13.79-.56-.3-1.13-.53-1.71-.72v-7.11c.56-.16,1.11-.33,1.65-.54,1.79-5.31.8-11.01.62-16.47-.76.01-1.52.05-2.27.07v-5.56c.42-.05.84-.1,1.27-.15.76-2.42,1.61-4.81,2.14-7.3.81-3.5-.27-7.02-.75-10.47-.89.06-1.77.13-2.66.2v-5.97c1.09-.18,2.17-.36,3.25-.59.73-5.8.92-11.63.43-17.44-1.22-.04-2.45-.1-3.69-.15v-6.08c1.18-.24,2.32-.63,3.42-1.24,1.76-5.98,1.14-12.32,1.12-18.47-1.5.08-3.02.11-4.54.16v-6.04c1.35-.13,2.71-.28,4.06-.43.83-6.67,1.19-13.38,1.04-20.1-1.7.06-3.4.16-5.1.28v-6.44c1.64-.33,3.28-.71,4.89-1.14.41-6.24.42-12.5.11-18.74-1.67-.16-3.34-.21-5-.18v-6c1.55-.3,3.06-.8,4.5-1.56,2.27-6.33.84-13.21.6-19.74-1.71-.15-3.41-.16-5.1-.05v-6.17c1.66-.2,3.31-.42,4.96-.71.73-7.28,1.06-14.61.38-21.9-1.79.03-3.57.15-5.35.31v-6.14c.94-.24,1.86-.56,2.74-1.01,2.19-1.02,2.13-3.87,2.53-5.92.36-4.95,1.02-10.13-.45-14.95-1.6-.42-3.21-.57-4.83-.59v-6.02c1.37-.28,2.74-.63,4.1-.9.51-4.03,1.33-7.98,2.32-11.91.69,2.78,1.13,5.73,2.18,8.42v12.81c-1.73,5.84-.83,12.17-1.02,18.21.34.02.68.02,1.02.04v7.6c-.05.01-.1.02-.15.03-.81,5.63-.66,11.29.15,16.89v13.94c-1.47,5.03-.81,10.51,0,15.72v9.07c-.25.06-.51.11-.76.18-.38,5.97-.48,11.99.76,17.86v9.3c-.2.08-.41.15-.61.23-.34,5.41-.31,10.86.61,16.21v8.59c-.31.04-.62.06-.93.1-.51,6.44-.6,12.9-.05,19.35.33-.01.65-.05.98-.07v6.38c-.45.04-.91.06-1.36.11-.43,6.03-.47,12.09-.02,18.12.46-.04.92-.08,1.38-.12v6.3c-.66.11-1.32.2-1.97.26-.26,4.89-1.72,10.16.36,14.82.45.53,1,.96,1.6,1.3v6.96c-.9.15-1.81.3-2.71.48-.3,5.4-.4,10.81-.17,16.23.96-.05,1.92-.12,2.88-.2v5.89c-.81.2-1.6.49-2.37.89-1.63,4.91-.37,10.14.03,15.16.78-.04,1.56-.1,2.34-.17v6.33c-1.05.21-2.09.42-3.14.64-.36,4.18-.51,8.38-.3,12.58,1.15.05,2.29.08,3.44.1v6.65c-.73.23-1.43.55-2.1.97-3.18,3.39-1.57,8.41-1.19,12.53,1.07-.09,2.17-.1,3.29-.11v5.92c-.98.28-1.93.67-2.82,1.23-2.2,3.46-1.56,7.77-1.71,11.69,1.51.04,3.02.05,4.53.04v5.32c-1.61.23-3.21.51-4.75.62.04,2.8-.13,5.63.32,8.42.33,1.4,1,3.1,2.65,3.27.58.12,1.18.2,1.79.27v4.9c-1.55.2-3.1.44-4.64.73-.13,3.96-.23,7.92-.25,11.89,1.6-.12,3.24-.15,4.89-.22v4.54c-1.65.26-3.29.55-4.92.88,0,3.57-.05,7.14-.14,10.72,1.69.18,3.38.24,5.07.22v4.9c-1.69.19-3.38.44-5.05.64,0,3.8.1,7.6.29,11.42,1.59,0,3.18-.09,4.76-.22v4.02c-1.77.14-3.53.29-5.3.47-.16,3.84.24,7.69,1.06,11.46,1.42-.07,2.83-.2,4.24-.35v3.64c-1.52.24-3,.68-4.34,1.34-2.36,2.99-1.69,7.12-1.99,10.71,2.11.02,4.22-.03,6.33-.12v4.52c-1.93.03-3.85.13-5.77.3-.93,5.26-1.19,10.6-1.19,15.95-.72,24.95.35,49.93-1.01,74.86-.44,16.17.07,32.35-.41,48.51-.14,5.22-.03,10.43.23,15.64h-3.07c.32-6.78.1-13.6.29-20.4.47-15.61.11-31.22.49-46.84,1.3-34.18.6-68.39,1.07-102.59-4.68-1.11-9.46-1.79-14.27-2.05-1.48,9.26-1.19,18.65-1.78,28,0,11.67-1.12,23.32-.98,35,0,15.24-1.02,30.46-.87,45.7.14,14.27-.76,28.51-.68,42.79.08,6.8-.08,13.6-.3,20.4h-3.61c.73-24.64.74-49.3,1.54-73.94,1.59-23.42,1.16-46.9,1.84-70.34.67-13.49.72-26.99.8-40.49.59-15.54,1.09-31.09.9-46.64-.18-5.97.82-11.98,0-17.91-1.49-1.5-3.35-2.52-5.1-3.65,4.64-3.14,7.37-8.64,5.88-14.31-3.63-2.33-8.04-2.83-12.05-4.23,3.74-1.75,7.78-2.94,11.23-5.28,1.31-3.08,1.32-6.63.67-9.87-1.75-1.8-4.46-1.49-6.73-1.53-10.03.49-19.9,2.52-29.79,4.1-3.57.44-7.26,1.17-10.83.39-1.66-1.33-1.28-3.86-1.86-5.72ZM394.33,984.36c1.56-2.46,4.08-3.51,6.72-4.2v5.42c-2.25-.37-4.49-.76-6.72-1.22ZM401.06,997.33v4.6c-1.66-.76-3.41-1.35-5.13-1.95,1.72-.81,3.53-1.59,5.13-2.66ZM468.27,1287.13c-4.23,5.29-11.01,8.28-17.73,7.76-11.19-.73-22.35-2.27-33.59-2.06-15.12.18-30.32-.68-45.3,1.77-7.16,1.09-15.1,2.74-21.73-1.14-8.83-4.67-13.08-17.18-7.54-25.92,2.94-5.26,9.22-6.55,14.52-7.98.54-7.17.05-14.32-.47-21.46.17-1.85-.57-4.57,1.36-5.63,6.74-1.71,13.89.59,20.58-1.4,2.03-.56,1.82-2.95,2.02-4.59.06-1.6.1-3.19.15-4.79h3.61c-.1,2.86-.2,5.72-.29,8.58,5.48.88,11.02.59,16.49-.33.42-2.74.67-5.49.83-8.25h3.19c.15,2.73.33,5.45.57,8.17,5.97.21,11.96.22,17.94.11.32-2.75.71-5.51.9-8.28h3.7c.1,1.26.22,2.51.34,3.77.2,1.41.4,2.97,1.39,4.1,6.82.73,13.74-2.01,20.5-.23,2,4.21,1.11,9.09,1.22,13.61-.12,4.66-.03,9.33,0,14,6.31.7,13.92.48,18.34,5.92,5.79,6.88,4.67,17.66-.99,24.27Z"/>
  </g>
  <g id="_图层_2" data-name="图层_2">
    <g class="cls-7">
      <path class="cls-8" d="M332.43,701.58C125.92,638.13,53.73,383.53,201.95,224.42c44.79-48.09,105.62-80.49,170.34-91.64,0,0,.24,1.46.24,1.46-131.04,19.92-238.53,134.36-246.02,267.34-8.91,116.04,57.32,228.44,161.08,280.05,14.55,7.4,29.7,13.61,45.28,18.54,0,0-.44,1.41-.44,1.41h0Z"/>
    </g>
    <g class="cls-7">
      <path class="cls-8" d="M485.56,135.02c217.98,45.01,312.34,302.87,167.44,474.26-21.81,25.65-48.06,47.44-77.09,64.47-29.01,17.07-60.93,29.06-93.92,35.79l-.29-1.45c134.74-24.65,239.22-146.72,238.43-284.36,1.49-119.22-76.12-229.94-186.85-272.7-15.56-6.18-31.64-11.05-48.03-14.56,0,0,.3-1.45.3-1.45h0Z"/>
    </g>
    <path class="cls-6" d="M337.49,685.01c-77.79-31.05-132.76-107.08-132.76-195.96,0-72.62,36.7-136.67,92.57-174.61"/>
    <path class="cls-6" d="M554.62,330.42c44.09,38.66,71.92,95.4,71.92,158.64,0,94.57-62.25,174.61-148.01,201.37"/>
    <path class="cls-6" d="M508.78,299.78c.32.16.64.31.95.47"/>
    <path class="cls-6" d="M470.55,285.37c13.31,3.58,26.1,8.43,38.23,14.41"/>
    <path class="cls-6" d="M469.46,285.08c.36.1.73.19,1.09.29"/>
    <path class="cls-6" d="M428.14,278.51c4.17.24,8.31.61,12.41,1.09"/>
    <g class="cls-7">
      <path class="cls-8" d="M329.25,718.08C110.52,653.56,32.65,384.92,190.22,217.57c47.51-50.43,111.97-84.05,180.32-95.02,0,0,.21,1.36.21,1.36-68.18,10.35-132.51,44.16-179.59,94.55-97.97,102.05-109.25,265.62-26.41,380.23,39.85,56.21,98.92,98.23,164.89,118.06,0,0-.39,1.32-.39,1.32h0Z"/>
    </g>
    <g class="cls-7">
      <path class="cls-8" d="M486.1,125.42c226.25,46.68,326.16,313.34,177.2,492.85-44.85,53.9-108.22,91.6-176.74,106.19,0,0-.28-1.35-.28-1.35,68.37-13.95,131.6-51.84,176.02-105.67,119.3-142.68,79.62-358.29-79.65-452.55-29.9-17.89-62.73-30.88-96.83-38.11,0,0,.28-1.35.28-1.35h0Z"/>
    </g>
    <g class="cls-7">
      <path class="cls-8" d="M317.5,758.2c-146.68-42.12-252.93-177.49-252.37-331.04-.73-178.97,141.36-327.88,318.15-344.07,0,0,.52,5.48.52,5.48-39.21,3.85-77.77,14.19-113.54,30.68-120.53,54.56-201.95,178.76-199.45,311.6.32,106.34,55.78,209.53,142.46,270.65,32.02,22.93,67.94,40.39,105.76,51.41,0,0-1.54,5.29-1.54,5.29h0Z"/>
    </g>
    <g class="cls-7">
      <path class="cls-8" d="M479.74,86.71c315.34,58.24,399.27,458.19,127.1,632.1-33.8,21.05-71.18,36.3-110.04,44.95l-1.2-5.37c38.26-8.53,75.05-23.56,108.32-44.28,221.16-138.1,212.69-456.19-14.77-583.01-34.24-19.05-71.72-32.25-110.34-38.96,0,0,.94-5.42.94-5.42h0Z"/>
    </g>
    <circle class="cls-6" cx="560.12" cy="718.28" r="16.15"/>
    <ellipse class="cls-6" cx="529.24" cy="730.65" rx="15.43" ry="16.13"/>
    <ellipse class="cls-6" cx="560.12" cy="718.28" rx="14.11" ry="14.68"/>
    <ellipse class="cls-6" cx="589.54" cy="703.6" rx="15.43" ry="16.13"/>
    <path class="cls-6" d="M486.72,729.13c2.83-3.41,7-5.56,11.66-5.56,8.52,0,15.43,7.22,15.43,16.13s-6.91,16.13-15.43,16.13"/>
    <ellipse class="cls-6" cx="719.49" cy="560.3" rx="15.43" ry="16.13"/>
    <ellipse class="cls-6" cx="529.24" cy="730.65" rx="14.11" ry="14.68"/>
    <path class="cls-6" d="M488.41,729.32c2.55-2.66,6.08-4.3,9.97-4.3,7.79,0,14.11,6.57,14.11,14.68s-6.32,14.68-14.11,14.68c-1.13,0-2.23-.14-3.28-.4"/>
    <path class="cls-6" d="M495.1,753.98c-.69-.17-1.36-.39-2.01-.67"/>
    <ellipse class="cls-6" cx="641.97" cy="665.21" rx="14.11" ry="14.68"/>
    <ellipse class="cls-6" cx="664.8" cy="641.85" rx="14.11" ry="14.68"/>
    <ellipse class="cls-6" cx="589.54" cy="703.6" rx="14.11" ry="14.68"/>
    <ellipse class="cls-6" cx="704.06" cy="589.76" rx="15.43" ry="16.13"/>
    <ellipse class="cls-6" cx="685.86" cy="616.76" rx="15.43" ry="16.13"/>
    <ellipse class="cls-6" cx="664.8" cy="641.85" rx="15.43" ry="16.13"/>
    <ellipse class="cls-6" cx="641.97" cy="665.21" rx="15.43" ry="16.13"/>
    <ellipse class="cls-6" cx="719.49" cy="560.3" rx="14.11" ry="14.68"/>
    <ellipse class="cls-6" cx="704.06" cy="589.76" rx="14.11" ry="14.68"/>
    <ellipse class="cls-6" cx="685.86" cy="616.76" rx="14.11" ry="14.68"/>
    <ellipse class="cls-6" cx="748.82" cy="430.1" rx="15.43" ry="16.13"/>
    <ellipse class="cls-6" cx="746.68" cy="463.57" rx="15.43" ry="16.13"/>
    <ellipse class="cls-6" cx="741.01" cy="497.03" rx="15.43" ry="16.13"/>
    <ellipse class="cls-6" cx="731.25" cy="529.4" rx="15.43" ry="16.13"/>
    <ellipse class="cls-6" cx="615.59" cy="684.74" rx="15.43" ry="16.13"/>
    <ellipse class="cls-6" cx="747.49" cy="396.64" rx="14.11" ry="14.68"/>
    <ellipse class="cls-6" cx="743.1" cy="363.17" rx="14.11" ry="14.68"/>
    <ellipse class="cls-6" cx="748.82" cy="430.1" rx="14.11" ry="14.68"/>
    <ellipse class="cls-6" cx="746.68" cy="463.57" rx="14.11" ry="14.68"/>
    <ellipse class="cls-6" cx="741.01" cy="497.03" rx="14.11" ry="14.68"/>
    <ellipse class="cls-6" cx="731.25" cy="529.4" rx="14.11" ry="14.68"/>
    <ellipse class="cls-6" cx="615.59" cy="684.74" rx="14.11" ry="14.68"/>
    <ellipse class="cls-6" cx="671.5" cy="217.31" rx="15.43" ry="16.13"/>
    <ellipse class="cls-6" cx="690.84" cy="241.06" rx="15.43" ry="16.13"/>
    <ellipse class="cls-6" cx="707.96" cy="269.21" rx="15.43" ry="16.13"/>
    <ellipse class="cls-6" cx="723.4" cy="298.64" rx="15.43" ry="16.13"/>
    <ellipse class="cls-6" cx="734.71" cy="330.9" rx="15.43" ry="16.13"/>
    <ellipse class="cls-6" cx="743.1" cy="363.17" rx="15.43" ry="16.13"/>
    <ellipse class="cls-6" cx="747.49" cy="396.64" rx="15.43" ry="16.13"/>
    <ellipse class="cls-6" cx="707.96" cy="269.21" rx="14.11" ry="14.68"/>
    <ellipse class="cls-6" cx="723.4" cy="298.64" rx="14.11" ry="14.68"/>
    <ellipse class="cls-6" cx="734.71" cy="330.9" rx="14.11" ry="14.68"/>
    <ellipse class="cls-6" cx="648.14" cy="193.76" rx="14.11" ry="14.68"/>
    <ellipse class="cls-6" cx="671.5" cy="217.31" rx="14.11" ry="14.68"/>
    <ellipse class="cls-6" cx="690.84" cy="241.06" rx="14.11" ry="14.68"/>
    <ellipse class="cls-6" cx="569.06" cy="137.22" rx="15.43" ry="16.13"/>
    <ellipse class="cls-6" cx="596.82" cy="153.36" rx="15.43" ry="16.13"/>
    <ellipse class="cls-6" cx="623.44" cy="171.93" rx="15.43" ry="16.13"/>
    <ellipse class="cls-6" cx="648.14" cy="193.76" rx="15.43" ry="16.13"/>
    <path class="cls-6" d="M478.58,92.05c8.19.39,14.72,7.46,14.72,16.12,0,6.25-3.4,11.67-8.37,14.35"/>
    <ellipse class="cls-6" cx="508.74" cy="114.29" rx="15.43" ry="16.13"/>
    <ellipse class="cls-6" cx="538.61" cy="125.21" rx="15.43" ry="16.13"/>
    <ellipse class="cls-6" cx="569.06" cy="137.22" rx="14.11" ry="14.68"/>
    <ellipse class="cls-6" cx="596.82" cy="153.36" rx="14.11" ry="14.68"/>
    <ellipse class="cls-6" cx="623.44" cy="171.93" rx="14.11" ry="14.68"/>
    <ellipse class="cls-6" cx="508.74" cy="114.29" rx="14.11" ry="14.68"/>
    <ellipse class="cls-6" cx="538.61" cy="125.21" rx="14.11" ry="14.68"/>
    <path class="cls-6" d="M371.37,117.22c-3.31-2.96-5.4-7.36-5.4-12.26,0-8.91,6.91-16.13,15.43-16.13"/>
    <path class="cls-6" d="M371.72,115.64c-2.73-2.68-4.43-6.47-4.43-10.68,0-8.11,6.32-14.68,14.11-14.68"/>
    <ellipse class="cls-6" cx="111.92" cy="309.12" rx="15.43" ry="16.13"/>
    <ellipse class="cls-6" cx="124.61" cy="278.78" rx="15.43" ry="16.13"/>
    <ellipse class="cls-6" cx="141.46" cy="250.44" rx="15.43" ry="16.13"/>
    <ellipse class="cls-6" cx="161.57" cy="224.21" rx="15.43" ry="16.13"/>
    <ellipse class="cls-6" cx="288.81" cy="127.89" rx="15.43" ry="16.13"/>
    <ellipse class="cls-6" cx="319.67" cy="117.79" rx="15.43" ry="16.13"/>
    <ellipse class="cls-6" cx="350.53" cy="109.07" rx="15.43" ry="16.13"/>
    <ellipse class="cls-6" cx="260.76" cy="142.57" rx="14.11" ry="14.68"/>
    <ellipse class="cls-6" cx="288.81" cy="127.89" rx="14.11" ry="14.68"/>
    <ellipse class="cls-6" cx="319.67" cy="117.79" rx="14.11" ry="14.68"/>
    <ellipse class="cls-6" cx="350.53" cy="109.07" rx="14.11" ry="14.68"/>
    <ellipse class="cls-6" cx="183.97" cy="199.89" rx="15.43" ry="16.13"/>
    <ellipse class="cls-6" cx="207.71" cy="177.44" rx="15.43" ry="16.13"/>
    <ellipse class="cls-6" cx="233.18" cy="158.7" rx="15.43" ry="16.13"/>
    <ellipse class="cls-6" cx="260.76" cy="142.57" rx="15.43" ry="16.13"/>
    <ellipse class="cls-6" cx="141.46" cy="250.44" rx="14.11" ry="14.68"/>
    <ellipse class="cls-6" cx="161.57" cy="224.21" rx="14.11" ry="14.68"/>
    <ellipse class="cls-6" cx="183.97" cy="199.89" rx="14.11" ry="14.68"/>
    <ellipse class="cls-6" cx="207.71" cy="177.44" rx="14.11" ry="14.68"/>
    <ellipse class="cls-6" cx="233.18" cy="158.7" rx="14.11" ry="14.68"/>
    <ellipse class="cls-6" cx="93.75" cy="373.18" rx="14.11" ry="14.68"/>
    <ellipse class="cls-6" cx="101.25" cy="340.91" rx="14.11" ry="14.68"/>
    <ellipse class="cls-6" cx="111.92" cy="309.12" rx="14.11" ry="14.68"/>
    <ellipse class="cls-6" cx="124.61" cy="278.78" rx="14.11" ry="14.68"/>
    <ellipse class="cls-6" cx="107.85" cy="533.46" rx="15.43" ry="16.13"/>
    <ellipse class="cls-6" cx="98.57" cy="502.24" rx="15.43" ry="16.13"/>
    <ellipse class="cls-6" cx="92.67" cy="469.98" rx="15.43" ry="16.13"/>
    <ellipse class="cls-6" cx="89.37" cy="437.71" rx="15.43" ry="16.13"/>
    <ellipse class="cls-6" cx="90.91" cy="405.45" rx="15.43" ry="16.13"/>
    <ellipse class="cls-6" cx="93.75" cy="373.18" rx="15.43" ry="16.13"/>
    <ellipse class="cls-6" cx="101.25" cy="340.91" rx="15.43" ry="16.13"/>
    <ellipse class="cls-6" cx="155.25" cy="618.48" rx="14.11" ry="14.68"/>
    <ellipse class="cls-6" cx="136.48" cy="592.25" rx="14.11" ry="14.68"/>
    <ellipse class="cls-6" cx="119.63" cy="564.28" rx="14.11" ry="14.68"/>
    <ellipse class="cls-6" cx="107.85" cy="533.46" rx="14.11" ry="14.68"/>
    <ellipse class="cls-6" cx="98.57" cy="502.24" rx="14.11" ry="14.68"/>
    <ellipse class="cls-6" cx="92.67" cy="469.98" rx="14.11" ry="14.68"/>
    <ellipse class="cls-6" cx="89.37" cy="437.71" rx="14.11" ry="14.68"/>
    <ellipse class="cls-6" cx="90.91" cy="405.45" rx="14.11" ry="14.68"/>
    <ellipse class="cls-6" cx="199.11" cy="665.97" rx="15.43" ry="16.13"/>
    <ellipse class="cls-6" cx="175.16" cy="644.14" rx="15.43" ry="16.13"/>
    <ellipse class="cls-6" cx="155.25" cy="618.48" rx="15.43" ry="16.13"/>
    <ellipse class="cls-6" cx="136.48" cy="592.25" rx="15.43" ry="16.13"/>
    <ellipse class="cls-6" cx="119.63" cy="564.28" rx="15.43" ry="16.13"/>
    <ellipse class="cls-6" cx="223.99" cy="685.5" rx="14.11" ry="14.68"/>
    <ellipse class="cls-6" cx="199.11" cy="665.97" rx="14.11" ry="14.68"/>
    <ellipse class="cls-6" cx="175.16" cy="644.14" rx="14.11" ry="14.68"/>
    <ellipse class="cls-6" cx="307.67" cy="730.6" rx="15.43" ry="16.13"/>
    <ellipse class="cls-6" cx="278.57" cy="717.77" rx="15.43" ry="16.13"/>
    <ellipse class="cls-6" cx="250.8" cy="702.74" rx="15.43" ry="16.13"/>
    <ellipse class="cls-6" cx="223.99" cy="685.5" rx="15.43" ry="16.13"/>
    <ellipse class="cls-6" cx="307.67" cy="730.6" rx="14.11" ry="14.68"/>
    <ellipse class="cls-6" cx="278.57" cy="717.77" rx="14.11" ry="14.68"/>
    <ellipse class="cls-6" cx="250.8" cy="702.74" rx="14.11" ry="14.68"/>
    <g class="cls-7">
      <path class="cls-8" d="M305.8,803.21C91.77,738.62-28.22,513.18,36.99,299.46,137.63-19.97,557.27-86.18,751,187.13c68.38,96.22,90.2,223.37,58.55,337.02-37.5,140.89-156.7,254.93-299.1,286.24,0,0-.32-1.44-.32-1.44,23.49-5.27,46.5-12.68,68.66-22.1,111.32-46.77,198.46-146.31,229.65-263,31.36-113.3,9.46-239.96-58.84-335.73C556.35-83.47,139.89-17.27,39.36,300.19-.13,428.54,27.51,570.41,113.71,673.61c49.87,60.31,117.57,105.51,192.52,128.18,0,0-.43,1.42-.43,1.42h0Z"/>
    </g>
    <g class="cls-7">
      <path class="cls-8" d="M299.23,822.9C93.42,760.64-32.15,554.41,7.19,343,38.81,168.22,183.05,29.57,358.86,4.49c180.68-26.56,358.16,66.47,438.78,230.43,119.28,242.07-19.66,534.01-282.33,595.04,0,0-.33-1.44-.33-1.44,24.5-5.63,48.48-13.49,71.57-23.44,276.37-119.39,340.09-484.03,120.21-689.8C613.63,27.79,485.49-11.82,359.19,6.78,181.12,32.41,36.24,175.07,7.93,352.72c-16.83,102.97,5.23,209.87,62.75,297.05,25.75,39.39,58.39,74.34,95.63,103.1,39.86,30.6,85.26,53.93,133.35,68.6l-.43,1.42h0Z"/>
    </g>
    <ellipse class="cls-6" cx="183.68" cy="825.42" rx="45.96" ry="47.97"/>
    <ellipse class="cls-6" cx="611.44" cy="849.97" rx="45.96" ry="47.97"/>
    <ellipse class="cls-6" cx="743.89" cy="761.08" rx="45.96" ry="47.97"/>
    <ellipse class="cls-10" cx="52.61" cy="713.94" rx="45.96" ry="47.97"/>
  </g>
</svg>