<svg id="图层_1" data-name="图层 1" xmlns="http://www.w3.org/2000/svg" xmlns:xlink="http://www.w3.org/1999/xlink" viewBox="0 0 743.92 844.5"><defs><style>.cls-1,.cls-11,.cls-12,.cls-14,.cls-2,.cls-3,.cls-4,.cls-5,.cls-6,.cls-7,.cls-8,.cls-9{font-size:24px;font-family:KingHwa_OldSong;}.cls-1{fill:#e0af84;}.cls-2{fill:#e0b084;}.cls-3{fill:#dfae82;}.cls-4{fill:#e1b084;}.cls-5{fill:#e1b085;}.cls-6{fill:#d39c73;}.cls-7{fill:#c99f7d;}.cls-8{fill:#c79b79;}.cls-9{fill:#cba380;}.cls-10{fill:none;}.cls-11,.cls-12,.cls-13{fill:#e37300;stroke:#b5620f;stroke-miterlimit:10;}.cls-12{writing-mode:tb;text-orientation:sideways-right;glyph-orientation-vertical:90deg;}.cls-14{fill:#fff;}.cls-15{fill:url(#未命名的渐变_3);}</style><linearGradient id="未命名的渐变_3" x1="434.91" y1="1357.34" x2="434.91" y2="610.59" gradientTransform="translate(0 -194.71)" gradientUnits="userSpaceOnUse"><stop offset="0" stop-color="#f6b542" stop-opacity="0.3"/><stop offset="1" stop-color="#956134"/></linearGradient></defs><text class="cls-1" transform="translate(432.42 593.5)">—————— 面板</text><text class="cls-2" transform="translate(440.85 714.46)">—————— 琴弦</text><text class="cls-3" transform="translate(390.54 493.3)">—————— 背板</text><text class="cls-4" transform="translate(0 737.55)">覆手 ——————</text><text class="cls-5" transform="translate(30.19 626.81)">品 ——————</text><text class="cls-6" transform="translate(101.66 359.06)">相 ——————</text><text class="cls-7" transform="translate(91.53 250.78)">山口 ——————</text><text class="cls-8" transform="translate(428.6 219.16)">—————— 琴轴</text><text class="cls-9" transform="translate(378.41 101.42)">—————— 琴头</text><line class="cls-10" x1="731.19" y1="827.03" x2="386.48" y2="827.14"/><text class="cls-11" transform="translate(347.21 838.48)">————————————————</text><text class="cls-12" transform="translate(731.42 13.42) scale(1 2.13)">————————————————</text><text class="cls-11" transform="translate(436.36 395.63) scale(0.77 1)">————————————————</text><text class="cls-11" transform="translate(451.58 20.89) scale(0.73 1)">————————————————</text><circle class="cls-13" cx="691.14" cy="47.44" r="23.46"/><circle class="cls-13" cx="691.14" cy="423.75" r="23.46"/><circle class="cls-13" cx="691.14" cy="800.06" r="23.46"/><text class="cls-14" transform="translate(682.93 51.21)">头</text><text class="cls-14" transform="translate(606.68 491.37)">头</text><text class="cls-14" transform="translate(680.15 430.16)">颈</text><text class="cls-14" transform="translate(681.35 805.66)">腹</text><path class="cls-15" d="M516.67,1025.65c-1.11-11.26-2.06-22.56-3.92-33.67-1.51-11.17-3.71-22.16-5.86-33.15-6.63-33.74-15.23-66.78-23.09-100.08-2.11-8.64-3.87-17.41-6.16-26-2.05-8.14-3.33-16.54-5.25-24.73-.89-4.42-1.78-8.83-2.88-13.17-2.69-13.6-5.34-27.23-7.49-41-1.46-7.22-2-14.63-3.15-21.93-.79-5.31-1.16-10.71-2.13-16-4.51.11-8.95,1.17-13.42,1.74-.25,5.34.1,10.69-.11,16,.12,1-.59,1.67-1.32,1.48-.8-5.64.24-11.41-.72-17.05l-3-.61v-3.79a14.72,14.72,0,0,0,3-.31,97.33,97.33,0,0,0-.32-20.12c-.89.19-1.79.36-2.69.52v-4.68a1.3,1.3,0,0,0,1.37.65c1.15.19,1.42-1.59,1.63-2.63.9-6.14.08-12.38.06-18.55-.17-23.32,0-46.66-.12-70-.24-8.56-.42-17.13-.38-25.69a37.46,37.46,0,0,0-.23-5.51c-.35-2-1.64-3.46-2.09-5.41a23.61,23.61,0,0,1,1.94-7.78c1.3-3.5,3.45-6.32,5-9.6,1.47-3,1.76-6.63,3.19-9.62.94-1.91,3.05-1,4.53-1.27a109.8,109.8,0,0,1-7.3,23.57c-1.13,2.73-2.67,5.23-3.3,8.24a43.73,43.73,0,0,0-.3,8.49c.24,9.11-.05,18.23.48,27.33.12,13.67,0,27.34.13,41,0,3.78.6,7.55.31,11.34-.61,6.22-.28,12.48-.3,18.72.45,13.42.21,26.87.38,40.3a34.93,34.93,0,0,0,12.8-1.32c-.06-4.49-.81-8.89-1.2-13.35-.57-6.37-1.14-12.74-1.77-19.1-.71-8.29-1.14-16.61-1.78-24.91-2.05-.06-4.1-.25-6.14-.43,2.07-.58,4.09-1.4,6.15-2q-.21-4.27-.59-8.52c-.48-5.68-.37-11.4-.39-17.1,0-3.39.11-7.12,1.88-9.9a23.85,23.85,0,0,1,5.2-5c0-5.83-.84-11.57-.95-17.39-.12-6.54-.32-13.19,1.08-19.56,10.63.38,21.24,1.48,31.88,2,4.17.24,8.43,1.06,12.56-.13,3-.8,5.26-3.83,6.35-7.27,1.67-5.13-.8-11.65-5-13.32-2.76-1.23-5.7-.36-8.5.05-11.53,1.42-22.75,5.34-34.25,7,1.9-7.82,4-15.55,5.76-23.41,11-.88,22.09-1.34,33.11-2.5,3.8-.44,7.92-.35,11.19-3.16a11.27,11.27,0,0,0,4.27-9.12c0-5.14-3.72-9.29-7.61-10-2.73-.29-5.26,1.33-7.83,2.19-7.47,2.66-14.67,6.32-22.11,9.09a52.1,52.1,0,0,1-9.4,3.32c.73-8.5,1.95-16.93,2.45-25.47.52-5.53.49-11.1.8-16.65.26-6.44.19-12.9-.18-19.32a155.47,155.47,0,0,0-2-22.65,55,55,0,0,0-2.79-10.76,20.16,20.16,0,0,1-1.52-4.93c-.17-2.66.67-5.25.46-7.91-.16-1.53-1.1-3.2-2.44-3.23-2.33,0-4.23,2.1-6.51,2.35-2.18-.53-3.91-2.5-6-3.47-4-2.15-8.65-.61-12.18,2.24-1.27,1-2.44,2.22-3.88,2.81-2.13.22-4.15-1.42-6.3-1a2.94,2.94,0,0,0-2.42,2.48c-.5,3.91.34,8.12-1.13,11.81-1.53,3.91-3.84,7.36-4.76,11.62a44,44,0,0,0-.17,18.38A28.92,28.92,0,0,0,427,480.42a30.57,30.57,0,0,0,12.11,6.86c.84,7.36.45,14.79,0,22.18-4.43-.69-8.75-2.17-13.16-3-7.62-2-15.28-3.9-23-5.41-3.45-.69-7.28-.68-10.25,1.91a11.14,11.14,0,0,0-3.57,9.6,13.93,13.93,0,0,0,4.29,7.71c2.37,2,5.38,1.48,8.08,1.31,12.11-.44,24.17-2.09,36.27-2.67a103.67,103.67,0,0,1-5.38,26.64c-11.58,1.17-23.2,1.58-34.81,2.28-3.41.43-7.08,0-10.2,2.06-2.51,1.86-5,4.69-5.31,8.54-.62,5.43,2.85,11.06,7.28,11.37,5.75.42,11.2-2.4,16.62-4.38,7.59-2.74,15.05-6,22.66-8.63-1.13,2.36-2.3,4.68-3.59,6.91a16.44,16.44,0,0,0-2.32,5.61c-.73,6,1.27,11.84.61,17.8-.55,5.43-2,10.65-2.42,16.1s3.86,9.6,3.41,15.17c-.58,10.95-1.85,21.81-2.74,32.72-.68,7.9-1.75,15.72-2.53,23.6-.52,5.65-1.7,11.19-1.84,16.9a37.12,37.12,0,0,0,6.65-.45v4.37c-2.46.13-4.92.25-7.37.56-.29,6.61-2.4,12.8-2.71,19.4a59.59,59.59,0,0,0,10.08-.33v4.58c-3,.1-5.91.34-8.86.51-.71.21-1.82-.11-2.08,1-.89,2.49-1.05,5.25-1.48,7.91-.88,6.7-2.4,13.23-3.34,19.92-2.25,13.4-5.08,26.64-7.82,39.9-1.16,6-2.71,11.94-3.65,18-1.46,7.73-3.57,15.24-5.17,22.93-4.48,18.11-8.45,36.39-12.78,54.55-8.34,35.46-16.46,71.07-22,107.42-.81,6.77-2.08,13.43-2.61,20.25-.76,6.64-1,13.35-1.56,20-.45,5.46-.21,10.95-.28,16.43-.09,5.1.62,10.15.95,15.22a153.56,153.56,0,0,0,7.46,37,123.92,123.92,0,0,0,10.14,22.26,85.93,85.93,0,0,0,16.37,21,66.88,66.88,0,0,0,19,12.81c8.18,3.55,16.78,6,25.48,5.72a61.45,61.45,0,0,0,26.19-5.36,76.87,76.87,0,0,0,20.9-12.63A74.38,74.38,0,0,0,494.35,1128c8.5-11.07,14.35-24.91,18.28-39.36,2.07-7.54,3-15.43,4-23.28.83-6.75.5-13.61.87-20.41-.23-6.44-.27-12.9-.81-19.32ZM451.19,507.83c.31-1.79.45-4.16,2-5a3.19,3.19,0,0,1,2.31,1.05,19.52,19.52,0,0,1,.35,5.72,127.35,127.35,0,0,1-1.48,15.76,17.12,17.12,0,0,1-5.29-.32c1.16-5.65,1.45-11.47,2.12-17.21Zm-13,477.63c1.05-.08,2.09-.19,3.14-.35,0-1.84.68-4-.27-5.6a5.28,5.28,0,0,0-2.87-.8v-2.1a27.35,27.35,0,0,0,3.52-.86c-.08-1.93-.2-3.86-.33-5.79-1.06,0-2.13.11-3.19.2v-2.3a27.58,27.58,0,0,0,3.53-.79c-.11-1.89.15-3.93-.62-5.64a8.66,8.66,0,0,0-2.91-.21v-2.68a18.55,18.55,0,0,0,3.34-.58q0-3.3-.18-6.6c-1.06.08-2.11.21-3.16.39v-2.43a6.94,6.94,0,0,0,3.34-1.13,25.76,25.76,0,0,0,.19-6.15,27.78,27.78,0,0,0-3.53.23v-2.54a5.35,5.35,0,0,0,2.84-.87,6.79,6.79,0,0,0,0-5.81,4.22,4.22,0,0,0-2.86-.6V929.6c1.07,0,2.15-.1,3.22-.19a46.19,46.19,0,0,0,.2-7.53c-1.11.09-2.29,0-3.42.18V919a4.56,4.56,0,0,0,3.1-1.11c.74-2.2.24-4.62.18-6.92-1.06.15-2.2.06-3.28.23v-3.45q1.6,0,3.21-.15a37.47,37.47,0,0,0-.05-8.2c-1.06.16-2.11.37-3.16.6v-3.44c1.12-.16,2.23-.37,3.35-.64a39.33,39.33,0,0,0,.18-8.4c-1.15,0-2.37-.1-3.53,0v-3.21c1.14-.14,2.27-.32,3.4-.54a58.48,58.48,0,0,0,.21-9.17,29.23,29.23,0,0,0-3.61.36V871.7a3,3,0,0,0,3.55-2.54c.39-2.26.62-5-.41-7a4.18,4.18,0,0,0-3.14-.34v-3.45c1.16-.15,2.31-.33,3.46-.56a79.78,79.78,0,0,0,.28-9.53,33.34,33.34,0,0,0-3.74,0v-3.61a19.89,19.89,0,0,0,3.69-.91,82.81,82.81,0,0,0-.12-10.45c-1.19.12-2.38.27-3.57.42v-3.81a8.57,8.57,0,0,0,3.55-1.08c.72-3.38.34-6.91.35-10.36a13.67,13.67,0,0,0-3.9.87v-4c1.33-.24,2.76-.34,3.74-1.53.52-3.39.12-6.88.11-10.31a24.07,24.07,0,0,0-3.85.6v-3.49c1.5-.23,3.33-.24,3.71-2.32.74-3.27.42-6.72.32-10.07-1.28.18-2.81-.2-4,.41v-3.43l3.6-.6a53.26,53.26,0,0,0,.41-12.3,26.14,26.14,0,0,0-4,.56v-4a24.41,24.41,0,0,0,3.81-.27,105.68,105.68,0,0,0,.27-12.07c-1.24,0-2.93-.62-4.08.11V753c1.11.46,2.43-.09,3.58-.11.11-2.51.33-5,.65-7.48a23.51,23.51,0,0,1,1.32,6.7c3.32,0,6.65-.32,10-.25-.68,1.09-1.21,2.67-2.45,2.87-2.53.62-5.12.62-7.68,1a63.79,63.79,0,0,0,.14,12.28c4.47-.09,8.84-2,13.33-1.1-.39,1.09-.51,2.76-1.71,2.87-3.9,1.14-8,.84-11.83,2.16a55.71,55.71,0,0,0,.44,12c5.1.07,10.12-2.08,15.21-1-.51.91-.86,2.15-1.8,2.49-3.67,1.64-7.65,1.26-11.46,2a4.54,4.54,0,0,0-2.29,1.08c-.53,3.61-.12,7.29,0,10.93,5.48.14,10.8-2.13,16.29-1.57.06.83.11,1.68.17,2.53-4.57,2-9.49,1.38-14.19,2.44a4.74,4.74,0,0,0-1.84.85c-.83,3.5-.47,7.23-.4,10.83,5.39-.42,10.72-1.65,16.11-2.09a7.84,7.84,0,0,1,2.91.78c-.12.45-.37,1.35-.48,1.81-4.42,1.38-9,1.77-13.48,2.25-1.54.32-3.42.39-4.46,2.06-1.23,2.95-.72,6.43-.65,9.61,6.65-.22,13.2-2.05,19.86-2-.07.88.19,2-.33,2.76-1.81,1-3.85.86-5.78,1.15a115,115,0,0,0-13.86,2.26c-.05,3.21-.43,6.49.17,9.65l.45.38c2.29.43,4.59-.35,6.87-.55,3.77-.43,7.53-1.34,11.32-1.08,1.15,0,1.69,1.38,2.36,2.29-5.17,1.78-10.56,2.14-15.88,2.63-1.79.22-3.68.32-5.27,1.47-.52,3.21.11,6.46.35,9.66,6.79-.67,13.51-2.17,20.33-2.41-.06.89.34,2.15-.38,2.77-1.41,1-3.09,1-4.65,1.28a107.19,107.19,0,0,0-15.66,2.4,31.9,31.9,0,0,0,.35,8.84c2.88-.24,5.76-.49,8.63-.93,3.79-.41,7.59-1.32,11.4-.67,0,.8.05,1.61.07,2.42-6.71,2-13.74,1.24-20.42,3.4a66.11,66.11,0,0,0,0,8.79c6.28-.3,12.5-1.71,18.78-1.94,1.32-.3,1.78,1.13,2.11,2.44-4.33,1.74-8.91,1.7-13.38,2.32-2.53.37-5.17.23-7.56,1.47-.51,2.5,0,5.07.33,7.56,6.73.74,13.32-2.27,20-1.28-.38.9-.36,2.38-1.3,2.7-2.15.84-4.45.76-6.68,1.09-4.17.56-8.36.92-12.5,1.8q-.12,3.58-.14,7.17a44.21,44.21,0,0,0,8.21-.38c3.17-.41,6.34-1.2,9.53-.8.92.06,1.45,1.14,2.11,1.8-6.26,2.86-13.08,1.87-19.55,3.37a66.32,66.32,0,0,0,0,7.05c5.14-.05,10.22-1.25,15.35-1.48a5.73,5.73,0,0,1,3.65,1.16c-5.79,4.42-12.83,2.26-19.15,4.07,0,2.28,0,4.57.13,6.86,5.16,0,10.23-1.39,15.36-1.62,1.41-.18,2.68.63,3.87,1.43a11.83,11.83,0,0,1-3.31,1.78c-5.24,1.13-10.66.61-15.83,2.13a8.57,8.57,0,0,0,.1,5.93c5.88.86,11.67-1.79,17.57-1.38.09.84.18,1.69.28,2.56-5.87,2-12.1.91-18,2.7a25.22,25.22,0,0,0-.4,6.09c6.21.08,12.31-1.87,18.52-1.56-.6,1-1.06,2.46-2.19,2.72-5.38,1.66-11.06.52-16.39,2.58.11,2,.26,4,.42,5.94,5-.1,9.88-1.65,14.86-1.44,1.14-.11,2,.83,2.87,1.66-5.79,2.83-12.1,1.69-18.09,3.11.08,1.78.11,3.58.1,5.37,5.89.31,11.7-2,17.59-1-.74,1-1.4,2.31-2.58,2.48-4.27,1-8.65.85-13,1.44-.71.23-1.8.12-2,1.25a26.6,26.6,0,0,0-.19,4.73c5.73,0,11.37-1.48,17.1-1.57,0,.85,0,1.69-.06,2.56-4.85,1.25-9.83.95-14.72,1.87-.7.26-1.82.15-2,1.32a20.68,20.68,0,0,0,.1,5,31.11,31.11,0,0,0,7.54-1,25.63,25.63,0,0,1,8.64-.47c0,.34-.11,1-.15,1.39-5,2.7-10.6,1.68-15.84,3.06-.61,6.57-.18,13.19-.4,19.78.16,12.28.19,24.56.19,36.84.07,10.38-.2,20.79.44,31.15H442.3c0-.55,0-1.09,0-1.63-.12-20.77.28-41.54-.35-62.29-.15-7.68.14-15.36-.15-23a27.37,27.37,0,0,0-3.61-.33v-2.59Zm-5-271.13a6.84,6.84,0,0,0,1.57-.12c.76-1.09.62-2.65.7-4,0-3.65-.06-7.3,0-11a12.79,12.79,0,0,0-.42-4.16,3.43,3.43,0,0,0-1.85-.49v-4.26c.64,0,1.29,0,1.93.06.86-7.77.54-15.61.59-23.43a17.18,17.18,0,0,1,1.24-6.48c.06.38.1.76.15,1.14v74.62h-2.16c-.21-5,1-10.16,0-15.15a2.32,2.32,0,0,0-1.77-2.09v-4.7h0ZM428.56,690l.23-.07c-.08-4.17-.34-8.37,0-12.54.3-3.87-.15-7.94,1.24-11.56,1.09,4.46.5,9.15.43,13.74a94.11,94.11,0,0,0,.25,10.75h1.25v4.31a10.7,10.7,0,0,1-1.13,0c-.5,4.81-.59,9.64-1,14.46,0,1.4-.25,3.17.77,4.15a3.72,3.72,0,0,0,1.32.8v4.73a17.68,17.68,0,0,1-2-.14c-.17,4.92.18,9.92-.75,14.75a18.35,18.35,0,0,1-1-3h.48V690ZM402.79,912.66c7.34-2,14.94-1.4,22.33-3a51.73,51.73,0,0,0,.45-7.37c-5.82-.34-11.6.73-17.36,1.59a17.79,17.79,0,0,1-6.38-.24c.69-1.18,1.34-2.64,2.62-2.87,6.9-2,14.21-.5,21-3.12.13-2.67.18-5.34.08-8-6.27,0-12.45,1.57-18.69,2.26a11.83,11.83,0,0,1-4.07-.07,24.25,24.25,0,0,1-1-2.25c7.54-2.82,15.53-1.91,23.21-3.7a30.05,30.05,0,0,0,.76-9c-7.87,0-15.64,2.41-23.51,2.1-.06-.82-.12-1.63-.17-2.44a39.22,39.22,0,0,1,7.85-1.54c4.53-.39,9-1,13.56-1.65.77-.3,2.08,0,2.15-1.39a40.62,40.62,0,0,0,.07-7.72c-6.75-.06-13.44,1.3-20.16,1.92a40.9,40.9,0,0,1-4.29-.14c0-.75,0-1.5,0-2.24,3.51-1.4,7.2-1.28,10.82-1.8,4.61-.64,9.29-.76,13.83-2a95.26,95.26,0,0,0,0-10.14c-4.19.33-8.31,1.41-12.49,1.81-4,.34-7.95,1.41-11.94.76.2-.77.37-1.54.62-2.28a4.85,4.85,0,0,1,2.61-1c4.94-.7,9.89-1.34,14.86-1.84a44.3,44.3,0,0,0,6.28-1.21,59.76,59.76,0,0,0,.51-10.45c-8.08-.49-16,3.5-24.06,1.84.55-1,1-2.32,2.07-2.48,3-.89,6-.92,9-1.41,4.17-.7,8.36-1,12.52-1.79a45.14,45.14,0,0,0,.54-11c-4.39.12-8.72,1-13.09,1.49-3.38.35-7,1.75-10.16-.61,6.47-4.12,14-2.64,20.91-4.09a4.45,4.45,0,0,0,2.15-1.06c1-3.35.67-7,.7-10.49-6.45-.19-12.8,1.84-19.24,1.76-1.23.15-1.8-1.3-2.45-2.31,4.4-1.39,8.94-1.69,13.43-2.28,2.41-.36,4.94-.22,7.23-1.34.75-.24.69-1.3.83-2.06a88.13,88.13,0,0,0,.16-9.34c-5.27,0-10.45,1.32-15.69,1.89a12.16,12.16,0,0,1-3.42-.59c0-.42.05-1.27.07-1.68,6.05-2.79,12.63-1.81,18.88-3.29a102.12,102.12,0,0,0,.26-12c-5.31-.94-10.53,2.27-15.8.54.45-1,.86-2.39,2-2.53,4.58-1.18,9.32-1,13.89-2.36.27-3.38.91-6.87.2-10.22-.26-1.68-1.83-1.52-2.88-1.6-3.57.08-7.1,1-10.68,1,.09-1.08.18-2.15.28-3.21a35.24,35.24,0,0,1,9.52-1.08c2,.15,3.38-1.68,4.69-3.22a9.58,9.58,0,0,0,2.74,2.06,5.07,5.07,0,0,0,1,0v3.2c-1.07.1-2.13.3-3.18.44a78.44,78.44,0,0,0,0,12.64c1.06-.11,2.15-.08,3.22-.23v3.33a30.18,30.18,0,0,0-3.49.76,104.62,104.62,0,0,0-.12,12,33.29,33.29,0,0,0,3.6-.22v3.46a12.38,12.38,0,0,0-3.49,1.21,45.76,45.76,0,0,0,0,10.72,18.5,18.5,0,0,0,3.49.12v3.23a19.32,19.32,0,0,0-3.56.7,54.33,54.33,0,0,0,.07,11.26,25.83,25.83,0,0,0,3.49-.45v3.45a35.63,35.63,0,0,0-3.67.63,55.33,55.33,0,0,0-.36,11.07c1.34,0,2.69-.15,4-.29v3.32a9.88,9.88,0,0,0-3.77.91c-1.12,3.12-.41,6.68-.41,10,1.35,0,2.79.27,4.18.2v3.21a8.13,8.13,0,0,0-3,.56c-.45.27-1.15.41-1.27,1.14-.71,3-.12,6.1.17,9.1a28.64,28.64,0,0,0,4.13-.34v3.28c-1.46.16-2.91.35-4.36.57a71,71,0,0,0-.51,9.45,24,24,0,0,0,4.87,0v3a41.48,41.48,0,0,0-4.44.58,44.28,44.28,0,0,0-.12,9.56,38.92,38.92,0,0,0,4.56-.37v3.37a31.47,31.47,0,0,0-4.45.28,79.16,79.16,0,0,0-.52,8.85,29.56,29.56,0,0,0,5-.31v3.3a25.3,25.3,0,0,0-4.74.53c-.19,2.55-.74,5.19-.15,7.73a7.79,7.79,0,0,0,4.89-.06v3.32a34.8,34.8,0,0,0-4.89.4,50.61,50.61,0,0,0-.19,7.39,37.7,37.7,0,0,0,5.08-.34V923a34.8,34.8,0,0,0-4.88.41,60,60,0,0,0-.16,7.59,28.81,28.81,0,0,0,5-.69v2.86a16.65,16.65,0,0,0-5.29,1.24c.17,10-.26,20-.36,30-.07,4.26-.77,8.72.45,12.84,1.88,1.09,4,0,5.88-.31a70.23,70.23,0,0,0,.48-14.57c-1.36-.49-2.72-1-4.07-1.58a26.16,26.16,0,0,0,3.06-2c1.63-.93,1.45-3.61,1.11-5.43v-5.1a29.68,29.68,0,0,0,.5-4.62l-.5-.1v-3.64l.11,0c0-1.88,0-3.77-.11-5.65V930l.21,0c.18-2.32.32-4.64.44-7h-.65v-3.42l.26,0c.25-2.38.4-4.77.47-7.16l-.72,0v-3.63l.65-.12a22.16,22.16,0,0,0-.27-7.75l-.38,0v-3.55c.24,0,.49-.08.73-.14.15-2.55.83-5.29,0-7.75a4.88,4.88,0,0,0-.78-.41v-4a7.92,7.92,0,0,0,.75-.31c.81-3,.36-6.19.28-9.26l-1,0v-3.12l.58-.09c.34-1.36.73-2.7,1-4.1.37-2-.12-3.95-.34-5.89l-1.21.12V859c.49-.1,1-.2,1.48-.33a57.4,57.4,0,0,0,.19-9.81l-1.68-.08v-3.42a4.53,4.53,0,0,0,1.56-.7c.8-3.36.52-6.92.51-10.38-.68.05-1.37.06-2.07.09V831l1.85-.25a96.8,96.8,0,0,0,.48-11.3c-.78,0-1.55.09-2.33.16V816c.75-.18,1.5-.4,2.23-.64.19-3.51.19-7,.05-10.54a17.4,17.4,0,0,0-2.28-.1v-3.37a6.37,6.37,0,0,0,2.05-.88c1-3.56.38-7.42.28-11.09a12.11,12.11,0,0,0-2.33,0v-3.47c.76-.11,1.51-.24,2.26-.4a79.05,79.05,0,0,0,.17-12.31c-.81,0-1.62.08-2.43.17v-3.45a4.84,4.84,0,0,0,1.25-.57c1-.57,1-2.17,1.15-3.33.16-2.78.46-5.69-.21-8.4a7.18,7.18,0,0,0-2.19-.33v-3.39c.62-.15,1.24-.35,1.86-.5a67.71,67.71,0,0,1,1.06-6.7,44.28,44.28,0,0,0,1,4.74v7.2c-.79,3.28-.38,6.84-.46,10.23.15,0,.31,0,.46,0v4.27l-.07,0a40.71,40.71,0,0,0,.07,9.49v7.84a25.24,25.24,0,0,0,0,8.84v5.1l-.35.1a46.14,46.14,0,0,0,.35,10v5.23l-.28.12a48.71,48.71,0,0,0,.28,9.12v4.83l-.42,0a80.62,80.62,0,0,0,0,10.88c.15,0,.3,0,.45,0v3.59l-.62.06a88.82,88.82,0,0,0,0,10.19l.63-.07v3.54l-.9.15c-.12,2.75-.78,5.71.17,8.33a2.67,2.67,0,0,0,.73.73v3.91c-.41.09-.83.17-1.24.27-.13,3-.18,6.08-.08,9.13l1.32-.12v3.32a4,4,0,0,0-1.08.5c-.75,2.76-.17,5.7,0,8.52.36,0,.71-.06,1.07-.1v3.56l-1.43.36a61.75,61.75,0,0,0-.14,7.07c.52,0,1,.05,1.57.06v3.74a3.81,3.81,0,0,0-1,.54c-1.45,1.91-.72,4.73-.54,7.05a14.69,14.69,0,0,1,1.5-.06v3.32a4.52,4.52,0,0,0-1.29.7c-1,1.94-.71,4.36-.78,6.57.69,0,1.38,0,2.07,0v3c-.74.13-1.47.29-2.17.35a39.35,39.35,0,0,0,.15,4.73c.15.79.45,1.75,1.21,1.84a6.83,6.83,0,0,0,.81.15v2.76c-.71.11-1.41.24-2.11.41-.06,2.22-.11,4.45-.12,6.68.73-.07,1.48-.08,2.23-.12V952c-.75.15-1.5.31-2.24.5q0,3-.06,6a16.21,16.21,0,0,0,2.3.13v2.75l-2.29.36c0,2.14,0,4.27.13,6.42.72,0,1.45,0,2.16-.12v2.26c-.8.07-1.6.16-2.41.26a31.55,31.55,0,0,0,.48,6.44c.65,0,1.29-.11,1.93-.19v2a5.93,5.93,0,0,0-2,.76c-1.08,1.68-.77,4-.91,6,1,0,1.92,0,2.88-.07v2.54c-.87,0-1.75.07-2.62.17a62.36,62.36,0,0,0-.54,9c-.33,14,.16,28.07-.46,42.08-.2,9.09,0,18.19-.19,27.27-.06,2.94,0,5.87.1,8.79H432c.14-3.81,0-7.64.13-11.46.21-8.78.05-17.56.22-26.34.59-19.21.28-38.44.49-57.67a30.15,30.15,0,0,0-6.5-1.15c-.67,5.2-.54,10.48-.81,15.74,0,6.56-.51,13.11-.44,19.67,0,8.57-.47,17.13-.4,25.7.06,8-.34,16-.31,24.05,0,3.82,0,7.65-.14,11.47h-1.64c.33-13.85.34-27.72.7-41.57.73-13.16.53-26.36.84-39.54.31-7.58.33-15.17.36-22.76.27-8.74.5-17.48.41-26.22-.08-3.36.38-6.74,0-10.07a12.78,12.78,0,0,0-2.32-2.05,8.32,8.32,0,0,0,2.68-8c-1.65-1.31-3.66-1.59-5.49-2.38a32.12,32.12,0,0,0,5.12-3,11.65,11.65,0,0,0,.3-5.54c-.8-1-2-.84-3.06-.86-4.57.27-9.06,1.41-13.56,2.3a11.91,11.91,0,0,1-4.93.22c-.76-.75-.59-2.17-.85-3.22Zm26.06,29.92a4.79,4.79,0,0,1,3.06-2.36v3C430.89,943.06,429.87,942.84,428.85,942.58Zm3.07,7.29v2.59a23.67,23.67,0,0,0-2.34-1.1,16.19,16.19,0,0,0,2.34-1.49Zm30.59,162.92a8.84,8.84,0,0,1-8.07,4.37c-5.09-.41-10.17-1.28-15.29-1.16-6.88.1-13.8-.38-20.62,1-3.26.62-6.87,1.54-9.89-.64-4-2.62-6-9.66-3.43-14.57,1.33-3,4.19-3.68,6.61-4.49a101.07,101.07,0,0,0-.22-12.06c.08-1-.26-2.57.62-3.16,3.07-1,6.32.33,9.37-.79.92-.32.83-1.66.92-2.58s0-1.8.07-2.69h1.64c-.05,1.6-.09,3.21-.13,4.82a18.77,18.77,0,0,0,7.5-.19c.2-1.54.31-3.08.38-4.63h1.45c.07,1.53.15,3.06.26,4.59,2.72.12,5.45.12,8.17.06.15-1.55.32-3.1.41-4.65h1.68c.05.7.1,1.41.16,2.11a5,5,0,0,0,.63,2.31c3.11.41,6.26-1.13,9.33-.13.91,2.37.51,5.11.56,7.65s0,5.25,0,7.87c2.87.4,6.34.27,8.35,3.33,2.63,3.87,2.12,9.93-.45,13.64h0Z" transform="translate(-105.8 -365.51)"/></svg>