<svg id="图层_1" data-name="图层 1" xmlns="http://www.w3.org/2000/svg" xmlns:xlink="http://www.w3.org/1999/xlink" viewBox="0 0 743.92 844.5"><defs><style>.cls-1,.cls-11,.cls-12,.cls-14,.cls-2,.cls-3,.cls-4,.cls-5,.cls-6,.cls-7,.cls-8,.cls-9{font-size:24px;font-family:KingHwa_OldSong;}.cls-1{fill:#e0af84;}.cls-2{fill:#e0b084;}.cls-3{fill:#dfae82;}.cls-4{fill:#e1b084;}.cls-5{fill:#e1b085;}.cls-6{fill:#d39c73;}.cls-7{fill:#c99f7d;}.cls-8{fill:#c79b79;}.cls-9{fill:#cba380;}.cls-10{fill:none;}.cls-11,.cls-12,.cls-13{fill:#e37300;stroke:#b5620f;stroke-miterlimit:10;}.cls-12{writing-mode:tb;text-orientation:sideways-right;glyph-orientation-vertical:90deg;}.cls-14{fill:#fff;}.cls-15{fill:url(#未命名的渐变_48);}</style><linearGradient id="未命名的渐变_48" x1="455.01" y1="1327.1" x2="455.01" y2="622.69" gradientTransform="translate(0 -194.71)" gradientUnits="userSpaceOnUse"><stop offset="0" stop-color="#f6b542" stop-opacity="0.3"/><stop offset="1" stop-color="#956134"/></linearGradient></defs><text class="cls-1" transform="translate(432.42 593.5)">—————— 面板</text><text class="cls-2" transform="translate(440.85 714.46)">—————— 琴弦</text><text class="cls-3" transform="translate(390.54 493.3)">—————— 背板</text><text class="cls-4" transform="translate(0 737.55)">覆手 ——————</text><text class="cls-5" transform="translate(30.19 626.81)">品 ——————</text><text class="cls-6" transform="translate(95.06 323.95)">相 ——————</text><text class="cls-7" transform="translate(103.19 241.81)">山口 ——————</text><text class="cls-8" transform="translate(429.26 189.57)">—————— 琴轴</text><text class="cls-9" transform="translate(393.31 70.9)">—————— 琴头</text><line class="cls-10" x1="731.19" y1="827.03" x2="386.48" y2="827.14"/><text class="cls-11" transform="translate(347.21 838.48)">————————————————</text><text class="cls-12" transform="translate(731.42 13.42) scale(1 2.13)">————————————————</text><text class="cls-11" transform="translate(436.36 395.63) scale(0.77 1)">————————————————</text><text class="cls-11" transform="translate(451.58 20.89) scale(0.73 1)">————————————————</text><circle class="cls-13" cx="691.14" cy="47.44" r="23.46"/><circle class="cls-13" cx="691.14" cy="423.75" r="23.46"/><circle class="cls-13" cx="691.14" cy="800.06" r="23.46"/><text class="cls-14" transform="translate(682.93 51.21)">头</text><text class="cls-14" transform="translate(680.15 430.16)">颈</text><text class="cls-14" transform="translate(681.35 805.66)">腹</text><path class="cls-15" d="M534.21,1003.17c-1.08-10.61-2-21.27-3.79-31.76-1.47-10.53-3.6-20.9-5.69-31.26-6.41-31.83-14.74-63-22.36-94.42-2-8.14-3.75-16.41-6-24.5-2-7.68-3.24-15.6-5.1-23.33-.86-4.16-1.71-8.33-2.78-12.42-2.6-12.83-5.18-25.69-7.26-38.66-1.41-6.82-2-13.81-3-20.69-.76-5-1.13-10.1-2.06-15.07-4.37.1-8.67,1.1-13,1.64-.24,5,.1,10.08-.11,15.11.11.92-.57,1.58-1.28,1.4-.77-5.31.23-10.77-.69-16.08l-2.88-.58s0,0,0,0V709a14.47,14.47,0,0,0,2.92-.3,89.1,89.1,0,0,0-.3-19c-.87.18-1.74.34-2.62.49v-4.42a1.27,1.27,0,0,0,1.33.61c1.12.19,1.38-1.49,1.59-2.48.86-5.79.07-11.68.05-17.49-.16-22,0-44-.12-66-.22-8.09-.4-16.16-.36-24.24a36,36,0,0,0-.22-5.2c-.35-1.88-1.6-3.26-2-5.1a21.83,21.83,0,0,1,1.88-7.34c1.26-3.3,3.34-6,4.89-9,1.42-2.83,1.69-6.26,3.09-9.08.9-1.81,2.95-1,4.38-1.2a101.48,101.48,0,0,1-7.07,22.23c-1.1,2.58-2.59,4.94-3.2,7.78a39.62,39.62,0,0,0-.29,8c.24,8.59-.05,17.19.46,25.78.12,12.89,0,25.79.13,38.68.05,3.57.58,7.13.3,10.7-.59,5.86-.27,11.77-.29,17.66.44,12.66.21,25.34.37,38a34.71,34.71,0,0,0,12.4-1.24c-.06-4.24-.79-8.39-1.16-12.59-.56-6-1.11-12-1.72-18-.69-7.82-1.1-15.67-1.72-23.5-2-.06-4-.23-5.95-.41,2-.54,4-1.31,6-1.92-.14-2.69-.33-5.36-.57-8-.47-5.35-.37-10.75-.38-16.13,0-3.2.1-6.72,1.82-9.33a23,23,0,0,1,5-4.73c0-5.49-.82-10.91-.92-16.39-.12-6.17-.31-12.45,1-18.46,10.3.36,20.58,1.4,30.88,1.88,4.05.22,8.17,1,12.17-.12,2.88-.76,5.1-3.62,6.16-6.86,1.62-4.84-.78-11-4.87-12.56-2.67-1.17-5.52-.34-8.24,0-11.16,1.34-22,5-33.17,6.65,1.84-7.37,3.87-14.66,5.58-22.08,10.69-.84,21.4-1.27,32.07-2.36,3.68-.42,7.67-.33,10.85-3a10.54,10.54,0,0,0,4.13-8.6c0-4.85-3.61-8.77-7.37-9.45-2.65-.27-5.1,1.26-7.59,2.07-7.23,2.51-14.21,6-21.42,8.58a51.54,51.54,0,0,1-9.1,3.13c.71-8,1.89-16,2.37-24,.5-5.21.48-10.47.78-15.71a181.74,181.74,0,0,0-.18-18.23,141.08,141.08,0,0,0-1.91-21.36,50.74,50.74,0,0,0-2.7-10.15,18.53,18.53,0,0,1-1.47-4.65c-.17-2.51.65-4.95.45-7.46-.16-1.44-1.07-3-2.37-3-2.25,0-4.1,2-6.31,2.21-2.11-.5-3.78-2.36-5.77-3.27-3.88-2-8.38-.58-11.79,2.11a18.66,18.66,0,0,1-3.77,2.65c-2.06.21-4-1.34-6.1-.93a2.81,2.81,0,0,0-2.35,2.33c-.47,3.69.33,7.67-1.09,11.15-1.48,3.68-3.72,6.94-4.61,11a40.36,40.36,0,0,0-.16,17.33,27,27,0,0,0,7.37,14.33,29.82,29.82,0,0,0,11.72,6.47c.82,6.94.44,13.95,0,20.92-4.29-.66-8.48-2-12.75-2.88-7.39-1.91-14.8-3.68-22.26-5.1-3.33-.65-7-.64-9.92,1.8a10.36,10.36,0,0,0-3.46,9.06,13,13,0,0,0,4.16,7.27c2.29,1.93,5.21,1.4,7.83,1.24,11.73-.42,23.41-2,35.13-2.52a95.57,95.57,0,0,1-5.21,25.13c-11.22,1.1-22.48,1.49-33.72,2.14-3.31.42-6.86,0-9.88,2-2.44,1.75-4.84,4.43-5.15,8.06-.6,5.12,2.76,10.43,7.06,10.72,5.57.4,10.84-2.26,16.09-4.13,7.35-2.58,14.58-5.66,22-8.14-1.1,2.22-2.23,4.41-3.49,6.51a15.56,15.56,0,0,0-2.24,5.3c-.71,5.62,1.23,11.16.6,16.79-.54,5.12-2,10-2.35,15.19s3.74,9.06,3.3,14.31c-.56,10.33-1.8,20.57-2.66,30.87-.65,7.44-1.69,14.82-2.45,22.25-.5,5.33-1.64,10.56-1.78,15.95a37.47,37.47,0,0,0,6.44-.42v4.11c-2.38.12-4.76.24-7.14.54-.28,6.23-2.32,12.07-2.62,18.3a58.93,58.93,0,0,0,9.76-.32v4.32c-2.86.1-5.72.32-8.58.48-.69.2-1.76-.1-2,.94a41,41,0,0,0-1.43,7.46c-.86,6.33-2.33,12.49-3.24,18.8-2.19,12.64-4.93,25.13-7.58,37.63-1.12,5.7-2.62,11.27-3.54,17-1.41,7.29-3.45,14.38-5,21.63-4.34,17.08-8.19,34.34-12.38,51.46-8.09,33.45-15.95,67-21.27,101.34-.79,6.38-2,12.67-2.54,19.09-.73,6.27-1,12.6-1.51,18.89-.43,5.15-.2,10.33-.27,15.5-.09,4.81.6,9.58.92,14.36a141.9,141.9,0,0,0,7.23,34.93,115.2,115.2,0,0,0,9.83,21,81.34,81.34,0,0,0,15.85,19.81A64.85,64.85,0,0,0,427.25,1127c7.92,3.35,16.25,5.63,24.68,5.39a61.05,61.05,0,0,0,25.37-5,74.88,74.88,0,0,0,20.24-11.92,70.69,70.69,0,0,0,15.05-15.68c8.23-10.44,13.9-23.5,17.7-37.13,2-7.1,2.93-14.55,3.86-21.95.81-6.37.49-12.84.85-19.26-.23-6.07-.26-12.17-.79-18.22ZM470.78,514.71c.3-1.69.44-3.93,1.93-4.72a3.17,3.17,0,0,1,2.24,1,17.67,17.67,0,0,1,.33,5.39,116.79,116.79,0,0,1-1.42,14.86,16.38,16.38,0,0,1-5.13-.3c1.12-5.32,1.4-10.81,2-16.23ZM458.19,965.27c1-.08,2-.18,3.05-.33,0-1.74.66-3.76-.26-5.29a5.23,5.23,0,0,0-2.79-.75v-2a27.33,27.33,0,0,0,3.42-.8c-.08-1.83-.2-3.65-.32-5.47-1,.05-2.07.11-3.1.2v-2.17a25.66,25.66,0,0,0,3.43-.76c-.11-1.77.14-3.7-.6-5.31a9,9,0,0,0-2.83-.2v-2.52a19.94,19.94,0,0,0,3.24-.55c0-2.08-.08-4.15-.17-6.23-1,.07-2.05.2-3.06.36v-2.29a6.62,6.62,0,0,0,3.23-1.06,23.41,23.41,0,0,0,.19-5.8,28,28,0,0,0-3.42.21v-2.39a5.28,5.28,0,0,0,2.75-.82,6.27,6.27,0,0,0,0-5.48,4.18,4.18,0,0,0-2.77-.57v-2.69q1.56,0,3.12-.18a43.2,43.2,0,0,0,.19-7.1c-1.08.08-2.22,0-3.31.17v-2.9a4.57,4.57,0,0,0,3-1c.72-2.08.23-4.36.18-6.53-1,.14-2.14.06-3.18.22v-3.26c1,0,2.07-.05,3.11-.14a34.45,34.45,0,0,0-.05-7.73c-1,.15-2.05.34-3.06.56v-3.24c1.08-.15,2.16-.35,3.24-.61a35.55,35.55,0,0,0,.17-7.92c-1.11,0-2.28-.1-3.41,0v-3c1.1-.14,2.19-.3,3.29-.51a53.14,53.14,0,0,0,.2-8.65,29.44,29.44,0,0,0-3.49.34V858a2.94,2.94,0,0,0,3.44-2.39c.37-2.14.6-4.71-.4-6.61a4.11,4.11,0,0,0-3-.32v-3.26c1.12-.14,2.24-.31,3.35-.53a74.94,74.94,0,0,0,.27-9,33.63,33.63,0,0,0-3.62,0v-3.4a19.34,19.34,0,0,0,3.57-.86,75.46,75.46,0,0,0-.11-9.86c-1.16.12-2.31.26-3.46.4V818.5a8.27,8.27,0,0,0,3.43-1c.71-3.18.34-6.51.35-9.76a13.38,13.38,0,0,0-3.78.81v-3.76c1.29-.23,2.67-.32,3.62-1.44.5-3.2.12-6.49.11-9.73a22.57,22.57,0,0,0-3.73.57v-3.3c1.45-.21,3.22-.22,3.59-2.18.72-3.09.41-6.34.31-9.5-1.24.16-2.72-.19-3.9.39v-3.24l3.49-.56a49.54,49.54,0,0,0,.4-11.61,25.61,25.61,0,0,0-3.89.53V761a25.19,25.19,0,0,0,3.68-.25,94.08,94.08,0,0,0,.27-11.39c-1.21,0-2.84-.58-3.95.1V746c1.08.44,2.35-.08,3.46-.1.11-2.37.33-4.73.63-7.06a21.66,21.66,0,0,1,1.28,6.33c3.22,0,6.45-.31,9.67-.24-.66,1-1.17,2.51-2.37,2.71-2.45.58-5,.58-7.44.94a59,59,0,0,0,.13,11.58c4.33-.08,8.57-1.91,12.92-1-.38,1-.5,2.61-1.66,2.71-3.77,1.08-7.71.79-11.46,2a51.36,51.36,0,0,0,.43,11.29c4.93.06,9.8-2,14.73-1-.49.86-.83,2-1.74,2.36-3.56,1.54-7.42,1.19-11.1,1.92a4.39,4.39,0,0,0-2.22,1c-.51,3.4-.12,6.88,0,10.31,5.31.13,10.47-2,15.78-1.48.06.79.11,1.58.17,2.38-4.43,1.87-9.2,1.31-13.75,2.31a4.5,4.5,0,0,0-1.79.8c-.8,3.3-.45,6.82-.38,10.21,5.22-.39,10.38-1.55,15.6-2a7.46,7.46,0,0,1,2.82.73c-.12.42-.35,1.28-.47,1.71a68.18,68.18,0,0,1-13.05,2.12c-1.49.31-3.31.37-4.32,1.94-1.19,2.79-.7,6.07-.63,9.07,6.44-.21,12.78-1.93,19.23-1.86-.06.83.19,1.92-.31,2.6-1.76.91-3.73.81-5.6,1.09a113.66,113.66,0,0,0-13.43,2.13c0,3-.42,6.12.17,9.1l.44.36c2.21.41,4.44-.32,6.65-.52,3.65-.4,7.3-1.26,11-1,1.11,0,1.63,1.3,2.28,2.15-5,1.68-10.23,2-15.39,2.49-1.73.2-3.56.3-5.1,1.39-.5,3,.11,6.08.34,9.11,6.58-.64,13.09-2.06,19.7-2.28-.06.85.32,2-.38,2.61-1.36.92-3,1-4.49,1.21a105.6,105.6,0,0,0-15.17,2.27,29.16,29.16,0,0,0,.33,8.34c2.79-.23,5.58-.46,8.36-.88,3.68-.39,7.35-1.25,11-.63,0,.75.05,1.51.08,2.28-6.51,1.88-13.32,1.17-19.79,3.21a60.21,60.21,0,0,0,0,8.28c6.08-.27,12.12-1.6,18.2-1.83,1.27-.28,1.72,1.07,2,2.31-4.2,1.64-8.63,1.6-13,2.19-2.44.34-5,.21-7.31,1.38-.5,2.36,0,4.78.31,7.13,6.52.7,12.9-2.14,19.42-1.2-.37.85-.36,2.24-1.26,2.54-2.09.8-4.31.72-6.47,1-4,.53-8.1.87-12.12,1.7-.07,2.25-.12,4.51-.13,6.77a45.12,45.12,0,0,0,8-.36c3.06-.39,6.14-1.14,9.23-.76.89.06,1.4,1.07,2,1.7-6.06,2.69-12.67,1.77-18.94,3.18a64.13,64.13,0,0,0,0,6.65c5,0,9.9-1.18,14.87-1.4a5.75,5.75,0,0,1,3.54,1.1c-5.62,4.16-12.43,2.13-18.56,3.84,0,2.15,0,4.31.14,6.46,5,0,9.9-1.3,14.88-1.52a5.79,5.79,0,0,1,3.75,1.35,11.8,11.8,0,0,1-3.22,1.68c-5.07,1.06-10.32.58-15.33,2a7.88,7.88,0,0,0,.1,5.6c5.69.81,11.31-1.69,17-1.31.09.8.17,1.61.27,2.42-5.69,1.93-11.72.86-17.42,2.55A23,23,0,0,0,463,930c6,.07,11.92-1.77,17.93-1.48-.58,1-1,2.32-2.12,2.57-5.21,1.57-10.71.49-15.87,2.43q.15,2.81.41,5.61c4.82-.1,9.56-1.56,14.39-1.36,1.1-.11,2,.79,2.77,1.56-5.61,2.67-11.71,1.6-17.52,2.94.08,1.68.11,3.37.1,5.06,5.7.3,11.34-1.84,17-1-.72.93-1.36,2.18-2.5,2.34-4.14,1-8.38.81-12.56,1.36-.69.22-1.74.11-2,1.18a23.65,23.65,0,0,0-.18,4.46c5.55,0,11-1.4,16.57-1.48,0,.8-.05,1.6-.07,2.41-4.69,1.18-9.52.89-14.25,1.76-.68.25-1.77.15-1.92,1.25a18.91,18.91,0,0,0,.1,4.75,30.66,30.66,0,0,0,7.3-.91,25.88,25.88,0,0,1,8.37-.45c0,.33-.11,1-.15,1.32-4.86,2.55-10.26,1.59-15.35,2.88-.58,6.2-.17,12.45-.38,18.67.15,11.58.18,23.17.18,34.75.07,9.79-.19,19.61.43,29.38h-1.56c0-.52,0-1,0-1.54-.12-19.59.27-39.18-.34-58.76-.15-7.24.14-14.49-.15-21.73a27.25,27.25,0,0,0-3.49-.31v-2.44ZM453.34,709.5a7,7,0,0,0,1.52-.1c.73-1,.6-2.51.67-3.77,0-3.45,0-6.89,0-10.33a12,12,0,0,0-.4-3.93,3.6,3.6,0,0,0-1.8-.46v-4c.63,0,1.25,0,1.88.06.83-7.32.52-14.73.56-22.1a15.75,15.75,0,0,1,1.21-6.11c.06.35.1.71.14,1.07v70.4l-2.09,0c-.21-4.76.93-9.58,0-14.29a2.21,2.21,0,0,0-1.72-2V709.5Zm-4.48-22.92.22-.06c-.07-3.94-.33-7.9,0-11.83.28-3.65-.15-7.5,1.19-10.91,1.06,4.21.49,8.64.43,13a86,86,0,0,0,.23,10.15h1.21V691a10,10,0,0,1-1.09,0c-.49,4.53-.57,9.09-.93,13.64,0,1.32-.24,3,.75,3.91a3.35,3.35,0,0,0,1.28.75v4.48c-.7,0-1.41,0-2-.14-.16,4.64.17,9.35-.73,13.91a16.12,16.12,0,0,1-1-2.86h.46V686.58Zm-25,210c7.1-1.88,14.47-1.32,21.62-2.84a46,46,0,0,0,.45-7c-5.64-.32-11.24.69-16.83,1.5a17.31,17.31,0,0,1-6.17-.23c.66-1.11,1.3-2.49,2.53-2.7,6.69-1.9,13.77-.47,20.38-2.94.13-2.53.18-5,.09-7.57-6.09,0-12.07,1.48-18.11,2.13a11.9,11.9,0,0,1-3.95-.06,21.83,21.83,0,0,1-1-2.13c7.3-2.66,15-1.8,22.48-3.48a27.77,27.77,0,0,0,.74-8.53c-7.63,0-15.15,2.27-22.78,2-.05-.77-.11-1.54-.16-2.29a38.21,38.21,0,0,1,7.6-1.46c4.39-.37,8.77-.94,13.14-1.56.74-.28,2,0,2.08-1.31a36.88,36.88,0,0,0,.07-7.28c-6.54-.06-13,1.22-19.53,1.81a38.46,38.46,0,0,1-4.16-.13c0-.71,0-1.41,0-2.11,3.39-1.32,7-1.21,10.48-1.7,4.47-.6,9-.71,13.39-1.93a84.68,84.68,0,0,0,0-9.56c-4,.31-8,1.33-12.1,1.7-3.85.33-7.69,1.33-11.56.72.19-.72.36-1.45.6-2.14a4.82,4.82,0,0,1,2.53-.92c4.79-.65,9.58-1.26,14.39-1.73a43.68,43.68,0,0,0,6.08-1.14,55,55,0,0,0,.5-9.85c-7.82-.47-15.47,3.29-23.31,1.72.54-.91,1-2.18,2-2.33,2.87-.84,5.84-.87,8.77-1.34,4-.65,8.09-1,12.12-1.68a41.6,41.6,0,0,0,.53-10.4c-4.25.12-8.45,1-12.68,1.41-3.28.33-6.81,1.65-9.84-.58,6.26-3.89,13.53-2.49,20.25-3.85a4.35,4.35,0,0,0,2.08-1c.92-3.16.66-6.6.68-9.89-6.25-.18-12.4,1.73-18.64,1.66-1.19.14-1.74-1.23-2.37-2.18,4.26-1.31,8.66-1.59,13-2.15,2.34-.33,4.78-.21,7-1.26.73-.22.68-1.23.81-2a78.37,78.37,0,0,0,.15-8.81c-5.1,0-10.12,1.25-15.19,1.79a12.55,12.55,0,0,1-3.32-.56c0-.39.05-1.19.07-1.59,5.86-2.62,12.24-1.7,18.29-3.09a95.07,95.07,0,0,0,.25-11.32c-5.14-.89-10.2,2.15-15.31.51.44-1,.84-2.26,1.9-2.38,4.44-1.12,9-.9,13.45-2.23.27-3.19.89-6.48.2-9.65-.25-1.58-1.78-1.42-2.79-1.5-3.46.07-6.88.94-10.35.91.09-1,.18-2,.28-3a35,35,0,0,1,9.21-1c1.9.14,3.29-1.59,4.55-3a9.12,9.12,0,0,0,2.66,1.94,4.68,4.68,0,0,0,1,0v3c-1,.09-2.06.29-3.08.41a73,73,0,0,0,0,11.92c1-.09,2.09-.07,3.12-.21v3.15a30.78,30.78,0,0,0-3.38.71,97.32,97.32,0,0,0-.11,11.33,34,34,0,0,0,3.49-.21v3.26a12.46,12.46,0,0,0-3.39,1.15,42.74,42.74,0,0,0,0,10.11,19.19,19.19,0,0,0,3.39.11v3a18.75,18.75,0,0,0-3.45.66,50.27,50.27,0,0,0,.06,10.62,24.22,24.22,0,0,0,3.38-.43v3.27a33.22,33.22,0,0,0-3.55.58A51.42,51.42,0,0,0,448.2,820c1.3-.05,2.6-.15,3.9-.28v3.13a9.75,9.75,0,0,0-3.64.87c-1.09,2.94-.4,6.3-.4,9.42,1.31,0,2.7.26,4,.19v3a7.82,7.82,0,0,0-2.93.52c-.44.26-1.11.39-1.23,1.08-.69,2.8-.12,5.75.17,8.58a28.1,28.1,0,0,0,4-.31v3.08c-1.41.16-2.81.34-4.22.54a64.88,64.88,0,0,0-.49,8.92,23.91,23.91,0,0,0,4.71,0v2.87c-1.44.11-2.87.29-4.3.54a41.22,41.22,0,0,0-.12,9,38.5,38.5,0,0,0,4.42-.34V874a29.39,29.39,0,0,0-4.3.27,72.54,72.54,0,0,0-.51,8.35,28.65,28.65,0,0,0,4.81-.3v3.12a25.37,25.37,0,0,0-4.59.49c-.18,2.41-.71,4.9-.14,7.3a7.8,7.8,0,0,0,4.73-.06v3.13a34.14,34.14,0,0,0-4.73.38,47.67,47.67,0,0,0-.19,7,36.84,36.84,0,0,0,4.92-.32v3a35.61,35.61,0,0,0-4.72.38,57,57,0,0,0-.16,7.16,27.76,27.76,0,0,0,4.88-.64v2.69a16.7,16.7,0,0,0-5.12,1.17c.16,9.45-.26,18.88-.35,28.32-.07,4-.74,8.22.43,12.11,1.82,1,3.84,0,5.7-.29a64.47,64.47,0,0,0,.47-13.75c-1.32-.46-2.63-1-3.94-1.48a26.21,26.21,0,0,0,3-1.92c1.58-.87,1.4-3.41,1.08-5.12v-4.81a28.92,28.92,0,0,0,.48-4.37l-.48-.09v-3.43l.11,0c0-1.78,0-3.56-.11-5.33V913l.2-.05q.25-3.27.42-6.56h-.62v-3.22l.25,0c.24-2.25.39-4.51.45-6.76-.23,0-.46,0-.7,0v-3.42l.64-.12a20.41,20.41,0,0,0-.27-7.31h-.37v-3.35c.24-.05.48-.08.71-.14.14-2.4.81-5,0-7.31a4.15,4.15,0,0,0-.76-.38v-3.77c.25-.09.49-.18.73-.29.79-2.81.35-5.84.27-8.73-.33,0-.67,0-1,0v-3l.56-.08c.34-1.29.71-2.55.95-3.87.35-1.86-.12-3.73-.33-5.56l-1.18.11V846c.48-.09,1-.19,1.44-.31a53.93,53.93,0,0,0,.19-9.25l-1.63-.08v-3.22a4.9,4.9,0,0,0,1.51-.66c.77-3.17.5-6.53.49-9.79-.66,0-1.33.05-2,.08v-3.2l1.79-.23a88.24,88.24,0,0,0,.46-10.66c-.75,0-1.5.09-2.25.15v-3.42c.72-.17,1.45-.37,2.16-.6.18-3.31.18-6.63,0-9.94a16.19,16.19,0,0,0-2.2-.09v-3.19a6.4,6.4,0,0,0,2-.82c1-3.36.37-7,.27-10.47a12.11,12.11,0,0,0-2.25,0V777c.73-.11,1.46-.22,2.19-.38a72.59,72.59,0,0,0,.16-11.61c-.79,0-1.57.08-2.36.16V761.9a5,5,0,0,0,1.21-.54c1-.54.94-2.05,1.12-3.14.16-2.62.45-5.37-.2-7.93a7.47,7.47,0,0,0-2.13-.31v-3.19l1.81-.48a60.1,60.1,0,0,1,1-6.31,44.77,44.77,0,0,0,1,4.46v6.79c-.76,3.1-.36,6.46-.45,9.66l.45,0v4l-.06,0a37.82,37.82,0,0,0,.06,9v7.39a23.32,23.32,0,0,0,0,8.33v4.81l-.33.1a42.19,42.19,0,0,0,.33,9.47V809l-.27.13a44.84,44.84,0,0,0,.27,8.59v4.56l-.41,0a76.37,76.37,0,0,0,0,10.26,3,3,0,0,0,.43,0v3.39l-.6.06a81.08,81.08,0,0,0,0,9.61l.61-.07v3.34a8.74,8.74,0,0,1-.87.14c-.11,2.59-.75,5.39.16,7.86a2.73,2.73,0,0,0,.71.69v3.69l-1.2.25c-.13,2.87-.17,5.74-.07,8.61.42,0,.84-.06,1.27-.1v3.12a4.45,4.45,0,0,0-1.05.47c-.72,2.6-.16,5.38,0,8l1-.09v3.36l-1.39.34a59.31,59.31,0,0,0-.13,6.67l1.52.05v3.53a3.87,3.87,0,0,0-.93.51c-1.4,1.8-.69,4.46-.52,6.65a13.72,13.72,0,0,1,1.45-.06v3.14a4.53,4.53,0,0,0-1.25.65c-1,1.84-.68,4.12-.75,6.2.67,0,1.33,0,2,0v2.82c-.71.12-1.42.27-2.1.33a39.2,39.2,0,0,0,.14,4.47c.15.74.45,1.64,1.17,1.73a6.86,6.86,0,0,0,.79.14v2.6q-1,.17-2,.39-.09,3.15-.11,6.3c.7-.06,1.43-.08,2.15-.11v2.41c-.72.13-1.45.29-2.17.46,0,1.9,0,3.79-.06,5.69a16.8,16.8,0,0,0,2.24.11v2.6c-.75.1-1.49.24-2.23.34,0,2,0,4,.13,6.06.7,0,1.4,0,2.1-.12v2.13l-2.34.25a28.79,28.79,0,0,0,.47,6.08c.62,0,1.25-.11,1.87-.19V959a6,6,0,0,0-1.92.71c-1,1.59-.74,3.78-.87,5.68.93,0,1.86,0,2.79-.06v2.4c-.85,0-1.7.07-2.55.16a58.16,58.16,0,0,0-.52,8.46c-.32,13.23.15,26.47-.45,39.69-.19,8.58,0,17.16-.18,25.73-.06,2.77,0,5.53.1,8.29h-1.35c.14-3.59,0-7.21.13-10.81.2-8.28.05-16.56.21-24.84.58-18.13.27-36.27.48-54.41a30.23,30.23,0,0,0-6.3-1.09c-.65,4.91-.52,9.89-.78,14.85,0,6.19-.5,12.37-.43,18.56,0,8.09-.45,16.16-.39,24.24.06,7.57-.33,15.12-.3,22.69,0,3.61,0,7.21-.13,10.82h-1.59c.32-13.07.32-26.15.68-39.21.7-12.42.51-24.87.81-37.3.29-7.16.32-14.32.35-21.48.26-8.24.48-16.48.4-24.73-.08-3.17.36-6.35,0-9.5a13.61,13.61,0,0,0-2.25-1.93,7.71,7.71,0,0,0,2.59-7.59c-1.6-1.24-3.54-1.5-5.31-2.25a30.76,30.76,0,0,0,5-2.8,10.75,10.75,0,0,0,.3-5.23c-.78-.95-2-.79-3-.81-4.42.26-8.78,1.34-13.14,2.17a11.82,11.82,0,0,1-4.77.21c-.74-.71-.57-2-.82-3h0Zm25.24,28.23a4.64,4.64,0,0,1,3-2.23v2.88C451.12,925.27,450.13,925.06,449.14,924.82Zm3,6.88v2.44a21.9,21.9,0,0,0-2.26-1,15.74,15.74,0,0,0,2.26-1.41h0Zm29.64,153.68a8.65,8.65,0,0,1-7.82,4.12c-4.93-.39-9.85-1.21-14.81-1.1-6.67.1-13.37-.36-20,.94-3.15.58-6.65,1.46-9.58-.6-3.89-2.48-5.77-9.11-3.32-13.75,1.29-2.79,4.06-3.47,6.4-4.23a92,92,0,0,0-.21-11.38c.08-1-.25-2.42.6-3,3-.9,6.13.32,9.08-.74.89-.29.8-1.56.89-2.43l.06-2.54h1.6c-.05,1.51-.09,3-.13,4.55a18.74,18.74,0,0,0,7.27-.18c.18-1.45.29-2.91.37-4.37h1.4c.07,1.45.15,2.89.25,4.33,2.64.11,5.28.12,7.91.06.15-1.46.32-2.92.4-4.39h1.63l.15,2a4.56,4.56,0,0,0,.62,2.17c3,.39,6.05-1.06,9-.12.89,2.23.49,4.82.54,7.22s0,5,0,7.42c2.79.37,6.14.26,8.09,3.14,2.55,3.65,2.06,9.37-.44,12.87Z" transform="translate(-105.8 -365.51)"/></svg>