<svg id="Layer_1" data-name="Layer 1" xmlns="http://www.w3.org/2000/svg" viewBox="0 0 829.99 1387.14"><defs><style>.cls-1{fill:#e6d8b5;}.cls-2{fill:#858482;}</style></defs><path class="cls-1" d="M661.53,130.65c2.3-1.78,4.67-3.76,7.59-4.38,2.24.13,4.14,1.54,6,2.61,16.28,10.42,29.42,25.31,38.69,42.2,2.25,4.43,5.25,8.79,5.38,13.94-3.26.53-8.43,1.49-9.61-2.69C699.89,160.51,683.26,141.11,661.53,130.65Z" transform="translate(-58.36 -126.27)"/><path class="cls-1" d="M740.66,336.89c4.66,1.95,6.24,7.46,6.05,12.11a54.86,54.86,0,0,1-4.4,20.2,13.63,13.63,0,0,1-8.71,8C737.46,364.13,741.64,350.7,740.66,336.89Z" transform="translate(-58.36 -126.27)"/><path class="cls-1" d="M462.55,419.56c2-2.5,5.41-2,8.23-2.23-1.58,7-2.58,14.1-3.66,21.19-3.2-.73-6.81-2.4-7.61-5.92A17.62,17.62,0,0,1,462.55,419.56Z" transform="translate(-58.36 -126.27)"/><path class="cls-1" d="M652.42,137.42c2.71-2.25,5.94.51,8.52,1.64a103.65,103.65,0,0,1,32.93,31c2.82,4.5,5.76,9.07,6.93,14.32a117.29,117.29,0,0,0-61.36,12.09c-18.55,9.38-32,27.05-38.14,46.67A158.19,158.19,0,0,0,597,259c-1.53,6.54,3.75,12.47,2.39,19-2.42,13.54-5.24,27-7.4,40.59,43.68,4.07,87.42,7.38,131.07,11.82,2.9.44,6.23,0,8.71,1.85,2.77,4,1.89,9.18,1.55,13.73-1.45,10.4-2.95,21.08-7.67,30.58-1.77,3-5.7,2.19-8.52,1.62-23.42-5.45-46.44-12.43-69.62-18.78q-26.16-7.1-52.19-14.66a33.51,33.51,0,0,0-7.61-1.49q-8.25,44.93-16.45,89.85c18.36,2.41,36.87,3.65,55.29,5.61,25.89,2.78,51.85,5,77.71,8.15,2.36.39,5,.39,7,1.84,1.27,1.81,1.39,4.16,1.59,6.3.23,9.58-2.07,19-4.33,28.23-1,3.45-1.81,7.22-4.28,10-2.35,2.26-5.78.75-8.53.3-21.47-5.83-43.09-11.14-64.36-17.67-21.68-5.54-43.09-12.08-64.71-17.81-3.16,17.29-6.55,34.53-9.56,51.84-1.15,7.51-5.84,13.7-8.67,20.58-2.71,5.54-4,11.61-5,17.64Q537.67,579,532,609.89c-.91,5.06-2.14,10.07-2.59,15.21-13.07-3.84-26.39-7.19-40-8.26,3.39-21.07,7.9-42,11.67-63,1.75-10.59,4.5-21.15,3.72-32,.1-7.69-2.79-15.36-.67-23,3.37-17.31,7-34.58,10-52-11.41-2.35-22.93-4.13-34.3-6.62-1.47,4.73-2,9.68-2.66,14.57A467.33,467.33,0,0,0,472.4,520c-.31,25.32-1.9,50.71-6.69,75.62-1.24,6.68-2.46,13.37-3.78,20q-3.74.23-7.44.61c3.75-20.65,8-41.27,9.39-62.26,1.92-23.4,1.23-46.93,3.39-70.32A459.65,459.65,0,0,1,476,421.78c4.87-27.6,10.18-55.12,15.37-82.66,2.7-12.12,4.6-24.43,7.6-36.48a5.68,5.68,0,0,1,6.33,4.36c11.62,1.87,23.24,3.73,34.93,5.1,3.25-14.65,5.68-29.47,9-44.11.91-4.62,4.53-7.81,7.79-10.89,2.49-2.09,2.92-5.48,3.88-8.4,4.67-17.14,11.18-33.94,21-48.84,10.59-17,25.87-30.38,41.94-42C633.38,151.06,642.69,143.93,652.42,137.42ZM500.68,328.06c-5.72,30.67-11.83,61.26-17.33,92,11.66,2.13,23.3,4.48,35.06,5.93,6-30.91,12.2-61.81,17.89-92.79C524.45,331.38,512.63,329.07,500.68,328.06Z" transform="translate(-58.36 -126.27)"/><path class="cls-1" d="M854.84,544.12c8.49-1.76,17.51-3.42,26-.92,3.95,1.11,7.74,4.33,7.48,8.79-.18,6.83-3.24,13.17-6.07,19.26-7.88,16.18-20.53,29.4-34.37,40.64C804.63,646.63,761.62,681.7,718,716c-42.57,34.85-86,68.65-128.56,103.49-36.78,29.14-73.07,58.9-109.64,88.3-1.67,1.28-2,3.47-2.4,5.4-10.22,55.26-19.89,110.62-30.2,165.87-4.16,24.89-9,49.66-13.42,74.5-7.89,44.89-16.57,89.63-24.43,134.53-1.47,9.31-4.06,18.47-4.66,27.91,11.76,1.55,23.51-.8,35.27-1.17,10.07.1,20.43,1.1,29.64,5.49,8.24,3.53,14.2,10.48,21.25,15.76A52.15,52.15,0,0,0,525,1346.9c1.36-.21,3.13.2,4.15-1a75.36,75.36,0,0,1,.24-8.64c4-2.83,10.44-3.69,14.06.17,2.24,3.49,1.92,7.92,2.77,11.87a16.35,16.35,0,0,1,12.18,7.23c5,7.91,6.31,17.4,7.65,26.48a150.39,150.39,0,0,1-7.82,72.25,78.78,78.78,0,0,1-18,27.85c6.2,10.18-.92,25.44-12.62,27.62-10.7,2.23-21.73,2.61-32.63,2.64-23.72-.93-47.29-4-71-5.29-16-.9-32-.8-48-.28-21.41,1.11-43.1,1.81-64.26-2.27-9.17-1.72-18.52-3.82-26.52-8.83-5.05-3-7.54-9-7.81-14.74-.13-5.54.57-11.34,3.36-16.22,2.12-3.25,6.42-3,9.78-3.81,2.83-11.14,5.45-22.33,8-33.53,1.07-4.8,2.65-9.51,3.08-14.41-1.61-1-3.62-2-5.53-1.21-1.21,2.14-1.59,4.62-2.2,7-1.83,8.1-4.07,16.1-5.79,24.23a37.19,37.19,0,0,1-3.12,9.13c-4.25-.53-8.66-1.42-12.17-4a7.31,7.31,0,0,1-2.57-7c1.74-11.8,5.76-23.13,7.74-34.87-5.33-1.4-11.2-2-15.69-5.47,0-17.81,6.72-34.69,13.81-50.72a203.75,203.75,0,0,1,14-25.52c.62,1.3,1.31,2.59,2,3.9,2.33-2.66,2.84-6.19,3.26-9.56,4.22-20.55,9.85-40.78,14.44-61.25Q342,1127.54,371.2,995.75c-4.76,2.92-8.93,6.7-13.2,10.28-16.78,13.58-33.42,27.3-50.43,40.59q-65.76,53.24-131.8,106.13c-8.69,6.67-16.78,14.29-26.4,19.64-7.24,4.12-15.72,2.24-23.46,1-6.73-1.12-13,2.26-18.08,6.38-9.56,7.77-18.92,15.77-28.38,23.65-3.46,2.62-6.49,6-10.61,7.59-4.69,1.81-10.5-2.09-10.4-7.18-.63-3.95,2.56-6.89,5.29-9.16,67-56,134.1-111.81,200.75-168.18q60.6-50.92,121-102.09c1.65-2.19,1.87-5,2.59-7.59q27.68-122.18,54.34-244.59c3.42-15.92,7.18-31.77,10.16-47.78,15.25-.85,30.54.42,45.65,2.5,8.7,1.42,17.5,2.83,25.78,6,1.18.56,2.64.87,3.42,2a60.15,60.15,0,0,1-1.14,7.52c-19.66-8.33-41.33-9.29-62.34-10.84-1.84.24-5.34-1.14-5.3,1.77-19,91.8-39.41,183.3-59,275-.28,1.44-.45,2.91-.62,4.39,6.92-4.89,13.08-10.76,19.66-16.1s12.6-10.76,19.09-15.91a5.64,5.64,0,0,0,2.48-3.7q18.54-96.69,36.57-193.49c2.7-14,5-28,8-41.94a119,119,0,0,1,34.71,6.84,14.33,14.33,0,0,1,4.84,2.51c-2.55,17.4-6.16,34.64-9.19,52-4.47,24.87-8.76,49.77-13.43,74.61-3.42,19-7.29,38-10.2,57.16,4.47-2.81,8.17-6.63,12.27-9.93C552.76,783.79,601.14,742.14,650,701q66.54-56.52,133.34-112.73c9.75-7.89,19.08-16.31,29.14-23.81C825,555,839.3,547.33,854.84,544.12Zm-35.37,35.4Q742.9,643.86,666.75,708.73c-45.55,38.09-90.57,76.82-136.1,114.94q-29.89,25.1-59.57,50.43c-24.22,20.1-48.16,40.53-72.39,60.61-2.07,1.84-4.92,3.43-5.37,6.42-1.23,5.44-2.56,10.86-3.68,16.32,9.22-6.19,17.39-13.85,26.16-20.66q38.68-31.32,77.39-62.61,35.09-27.85,69.92-56Q699.6,708.52,836.66,599.66c6.31-4.94,12.81-10,17.38-16.66,2.2-3.58,4.3-8.13,2.22-12.24-2.37-4.82-8.59-5.39-13.3-4.75C833.72,567.49,826.61,574,819.47,579.52ZM362.59,965.62c-39,33-78.14,65.84-117.07,98.91-17.71,15-35.61,29.69-53.3,44.68-16.18,13.77-32.74,27.12-48.92,40.88,1.27.92,2.75,3.33,4.54,2.08,4.63-3.05,8.53-7.06,13-10.26,33.92-27.81,68.37-55,102.38-82.66,18.83-15.17,37.88-30.07,56.56-45.44,18.88-15.48,38.34-30.29,56.77-46.29,1.64-5.76,2.91-11.63,4.44-17.42C374.7,955.05,368.76,960.46,362.59,965.62ZM409,965c-7.74,5.88-14.94,12.43-22.71,18.27-1.3,1-2.81,2.09-3.14,3.85-19.36,86.24-39.13,172.41-60.81,258.11-4.86,21-10.68,41.82-15,63,4.65-3.31,9.57-7.17,15.63-6.84,9.31.28,18.5,2.06,27.8,2.68.06,2.18.15,4.39.37,6.59,6.63.34,13.24.92,19.86,1.34,2.52.3,5.19.3,7.51,1.45,2.73,3.33,3.54,7.72,4.53,11.81a173.19,173.19,0,0,1,3.27,39.75c-.7,21.44-4.55,42.88-12.39,62.9-3.68,8.3-7.39,16.76-13.25,23.8-3.61,4.52-7.9,9.15-13.72,10.62-8.31.71-16.65-.41-24.87-1.59a218.68,218.68,0,0,0,7.38-35c0-1.38.61-2.89-.1-4.15-1.56-1.15-3.56-1.24-5.39-1.6-2.27,5.22-2.9,11-4.36,16.45-2.13,10.39-5.33,20.61-6.43,31.18a112.71,112.71,0,0,0,16.9,3.32c8.39,1,17.13,2.32,25.36-.28,6.65-2.41,11.52-8,15.94-13.25,12.6-16.47,19.57-36.57,23.36-56.78,4.63-25.41,5.19-51.89-1.13-77.07-1.9-6.67-4.38-13.78-10-18.25-6.92-4.18-15.37-2.39-23-3.24,22-116.83,44.29-233.61,65.94-350.5C420,955.06,414.85,960.53,409,965Zm132.27,396.33c.86,5.78,2.15,11.5,2.87,17.31a159.37,159.37,0,0,1-1.31,53.14c-2.53,10.64-5.71,21.61-13,30.1-1.63,2-4.09,3.78-6.83,3.45-10-1-19.9-2.79-29.8-4.46-27.25-5-54.57-10-82.24-11.91-6.25-.14-12.82-1.14-18.8,1.2-2.86.81-2.72,5.79.24,6.36,3.12.94,6.4,1.1,9.62,1.59,16.52,1.9,32.92,4.66,49.34,7.24,20.5,3.11,40.76,7.55,61.33,10.2,4.21.48,8.64,1.7,12.77.11,6.3-2.16,10.7-7.58,14.06-13.07a94.27,94.27,0,0,0,9.65-23.55,147.54,147.54,0,0,0-.2-73c-.55-2-1.36-4-3.24-5C544.27,1360.6,542.74,1361.15,541.26,1361.33Z" transform="translate(-58.36 -126.27)"/><path class="cls-1" d="M483.74,307.73c1.87-2.68,5.46-2.89,8.42-3-1.12,6.92-2.61,13.79-3.46,20.75-3.06-.71-6.37-2.53-7.3-5.73C480.91,315.68,481.4,311.22,483.74,307.73Z" transform="translate(-58.36 -126.27)"/><path class="cls-1" d="M720.29,452.83c3.6,2.47,5.24,6.84,5.46,11.07A50,50,0,0,1,722,485c-1.64,4.2-4.81,8.11-9.38,9.17C716.71,480.78,720.7,467,720.29,452.83Z" transform="translate(-58.36 -126.27)"/><path class="cls-2" d="M290.13,1325.55c.1-2.56,3.12-4.47,5.27-5.66-.42,3.37-.93,6.9-3.26,9.56C291.44,1328.14,290.75,1326.85,290.13,1325.55Z" transform="translate(-58.36 -126.27)"/></svg>