<svg id="Layer_1" data-name="Layer 1" xmlns="http://www.w3.org/2000/svg" viewBox="0 0 748.34 1561.26"><defs><style>.cls-1{fill:#e6d8b5;}.cls-2{fill:#ececec;}.cls-3{fill:#ededed;}</style></defs><path class="cls-1" d="M454.08,66.49c7.15-3.42,14.75-7.39,23-6.24,6.29.45,11.8,3.73,17.54,6,7.58-1.95,15.4-4.07,23.3-3.07,5.76.61,11.79.28,17.27,2.43,4.22,1.67,6.42,6.09,7,10.38,1,7.26,2.33,14.49,3.44,21.74,10.89,7.39,19.07,19,21.1,32.12,3.32,15.59-3.72,32.84-17.22,41.39-3.31,1.58-3.19,5.6-4.91,8.38-3.39,5.57-8.83,9.51-14.61,12.31,1.5,14.63,2.4,29.38,3.52,44.06,47.24-8.76,94.38-18.09,141.6-26.93,10.89-1.89,22-4.91,33.08-2.84,7.85,1.7,15.78,6.46,18.59,14.36a21.94,21.94,0,0,1-5,24.16c-6.88,7.15-17.15,9.18-26.68,9.59-53.14,1.88-106.25,4.51-159.4,6.17q1.54,20.5,2.8,41c56.52-1.67,113-4.86,169.5-6.33,10.27-.16,21.53,2.31,28.67,10.24a20.91,20.91,0,0,1,5.17,18.67,24.21,24.21,0,0,1-13.21,17.2c-6.52,3.71-14.2,4.79-21.6,4.16-39.7-3.78-79.32-8.38-119-12.32-16.09-2.08-32.27-3.36-48.36-5.46,1.35,43.16,3.52,86.34,8.71,129.22a830.51,830.51,0,0,0,28.8,138.17c15.13,51.19,34.79,101,57.21,149.38,23.3,50.52,49.47,99.62,75.48,148.78,37,69.92,74.09,140.61,96,217A521.21,521.21,0,0,1,822,1189c2.7,23.53,4.3,47.28,2.78,71-2,44.87-11.32,89.64-29.28,130.9a341.16,341.16,0,0,1-222.64,196.05c-68.85,19.77-143.17,19.28-212-.39a354.47,354.47,0,0,1-109.15-53.28c-29.93-22.39-56.79-49.14-78-80-23-32.76-39.64-69.83-50.16-108.41a398.42,398.42,0,0,1-10.3-144.66c4.92-50.54,18.76-99.91,38-146.81,26.88-66.19,63.39-127.77,98.17-190,19.93-35.12,39.37-70.53,57.73-106.5A1095.75,1095.75,0,0,0,356.88,642.8c22.71-62.62,38.93-127.71,46.1-194,5.06-47.29,6.78-94.86,7.94-142.38-54.71,5.05-109.28,11.53-164,16.62-8.75,1.05-17.93,1.57-26.35-1.54-8.84-3.31-16.5-11.56-16.31-21.43-.61-8.85,5.39-16.71,12.72-21,8.79-4.86,19.26-4.52,29-4,55.26,2,110.49,4.48,165.75,6.36,1.65-17.91,2.29-35.9,3.95-53.81-53.89-1.87-107.77-3.74-161.65-5.26-8.86-.48-18.23-.59-26.1-5.24-6.86-3.8-12.07-11.1-12.11-19.11a22.57,22.57,0,0,1,11.23-19.89c8.87-5.8,20-4.77,30-3.16,41.4,7.22,82.69,15,124.07,22.33,12.09,2,24.05,4.78,36.23,6.23.16-4.08.47-8.16.51-12.24-6.11-2.81-11.6-7.35-14.54-13.49-1.31-2.4-1.54-5.59-4.19-7-6.75-4.54-12.43-11-15.08-18.76-5-12.67-2.57-27.44,4.43-38.87,3.68-6.36,9.26-11.27,15-15.74,1.51-7.76,2.7-15.58,4-23.37a11.29,11.29,0,0,1,8.9-9.54C428.9,62.63,442,62.31,454.08,66.49Zm.11,13.79c-9.47-2.42-19.63-5.59-29.27-2.1-3.38,1-4.8,4.73-5.46,7.87-1.29,6.63-2,13.41-4.21,19.83C404,112,395.86,124,395.44,137a26.45,26.45,0,0,0,8.86,20.69c2.45,2.24,5.69,3.46,8,5.88,1.86,3.28,2.7,7.12,5.16,10.06,4.32,5.22,11.08,7.65,17.65,8.36,7.83,1.22,15.39-2,22.27-5.39,5.56-3.51,11.78.93,17.73.2,4.39.13,8.6-3.34,12.88-1.3,5.16,1.95,10,4.79,15.51,5.83a30.42,30.42,0,0,0,22-3c5.38-3,8.68-8.61,10.31-14.42,3.84-2.46,7.83-4.85,10.89-8.3A26.73,26.73,0,0,0,553.3,139a35.47,35.47,0,0,0-13.11-28.18c-2.28-2.07-5.31-3.34-7.13-5.87-1.51-5.18-2-10.63-3-15.92-.68-3.25-1.28-6.91-3.87-9.23-5.49-3.89-12.74-3.4-19.06-2.5-4.84.51-9.35,2.87-14.2,3-6-1.93-11.55-5.67-18-6.14C467.46,73.89,461.39,79.49,454.19,80.28Zm-4.3,127.2c-.52,8.58-1.45,17.12-1.75,25.71,17.26,0,34.53,0,51.8.07-.69-8.62-1-17.27-2.14-25.85C481.83,207.46,465.86,207.4,449.89,207.48Zm-3.61,48.19c-.83,8.87-1.64,17.75-2.22,26.64,20,.09,39.93,0,59.89-.05-.51-8.9-1.48-17.75-2.17-26.63C483.28,255.47,464.78,255.52,446.28,255.67ZM421.86,308.2c-.87,2.49-2,5.66,0,7.92,2.2,3.72,7,3.33,10.76,3.38-.66,18.89-.95,37.8-1.84,56.69-3.43.37-7.93-.92-10.29,2.35-2.52,2.66-1.69,6.86.59,9.38,2.51,2.49,6.35,1.58,9.52,1.94-.61,17.32-1.48,34.64-1.75,52-3.18.14-6.47-.34-9.56.59-3.92,1.44-5.5,6.91-2.66,10.07,2.81,3.56,7.87,2.59,11.83,2.89-.48,16.28-1.24,32.56-1.66,48.85-4.87-.1-10-1-14.67.66-5.26,2.15-4.46,10.76,1,12.08,4.36,1,8.92.25,13.37.51-.55,16.11-1.25,32.23-1.62,48.34-7.28.74-14.6.11-21.89.35-2.23.11-4.73.56-6.21,2.39-1.71,1.73-1.43,4.43-.88,6.6,1,3,4.33,4,7.16,4.16,7.12.24,14.25.07,21.38.14-.25,11.72-1.08,23.42-1.22,35.14-11.79.49-23.62-.18-35.41.32-3.78.44-5.73,4.76-5.1,8.19A7.58,7.58,0,0,0,390,628.2c10.93.09,21.87-.37,32.79.19-.54,10-.81,20-1.17,30-15.84.07-31.67,0-47.51,0-2.82-.18-5.21,1.87-6.3,4.32a7,7,0,0,0,6.1,9c15.76.44,31.56-.21,47.32.36-.41,9.82-.93,19.66-.9,29.5-18,.16-36.06,0-54.09,0-2.27.15-4.86.24-6.6,1.89-3.06,3.89-1.29,11,4.26,11.22,18.62.31,37.26,0,55.89.14-.34,9.55-1.06,19.08-1.13,28.64-18.89,0-37.78.21-56.67-.05-3.18,0-7-.6-9.36,2a6.62,6.62,0,0,0,.77,10.13c1.89,1.42,4.36,1.43,6.62,1.49q29,.06,57.93-.07c-.05,9.26-.6,18.5-.84,27.75-19.7.38-39.41.35-59.12.41-2.57.07-5.63,0-7.39,2.21-3.64,3.72-.67,10.73,4.48,10.93,20.5.29,41-.14,61.5.27-.16,9.4-.75,18.78-.92,28.18-19.58.18-39.17,0-58.75.11-3.6-.1-7.57,2-8.07,5.86-.93,4.17,3.09,8,7.14,7.65,19.64,0,39.29,0,58.94,0,0,9.13-.34,18.25-.79,27.37-18.71.27-37.41,0-56.12.12a25,25,0,0,0-6.15.88A6.81,6.81,0,0,0,356,881.42c19.23.06,38.45,0,57.68,0-.14,8.47-.84,16.94-.86,25.42-14.93,0-29.86.29-44.79,0-4.9.06-9.85-.23-14.7.59a6.59,6.59,0,0,0-4.54,8.7c1.05,2.85,4.15,4.45,7.09,4.37,18.84.05,37.7-.28,56.54.05-.29,8.42-.83,16.84-.86,25.27-18.87.44-37.75.16-56.62.42a6.32,6.32,0,0,0-6.42,7.59c.49,3.48,4,5.8,7.41,5.6,18.25.25,36.51-.15,54.75.14.6,8.18-.57,16.49-.46,24.73-17.74,0-35.47.07-53.21,0-1.94,0-4,0-5.73,1.09-3,1.83-3.79,6.23-2,9.19a7.69,7.69,0,0,0,6.63,3.08c17.91.08,35.82,0,53.73,0q-5.16,139.11-10.81,278.21c-.72,25.27-2.3,50.52-2.62,75.8-8.8.15-17.6-.06-26.4.13a6.81,6.81,0,0,0-6.49,6.32c-.45,12.38.33,24.83-.52,37.18-13.2.4-26.4,7.74-32.58,19.62-6.73,12.36-5.59,29.77,5.48,39.3,6.21,6.09,14.87,8.47,23.23,9.77a84.9,84.9,0,0,0,40.91-5.37c10-3.49,19.08-9,29.08-12.53,29-10,62-8.29,89.68,5.24,15.06,7.43,31.32,13.57,48.37,13.29,11.63,0,24.15-2.64,32.77-11,6.48-6,9.41-15.11,9.12-23.8-.17-8.11-3.7-15.87-8.91-22-7.34-8.12-18.23-12.34-29.06-12.61q0-18.24,0-36.48c.36-3.77-3.23-7.11-6.89-7-7.24,0-14.49,0-21.73,0-.25-9-.27-18-.72-27-1.52-.12-1.35-.51,0-.81-1.18-55.4-2.65-110.8-3.76-166.21,17.38.1,34.78.07,52.17,0,3.4-.06,7.72,0,9.71-3.32,2.83-3.78.05-10-4.8-10-19.1-.35-38.22,0-57.33-.11-.13-2.86-.18-5.71-.17-8.55,17.55.18,35.09,0,52.63.08,3-.05,6.63.23,8.78-2.35,3.94-3.72.86-11.61-4.75-11.11-19-.29-38.11.06-57.17-.12,0-2.25-.06-4.49-.13-6.72,18.11.15,36.21.07,54.32.12,3,0,6.9-.18,8.53-3.23,2.72-3.94-.14-10.37-5.13-10.21-19.29-.38-38.59.17-57.87-.12-.25-4.15-.17-8.3-.24-12.45,18.89-.16,37.77.13,56.66-.14a7.19,7.19,0,0,0,7.07-4.48c1.92-3.51-1-8.52-5-8.66-19.74-.54-39.51.2-59.26-.34,0-4.3-.32-8.58-.13-12.87,18.1,0,36.2,0,54.3-.07,3-.22,6.72.08,8.81-2.59,4.11-3.65.7-11.5-4.75-11.15-19.53-.06-39.06,0-58.59,0-.23-5.06-.2-10.13-.39-15.18,16-.09,31.93,0,47.9-.08,3.95-.08,7.95.34,11.87-.39,3.57-.55,6.59-4.4,5.38-8-.48-3.36-4-5.29-7.15-5.18-19.44.07-38.89.14-58.33.09-.23-7.62-.3-15.25-.36-22.87,19.18-.12,38.38.07,57.56-.09,3,0,6.46-.88,7.85-3.78,2.42-4-1-9.82-5.76-9.5-20-.22-40.09.22-60.12-.23-.22-8.21-.3-16.42-.55-24.63,18.85,0,37.7,0,56.56,0,2.92,0,6.27.05,8.49-2.19,4.06-3.46,1.29-11.57-4.3-11.15-20.31-.15-40.62.06-60.93,0-.51-8.51-.17-17.05-.62-25.56,20.12-.43,40.25.06,60.37-.22a7.71,7.71,0,0,0,7.34-5.57,7.07,7.07,0,0,0-7.21-7.92c-20.24.11-40.47-.18-60.71.24-.26-8.58-.45-17.16-.72-25.73,20.45,0,40.91,0,61.36,0,4.49.08,8.92-4.92,6.82-9.31-1-3.27-4.75-4.25-7.8-4.17-20.21,0-40.43,0-60.64,0,.21-9.13-.15-18.25-.59-27.36q30.09-.13,60.17,0c3.25.14,7-.85,8.53-4,2.11-3.26-.23-7.75-3.55-9.06A75.83,75.83,0,0,0,587,827c-18.86-.14-37.71.11-56.56-.12-.23-9.44.14-18.9-.73-28.3,21.09-.11,42.19.07,63.28-.07a7.55,7.55,0,0,0,6.44-3.82c1-2.7.59-6.3-1.92-8-2.77-2-6.34-1.33-9.52-1.45-19.46,0-38.92.31-58.37-.15-.1-9.31-.35-18.61-.51-27.91,20.3.1,40.59.07,60.89.07,3.17.18,6.6-1.25,7.75-4.41,2.58-4.29-2.35-9.3-6.72-9.18-20.8.08-41.6.12-62.4,0-.4-9.55-.09-19.1-.52-28.64,19,0,37.9.08,56.84-.06,2.58.11,4.49-2.08,5.49-4.22,1.73-4.13-1.92-9.48-6.5-8.93-18.74.15-37.49-.07-56.23.08-.36-10-.23-19.94-.68-29.91,16.17,0,32.34.15,48.5-.08,4.84.07,8.05-5.8,5.61-9.93-1.64-3.42-5.84-3.48-9.1-3.42-15.08.14-30.17-.15-45.24.13-.35-10.15-.38-20.3-.73-30.44,10.64,0,21.28,0,31.92.07,3,0,6.57-.16,8.27-3.05,3.12-4-.33-10.54-5.35-10.41-11.71-.18-23.43.3-35.14,0-.1-11.77-.48-23.53-.77-35.29,6.65,0,13.3.05,20,0a15.07,15.07,0,0,0,6.23-1.05c2.17-1.67,3.85-4.75,2.78-7.49a6.15,6.15,0,0,0-5.86-4.62c-7.78-.3-15.57.06-23.35-.08-.47-16.26-.81-32.52-1.18-48.78,4.46,0,8.95.28,13.4-.19,5.4-1.21,6.72-9.53,1.71-12.11-4.8-2.07-10.25-.62-15.32-1q-.67-24.4-1.06-48.82c3.47.07,7.35.53,10.35-1.62,2.15-2,3.68-5.51,1.78-8.2-2.41-4.55-8.32-3.47-12.58-3.59-.16-17.38-.57-34.75-1.09-52.12,3.23-.11,7.29.44,9.5-2.49a6.09,6.09,0,0,0-.1-8.41c-2.23-3.06-6.42-2.57-9.73-2.61-.17-18.91-1-37.79-1.1-56.7,3.56,0,7.35-1.21,9.18-4.49.53-2.42.78-5.5-1.31-7.28-2.45-2.34-6.07-2-9.18-1.94l-89,0C426.55,306,423.53,306,421.86,308.2Z" transform="translate(-110.79 -60.05)"/><path class="cls-1" d="M455,93.78c6.8.07,12.58-4.12,18.92-5.91,6.59.95,12.23,5.73,19,5.9,7.79-.15,15.08-3.26,22.72-4.36,1.77,6.81,3,13.74,4.58,20.59a8.58,8.58,0,0,0,3.41,5.26c4.46,3.46,9.52,6.49,12.7,11.3,3.2,5.17,4.93,12.16,1.61,17.69-2,3.95-6.1,5.86-9.73,7.94-5.66,2.79-4.52,10.83-9.68,14.14-4.2,2.48-9.48,2.47-14,.9-6.21-2-11.92-5.75-18.53-6.38-4.23-.1-8.13,2-12.28,2.44-4.55-.55-9-2.82-13.63-1.95-7,.83-12.77,5.71-19.73,6.76-3.58.32-7.43,0-10.57-1.92-3.75-2.81-3.8-8-6.1-11.75-3.58-4.39-10.42-5-13.13-10.29-4-7.15-.41-16.13,4.95-21.56,4.35-4.6,11.85-6.82,13.32-13.64,1.19-6.43,2.94-12.77,3.7-19.27C440.2,90.23,447.41,93.1,455,93.78Z" transform="translate(-110.79 -60.05)"/><path class="cls-1" d="M446.39,319.35c3.5.13,7,.11,10.52.06,0,18.94-.6,37.88-.57,56.82-3.92.09-7.84,0-11.75.08C445.13,357.32,445.58,338.33,446.39,319.35Z" transform="translate(-110.79 -60.05)"/><path class="cls-1" d="M493.8,319.44c4-.09,8,0,12,0,.08,19,1.05,37.92,1,56.9q-6.32-.1-12.61-.09C493.79,357.3,494,338.37,493.8,319.44Z" transform="translate(-110.79 -60.05)"/><path class="cls-1" d="M469.48,389.58c3.75,0,7.5-.06,11.25.09-.13,17.38.21,34.77.16,52.15-4.12.12-8.24.08-12.35.06C468.86,424.44,469.38,407,469.48,389.58Z" transform="translate(-110.79 -60.05)"/><path class="cls-1" d="M494.54,441.87c-.22-17.42-.26-34.84-.28-52.26,4.4.11,8.8.07,13.21.12.28,17.35.56,34.7,1,52.06C503.86,442,499.2,441.83,494.54,441.87Z" transform="translate(-110.79 -60.05)"/><path class="cls-1" d="M494.44,455.38c4.77,0,9.54-.09,14.3.07.33,16.15.74,32.3,1.12,48.45-5,0-10,0-15,0C494.56,487.75,494.83,471.56,494.44,455.38Z" transform="translate(-110.79 -60.05)"/><path class="cls-1" d="M439.84,517.31c4.68.17,9.37.1,14.06.11.06,13.52-.35,27-.54,40.56-.08,2.76.05,5.57-.74,8.27-4.83-.16-9.66,0-14.48-.35Q439,541.6,439.84,517.31Z" transform="translate(-110.79 -60.05)"/><path class="cls-1" d="M494.78,517.49c5.17.08,10.35-.12,15.52.11.37,16,.25,32.08,1.12,48.1-5.37,1-10.85,0-16.26.23C494.71,549.79,495.05,533.64,494.78,517.49Z" transform="translate(-110.79 -60.05)"/><path class="cls-1" d="M466.56,566.25c.21-16.26.71-32.52.79-48.79,4.71,0,9.41-.06,14.12,0,0,16.19.16,32.38.25,48.57C476.67,566.25,471.61,566.1,466.56,566.25Z" transform="translate(-110.79 -60.05)"/><path class="cls-1" d="M495.15,579.46c5.49,0,11-.15,16.5.15.1,11.68.31,23.35.77,35-5.68.23-11.36,0-17,0C495.35,602.93,495.4,591.19,495.15,579.46Z" transform="translate(-110.79 -60.05)"/><path class="cls-1" d="M436.46,614.69c.28-11.74,1-23.47,1.06-35.22,5.11,0,10.21-.05,15.32,0-.08,11.73-.55,23.46-.41,35.19C447.1,614.8,441.78,614.77,436.46,614.69Z" transform="translate(-110.79 -60.05)"/><path class="cls-1" d="M435.85,628.15c5.32-.46,10.68-.15,16-.23.1,10.18-.28,20.35-.28,30.53-5.59,0-11.17,0-16.76,0C435.49,648.34,435.72,638.24,435.85,628.15Z" transform="translate(-110.79 -60.05)"/><path class="cls-1" d="M465.39,628.09c5.6.08,11.2-.07,16.79.13-.3,10.06.21,20.13.16,30.2-5.84.05-11.69-.06-17.53,0C464.76,648.32,465.61,638.22,465.39,628.09Z" transform="translate(-110.79 -60.05)"/><path class="cls-1" d="M495.39,628.19c5.79,0,11.57,0,17.37,0-.11,10.1.66,20.18.68,30.28-6,0-11.92-.06-17.88,0Q495.59,643.33,495.39,628.19Z" transform="translate(-110.79 -60.05)"/><path class="cls-1" d="M464.13,701.71c.19-10,.28-19.9.43-29.85,5.95.09,11.9,0,17.84.06,0,9.91,0,19.82.13,29.73Q473.34,701.7,464.13,701.71Z" transform="translate(-110.79 -60.05)"/><path class="cls-1" d="M495.68,701.76c0-10,0-19.92-.09-29.88,6.05.14,12.11-.19,18.16.14.08,9.88.47,19.75.69,29.62C508.19,701.86,501.93,701.6,495.68,701.76Z" transform="translate(-110.79 -60.05)"/><path class="cls-1" d="M463.85,714.89c6.2.25,12.55-.44,18.65.33.15,9.41.1,18.83.1,28.25-6.42.18-12.85-.06-19.28.09C463.44,734,463.75,724.45,463.85,714.89Z" transform="translate(-110.79 -60.05)"/><path class="cls-1" d="M495.84,715.11c6.29-.41,12.6-.11,18.91-.21-.06,9.56.5,19.11.68,28.67-6.51.08-13-.05-19.54,0C495.88,734.1,496,724.6,495.84,715.11Z" transform="translate(-110.79 -60.05)"/><path class="cls-1" d="M431.46,756.85c6,.57,12.1-.39,18.13.37-.19,9.2-.32,18.41-.33,27.61-6.26.28-12.55-.3-18.78.51C430.66,775.83,431.32,766.35,431.46,756.85Z" transform="translate(-110.79 -60.05)"/><path class="cls-1" d="M462.87,757.18c6.64,0,13.28-.19,19.92,0-.18,9.31.19,18.62,0,27.93-6.73-.11-13.45,0-20.17.13C462.52,775.91,463.08,766.55,462.87,757.18Z" transform="translate(-110.79 -60.05)"/><path class="cls-1" d="M496.15,757.15c6.51.05,13-.09,19.53,0,.09,9.36.12,18.74.64,28.1-6.64-.07-13.28-.1-19.91,0C496.11,775.92,496.34,766.53,496.15,757.15Z" transform="translate(-110.79 -60.05)"/><path class="cls-1" d="M429.81,798.59c6.34,0,12.68-.16,19,.11q-.31,14.07-.39,28.14c-6.39.13-12.78-.07-19.15.4C428.94,817.7,429.87,808.13,429.81,798.59Z" transform="translate(-110.79 -60.05)"/><path class="cls-1" d="M462.31,798.58c6.86,0,13.71-.09,20.57,0,.16,9.42-.27,18.86.37,28.26-7.15.14-14.3,0-21.44.1C461.72,817.48,462.27,808,462.31,798.58Z" transform="translate(-110.79 -60.05)"/><path class="cls-1" d="M496.4,826.9c0-9.47,0-18.94-.08-28.42,6.76,0,13.52,0,20.29,0,0,9.43.07,18.89.72,28.31C510.35,827,503.38,826.9,496.4,826.9Z" transform="translate(-110.79 -60.05)"/><path class="cls-1" d="M428.45,840.49c6.48,0,13-.06,19.44,0,.07,9.12-.15,18.23-.2,27.35-6.73.09-13.45,0-20.17.09C427.73,858.79,428.46,849.65,428.45,840.49Z" transform="translate(-110.79 -60.05)"/><path class="cls-1" d="M461.46,840.52c7.26,0,14.52-.06,21.78,0-.11,9.06,0,18.13.09,27.19-7.4.31-14.81.06-22.21.2C461.34,858.8,461.49,849.66,461.46,840.52Z" transform="translate(-110.79 -60.05)"/><path class="cls-1" d="M427.08,881.4c6.78.14,13.56,0,20.34.08-.13,8.47-.37,16.94-.52,25.41-6.9.07-13.8,0-20.69.06C426.6,898.43,426.71,889.91,427.08,881.4Z" transform="translate(-110.79 -60.05)"/><path class="cls-1" d="M460.78,881.42c7.54.09,15.08-.08,22.63,0-.05,8.47,0,16.94.06,25.41-7.7.28-15.42-.32-23.09.41C460.45,898.64,460.68,890,460.78,881.42Z" transform="translate(-110.79 -60.05)"/><path class="cls-1" d="M496.62,881.41c7.23.07,14.47,0,21.71.08.17,8.54.49,17.07.51,25.62-7.37-.39-14.75-.09-22.13-.21C496.62,898.4,496.82,889.91,496.62,881.41Z" transform="translate(-110.79 -60.05)"/><path class="cls-1" d="M460.2,920.47c7.79.07,15.58,0,23.38.08-.27,8.55-.06,17.1-.05,25.66-7.92,0-15.84-.22-23.75.15C459.76,937.73,460,929.1,460.2,920.47Z" transform="translate(-110.79 -60.05)"/><path class="cls-1" d="M424.23,959.56c7.22,0,14.44,0,21.67-.07-.07,8.3-.13,16.61-.27,24.93-7.38-.1-14.75,0-22.12,0C423.7,976.11,424,967.84,424.23,959.56Z" transform="translate(-110.79 -60.05)"/><path class="cls-1" d="M459.43,959.58c8.08-.08,16.16,0,24.25,0-.2,8.23.15,16.48-.08,24.72-8.11.14-16.23.09-24.34.05C459,976.09,459.63,967.83,459.43,959.58Z" transform="translate(-110.79 -60.05)"/><path class="cls-1" d="M497.2,959.45c7.65.29,15.32-.11,23,.21,0,8.22.3,16.44.28,24.66-7.75.07-15.5,0-23.25,0A226.55,226.55,0,0,1,497.2,959.45Z" transform="translate(-110.79 -60.05)"/><path class="cls-1" d="M409.5,1351.87c4.43-118,9.51-236,13.37-354.08,7.51-.17,15-.08,22.54,0-.07,7.53-.4,15.07-.56,22.61-3.25.12-6.74-.12-9.68,1.52a6.8,6.8,0,0,0-.76,9.49c2.37,3.23,6.77,2.81,10.32,3-.19,5-.18,9.95-.3,14.92-3.39.25-7.48-.65-10.12,2.09-3.2,2.69-1.78,7.85,1.23,10.1,2.38,1.84,5.53,1.73,8.39,1.74-.09,4.26,0,8.54-.1,12.81-3.3.31-7.26-.59-9.92,1.9-3.27,3.4-1.63,10.1,3.06,11.29a41.23,41.23,0,0,0,6.77.56c-.09,4-.11,8-.11,12-3.67.44-8.51-.5-11,3-1.31,2.42-1.5,5.86.56,8,2.27,3.13,6.49,3,10,3.06.06,2,.13,4,.24,6-3.49.13-7.54-.26-10.23,2.47a7.34,7.34,0,0,0,1.93,10.68c2.34,1.4,5.17.83,7.77,1,0,2.84,0,5.7,0,8.56-3.05.12-6.5-.79-9.09,1.29-2.91,1.83-3,6-1.5,8.81,2.3,3.32,6.76,3.22,10.37,3.45q-1.74,96.86-3.76,193.72C429.08,1352,419.29,1351.8,409.5,1351.87Z" transform="translate(-110.79 -60.05)"/><path class="cls-1" d="M458.8,997.71c8.35,0,16.71.09,25.06,0,0,7.67-.15,15.34,0,23-8.5-.11-17-.21-25.49-.13C458.44,1012.94,458.8,1005.33,458.8,997.71Z" transform="translate(-110.79 -60.05)"/><path class="cls-1" d="M497.32,1020.46c0-7.58-.05-15.16,0-22.74,7.86.12,15.73,0,23.59.07-.08,7.6.29,15.2.64,22.79C513.45,1020.74,505.39,1020.57,497.32,1020.46Z" transform="translate(-110.79 -60.05)"/><path class="cls-1" d="M458.24,1034.08c8.55.14,17.11.13,25.67.16,0,5,.25,10.07.32,15.1-8.78.16-17.58.13-26.36,0C458,1044.24,458.28,1039.16,458.24,1034.08Z" transform="translate(-110.79 -60.05)"/><path class="cls-1" d="M457.47,1063.08c8.88.27,17.77,0,26.65.11,0,4.15,0,8.32.24,12.48a15,15,0,0,1-4.35.65c-7.54,0-15.08.07-22.61-.1C457.49,1071.84,457.49,1067.46,457.47,1063.08Z" transform="translate(-110.79 -60.05)"/><path class="cls-1" d="M457.27,1089.67c9,.09,18-.12,27,.15,0,4.1,0,8.21.08,12.32q-13.59.13-27.16,0C457.15,1098,457.21,1093.83,457.27,1089.67Z" transform="translate(-110.79 -60.05)"/><path class="cls-1" d="M497.67,1089.64c8.4.21,16.8-.07,25.2.12,0,4.15.1,8.3,0,12.46-8.38.12-16.75-.11-25.13-.09C497.68,1098,497.72,1093.8,497.67,1089.64Z" transform="translate(-110.79 -60.05)"/><path class="cls-1" d="M497.73,1115.82c8.55-.22,17.11,0,25.66,0q0,3.23.07,6.47-12.84.13-25.66.08C497.76,1120.15,497.74,1118,497.73,1115.82Z" transform="translate(-110.79 -60.05)"/><path class="cls-1" d="M456.16,1157.8c9.44.16,18.89.09,28.33.08-.06,26.72.41,53.44.39,80.16-.09,37.84.75,75.67.64,113.51-11,.61-22,.16-33,.24C453.7,1287.13,454.8,1222.46,456.16,1157.8Z" transform="translate(-110.79 -60.05)"/><path class="cls-1" d="M497.85,1157.87c8.85,0,17.7,0,26.56,0,.92,64.65,2.91,129.28,4.27,193.93-9.92-.08-19.83,0-29.75,0,0-51.94-.64-103.89-.72-155.83C498.16,1183.27,497.85,1170.57,497.85,1157.87Z" transform="translate(-110.79 -60.05)"/><path class="cls-1" d="M376.75,1365.51c6.25.2,12.5.1,18.75.18-.1,4.71-.49,9.43-.17,14.15,1.29,6.2,10.68,6.6,12.94.9,1.06-4.92.22-10.06.82-15,9.89.15,19.77-.2,29.65,0,0,4.78-.41,9.6.11,14.38,1.28,5.83,10.06,6.43,12.44,1,1.94-4.84.51-10.32,1.06-15.41q16.61,0,33.2,0c0,4.09-.08,8.18.08,12.28,0,3.07,2.13,6.36,5.35,6.74,3.57.75,7.63-2.06,7.94-5.75.59-4.44.19-8.93-.09-13.36,10.14.08,20.29-.16,30.43.16q-.13,6.56.08,13.12c.55,4.08,5.43,7.54,9.39,5.57,2-1,4.11-2.9,4.08-5.35.07-4.48-.18-9-.27-13.43,4.94,0,9.88-.19,14.82.07.15,12.08-.06,24.17,0,36.26a6.9,6.9,0,0,0,7.65,6.84c7.5-.35,15.36,1.13,21.48,5.7a21.15,21.15,0,0,1,8.83,18.3c-.53,7-5.9,13-12.37,15.34-9.06,3.41-19.05,3.13-28.44,1.49-17.38-2.93-32.17-13.27-48.9-18.2-28.84-8.66-60.71-7.25-88.45,4.62-9.16,3.56-17.72,8.68-27.32,11.08-12.17,4.15-25.81,5.27-38.11,1a18.62,18.62,0,0,1-11.6-12.14c-2-7.57,1.29-15.9,7.21-20.81,5.68-4.93,13.4-6.45,20.73-6.51,3.9.24,8.8-2.34,8.56-6.76C376.79,1389.84,376.7,1377.67,376.75,1365.51Z" transform="translate(-110.79 -60.05)"/><path class="cls-1" d="M470.39,319.27c3.31.11,6.62.11,9.93.1-.19,19,.2,38,.1,57-3.58,0-7.15-.07-10.72,0C469.81,357.3,470.63,338.3,470.39,319.27Z" transform="translate(-110.79 -60.05)"/><path class="cls-1" d="M432.89,714.88c5.84.06,11.67,0,17.52,0,.12,9.57-.45,19.13-.56,28.69-6,.24-12-.07-18,.06C432.1,734,433,724.47,432.89,714.88Z" transform="translate(-110.79 -60.05)"/><path class="cls-1" d="M425.55,920.55c7,0,14.08-.15,21.13-.06-.14,8.6-.3,17.21-.36,25.81-7.16-.75-14.36.16-21.54-.07C425.27,937.68,425.6,929.11,425.55,920.55Z" transform="translate(-110.79 -60.05)"/><path class="cls-1" d="M497.47,1034.15c8,.17,16-.26,24.07,0,.11,5.08.33,10.16.29,15.25-8.14,0-16.28,0-24.42-.09C497.41,1044.28,497.4,1039.21,497.47,1034.15Z" transform="translate(-110.79 -60.05)"/><path class="cls-1" d="M456.32,1135.87c9.37.15,18.76-.07,28.14.11-.09,2.75-.07,5.51-.06,8.29-9.35.24-18.71.12-28.06.09C456.44,1141.52,456.45,1138.69,456.32,1135.87Z" transform="translate(-110.79 -60.05)"/><path class="cls-1" d="M497.73,1135.88c8.72.16,17.44-.21,26.16.23,0,2.76,0,5.53,0,8.3-8.67-.05-17.35,0-26-.13C497.81,1141.47,497.79,1138.67,497.73,1135.88Z" transform="translate(-110.79 -60.05)"/><path class="cls-1" d="M443.88,389.65c4-.1,8-.12,12-.13,0,17.43-.5,34.87-.6,52.3-4.32.12-8.65.05-13,.08C442.64,424.48,443.77,407.08,443.88,389.65Z" transform="translate(-110.79 -60.05)"/><path class="cls-1" d="M441.84,455.17c4.37-.09,8.73.14,13.1.22-.06,16.14-.55,32.28-.61,48.42-4.67.18-9.35,0-14,.18C440.63,487.71,441.45,471.45,441.84,455.17Z" transform="translate(-110.79 -60.05)"/><path class="cls-1" d="M496.49,840.53c7,.11,14.07-.21,21.1,0,.06,9.09.31,18.19.32,27.3-7.15.1-14.31,0-21.46.06C496.65,858.79,496.6,849.66,496.49,840.53Z" transform="translate(-110.79 -60.05)"/><path class="cls-1" d="M496.81,920.6c7.49-.09,15-.29,22.49,0,.2,8.49.21,17,.39,25.47-7.6.25-15.2.06-22.8.14C496.89,937.66,497,929.13,496.81,920.6Z" transform="translate(-110.79 -60.05)"/><path class="cls-1" d="M497.6,1063.09c8.2.22,16.4-.44,24.6.12.17,4.33.18,8.68.3,13-8.31,0-16.61.17-24.92,0C497.65,1071.88,497.72,1067.48,497.6,1063.09Z" transform="translate(-110.79 -60.05)"/><path class="cls-1" d="M456.67,1115.62c9.25.08,18.51,0,27.77.13,0,2.19,0,4.4,0,6.61-9.25,0-18.5.05-27.76,0C456.65,1120.11,456.67,1117.86,456.67,1115.62Z" transform="translate(-110.79 -60.05)"/><path class="cls-1" d="M468.36,455.26c4.3.05,8.59.06,12.89,0-.7,16.17.27,32.36.17,48.55-4.64.18-9.29.08-13.93.14C467.8,487.71,468.45,471.49,468.36,455.26Z" transform="translate(-110.79 -60.05)"/><path class="cls-1" d="M465.55,614.79c.42-11.79.7-23.59.77-35.39,5.16.08,10.33,0,15.49,0,.07,11.73-.13,23.46.46,35.18C476.7,614.9,471.12,614.77,465.55,614.79Z" transform="translate(-110.79 -60.05)"/><path class="cls-1" d="M433.35,701.49c.49-9.88,1-19.75,1.13-29.64,5.61.19,11.23-.2,16.83.28-.28,9.86-.55,19.73-.58,29.6C444.94,701.82,439.14,701.7,433.35,701.49Z" transform="translate(-110.79 -60.05)"/><path class="cls-2" d="M837.84,1614.51c7.08.55,14.21-.08,21.29.55-.54,1.34-1.07,2.71-1.61,4.07-.21-.74-.62-2.23-.82-3-5.58-.32-11.17.32-16.74-.14A1.83,1.83,0,0,1,837.84,1614.51Z" transform="translate(-110.79 -60.05)"/><path class="cls-3" d="M835.62,1617.76c5-1.87,10.59-.51,15.85-.8-.53,2.19-2.41,3.38-4.28,4.35.53-1.08,1.09-2.12,1.66-3.16C844.43,1618,840,1618.36,835.62,1617.76Z" transform="translate(-110.79 -60.05)"/></svg>